SplineFontDB: 3.2
FontName: linjapimejapona1.0
FullName: linja pimeja pona
FamilyName: linja pimeja pona
Weight: Medium
Copyright: Copyright (c) 2024, Ret "jan Ke Tami" Samys, Creative Commons 0. components: 2020, jan Inkepa, Creative Commons 0; 2011, wrp, Unlicense
Version: 1.0
ItalicAngle: 0
UnderlinePosition: -100
UnderlineWidth: 50
Ascent: 800
Descent: 200
InvalidEm: 0
sfntRevision: 0x00010000
LayerCount: 2
Layer: 0 0 "Hinten" 1
Layer: 1 0 "Vorne" 0
XUID: [1021 572 -2013945090 27507]
StyleMap: 0x0040
FSType: 0
OS2Version: 4
OS2_WeightWidthSlopeOnly: 0
OS2_UseTypoMetrics: 1
CreationTime: 1723117504
ModificationTime: 1727703906
PfmFamily: 17
TTFWeight: 400
TTFWidth: 5
LineGap: 90
VLineGap: 0
Panose: 2 0 5 3 0 0 0 0 0 0
OS2TypoAscent: 800
OS2TypoAOffset: 0
OS2TypoDescent: -200
OS2TypoDOffset: 0
OS2TypoLinegap: 90
OS2WinAscent: 885
OS2WinAOffset: 0
OS2WinDescent: 285
OS2WinDOffset: 0
HheadAscent: 885
HheadAOffset: 0
HheadDescent: -285
HheadDOffset: 0
OS2SubXSize: 650
OS2SubYSize: 700
OS2SubXOff: 0
OS2SubYOff: 140
OS2SupXSize: 650
OS2SupYSize: 700
OS2SupXOff: 0
OS2SupYOff: 480
OS2StrikeYSize: 49
OS2StrikeYPos: 258
OS2Vendor: 'PfEd'
OS2CodePages: 00000001.00000000
OS2UnicodeRanges: 00000003.0a000000.04000000.00000000
Lookup: 2 0 0 "'ccmp' Glyphen-Zusammensetzung/Zerlegung in Lateinisch Nachschlagetabelle 0" { "'ccmp' Glyphen-Zusammensetzung/Zerlegung in Lateinisch Nachschlagetabelle 0 Subtabelle"  } ['ccmp' ('DFLT' <'dflt' > 'latn' <'dflt' > ) ]
Lookup: 6 0 0 "'calt' Kontextuelle Alternativen in Lateinisch Nachschlagetabelle 1" { "'calt' Kontextuelle Alternativen in Lateinisch Nachschlagetabelle 1 Subtabelle"  } ['calt' ('DFLT' <'dflt' > 'latn' <'dflt' > ) ]
Lookup: 2 0 0 "Mehrfache Substitution in Lateinisch Nachschlagetabelle 2" { "Mehrfache Substitution in Lateinisch Nachschlagetabelle 2 Subtabelle"  } ['cc04' ('DFLT' <'dflt' > 'latn' <'dflt' > ) ]

StartChar: .notdef
Encoding: 388 -1 0
Width: 500
VWidth: 916
GlyphClass: 1
Flags: W
HStem: -249.974 174.488<-58.3487 560.712>
LayerCount: 2
Fore
SplineSet
501.908203125 -75.4853515625 m 2
 542.59765625 -75.4853515625 600.512695312 -114.633789062 600.512695312 -159.374023438 c 0
 600.512695312 -204.114257812 565.909179688 -249.973632812 525.21875 -249.973632812 c 2
 -4.78125 -249.973632812 l 2
 -45.4697265625 -249.973632812 -88.1953125 -211.942382812 -88.1953125 -167.203125 c 0
 -88.1953125 -122.462890625 -64.78125 -75.4853515625 -24.091796875 -75.4853515625 c 2
 501.908203125 -75.4853515625 l 2
EndSplineSet
Validated: 1
EndChar

StartChar: exclam
Encoding: 33 33 34
Width: 1024
VWidth: 940
GlyphClass: 2
Flags: W
VStem: 58 140.001<200.573 214.938 215.378 527.819> 80.001 142.001<559.063 683.249>
LayerCount: 2
Fore
SplineSet
236 -82 m 1x00
 223.000976562 -106.000976562 l 2
 223.000976562 -108.66796875 216.66796875 -116.000976562 204.000976562 -128.000976562 c 1
 203.000976562 -128.000976562 l 1
 186.333984375 -144.66796875 166.000976562 -153.000976562 142.000976562 -153.000976562 c 0
 137.333984375 -153.000976562 132.333984375 -152.66796875 127.000976562 -152.000976562 c 2
 126.000976562 -152.000976562 l 2
 110.000976562 -150.000976562 95.66796875 -145.000976562 83.0009765625 -137.000976562 c 0
 63.0009765625 -124.333984375 53.0009765625 -105.666992188 53.0009765625 -81 c 0
 53.0009765625 -65 57.333984375 -46.6669921875 66.0009765625 -26 c 1
 67.0009765625 -26 l 1
 72.333984375 -14.6669921875 77.6669921875 -6.5 83 -1.5 c 0
 88.3330078125 3.5 91 6.3330078125 91 7 c 2
 92 10 l 2
 98.6669921875 24 108 34 120 40 c 0
 132 46 141.333007812 49.1669921875 148 49.5 c 0
 154.666992188 49.8330078125 163.666992188 50 175 50 c 0
 186.333007812 50 198 46.3330078125 210 39 c 0
 231.333007812 26.3330078125 243.333007812 7.3330078125 246 -18 c 2
 246 -41 l 2
 246 -49.6669921875 242.666992188 -63 236 -81 c 1
 236 -82 l 1x00
198.000976562 319.999023438 m 1x80
 198 302.000976562 l 1
 198 296.000976562 l 2
 198 288.66796875 198.333007812 284.66796875 199 284.000976562 c 1
 199 281.000976562 l 2
 199 274.333984375 200 264.666992188 202 252 c 1
 202 235.333007812 203 223 205 215 c 0
 205 213.666992188 204.666992188 212.333984375 204 211.000976562 c 0
 204 189.000976562 203.666992188 177.333984375 203 176.000976562 c 0
 199.666992188 143.333984375 186.666992188 125.333984375 164 122.000976562 c 2
 151 122.000976562 l 2
 146.333007812 122.000976562 138.666015625 126.66796875 127.999023438 136.000976562 c 0
 100.666015625 160.66796875 82.9990234375 186.66796875 74.9990234375 214.000976562 c 1
 67.666015625 236.000976562 63.666015625 253.333984375 62.9990234375 266.000976562 c 0
 59.666015625 296.000976562 58.3330078125 312.000976562 59 314.000976562 c 2
 59 318.000976562 l 1
 58.3330078125 337.333984375 58 351.333984375 58 360.000976562 c 2
 58 491.000976562 l 1x80
 63 583.000976562 l 1
 67.6669921875 607.000976562 73.333984375 625.000976562 80.0009765625 637.000976562 c 1
 82.66796875 657.66796875 91.0009765625 674.66796875 105.000976562 688.000976562 c 0
 117.66796875 701.333984375 133.334960938 708.000976562 152.001953125 708.000976562 c 0
 170.668945312 708.000976562 187.001953125 700.000976562 201.001953125 684.000976562 c 0
 214.334960938 668.000976562 221.334960938 648.66796875 222.001953125 626.000976562 c 1x40
 221.334960938 603.333984375 215.334960938 580.666992188 204.001953125 558 c 1
 204.668945312 555.333007812 204.001953125 552.666015625 202.001953125 549.999023438 c 2
 202.001953125 547.999023438 l 1
 201.334960938 546.666015625 200.66796875 540.666015625 200.000976562 529.999023438 c 2
 199.000976562 488.999023438 l 1
 198.000976562 319.999023438 l 1x80
EndSplineSet
Validated: 37
EndChar

StartChar: quotedbl
Encoding: 34 34 35
Width: 1024
VWidth: 940
GlyphClass: 2
Flags: W
VStem: 238.002 189<554.905 697.199> 528 189<550.904 693.199>
LayerCount: 2
Fore
SplineSet
717 587 m 1
 714.001953125 544.000976562 l 1
 714.001953125 541.000976562 l 2
 714.001953125 535.000976562 711.001953125 520.333984375 705.001953125 497.000976562 c 1
 704.001953125 497.000976562 l 1
 694.001953125 461.000976562 676.668945312 434.66796875 652.001953125 418.000976562 c 0
 647.334960938 414.66796875 642.001953125 411.66796875 636.001953125 409.000976562 c 2
 634.001953125 408.000976562 l 2
 621.334960938 401.333984375 608.66796875 398.000976562 596.000976562 398.000976562 c 2
 584.000976562 399.000976562 l 2
 557.333984375 403.66796875 538.666992188 423.334960938 528 458.001953125 c 0
 520.666992188 481.334960938 517 511.66796875 517 549.000976562 c 1
 518 550.000976562 l 1
 518.666992188 569.333984375 520.666992188 584.666992188 524 596 c 0
 526.666992188 604.666992188 528 610.333984375 528 613.000976562 c 2
 528 614.000976562 l 1
 528 618.000976562 l 2
 528 643.333984375 533 664.666992188 543 682 c 0
 553 699.333007812 561.5 710.666015625 568.5 715.999023438 c 0
 575.5 721.33203125 584.666992188 727.999023438 596 735.999023438 c 0
 605.333007812 741.999023438 616.333007812 744.999023438 629 744.999023438 c 2
 636 744.999023438 l 2
 664 741.666015625 685 722.333007812 699 687 c 0
 702.333007812 678.333007812 705.833007812 667.5 709.5 654.5 c 0
 713.166992188 641.5 715.666992188 619.666992188 717 589 c 2
 717 587 l 1
427.001953125 591.000976562 m 1
 424.00390625 548.001953125 l 1
 424.00390625 545.001953125 l 2
 424.00390625 539.001953125 421.00390625 524.334960938 415.00390625 501.001953125 c 1
 414.00390625 501.001953125 l 1
 404.00390625 465.001953125 386.670898438 438.668945312 362.00390625 422.001953125 c 0
 357.336914062 418.668945312 352.00390625 415.668945312 346.00390625 413.001953125 c 2
 344.00390625 412.001953125 l 2
 331.336914062 405.334960938 318.669921875 402.001953125 306.002929688 402.001953125 c 2
 294.002929688 403.001953125 l 2
 267.3359375 407.668945312 248.668945312 427.3359375 238.001953125 462.002929688 c 0
 230.668945312 485.3359375 227.001953125 515.668945312 227.001953125 553.001953125 c 1
 228.001953125 554.001953125 l 1
 228.668945312 573.334960938 230.668945312 588.66796875 234.001953125 600.000976562 c 0
 236.668945312 608.66796875 238.001953125 614.334960938 238.001953125 617.001953125 c 2
 238.001953125 618.001953125 l 1
 238.001953125 622.001953125 l 2
 238.001953125 647.334960938 243.001953125 668.66796875 253.001953125 686.000976562 c 0
 263.001953125 703.333984375 271.501953125 714.666992188 278.501953125 720 c 0
 285.501953125 725.333007812 294.668945312 732 306.001953125 740 c 0
 315.334960938 746 326.334960938 749 339.001953125 749 c 2
 346.001953125 749 l 2
 374.001953125 745.666992188 395.001953125 726.333984375 409.001953125 691.000976562 c 0
 412.334960938 682.333984375 415.834960938 671.500976562 419.501953125 658.500976562 c 0
 423.168945312 645.500976562 425.668945312 623.66796875 427.001953125 593.000976562 c 2
 427.001953125 591.000976562 l 1
EndSplineSet
Validated: 1
EndChar

StartChar: numbersign
Encoding: 35 35 36
Width: 500
VWidth: 940
GlyphClass: 2
Flags: W
HStem: 140.008 131.987<19.9812 72.2734 223.429 240.273 391.028 454.588> 347.005 131.99<50.9792 100.066 250.725 267.757 418.987 481.586> 638.317 19.001G<193.684 201.786 361.685 369.787>
LayerCount: 2
Fore
SplineSet
223.428710938 271.995117188 m 1
 258.53515625 271.995117188 l 1
 262.139648438 296.920898438 264.7109375 321.576171875 267.756835938 347.004882812 c 1
 233.022460938 347.004882812 l 1
 229.852539062 321.973632812 226.668945312 296.956054688 223.428710938 271.995117188 c 1
368.443359375 658.317382812 m 0
 371.129882812 658.317382812 373.8359375 658.134765625 376.5546875 657.74609375 c 0
 392.592773438 655.455078125 406.685546875 646.474609375 416.779296875 635.00390625 c 0
 428.430664062 621.763671875 433.0703125 604.790039062 433.0703125 587.416015625 c 0
 433.0703125 584.965820312 433.041992188 582.436523438 432.708007812 580.233398438 c 0
 427.5546875 546.217773438 423.7890625 512.958984375 418.987304688 478.997070312 c 1
 438.997070312 478.997070312 l 2
 441.547851562 478.997070312 444.098632812 478.609375 446.553710938 477.833984375 c 0
 462.666992188 472.74609375 477.295898438 463.94140625 487.014648438 450.983398438 c 0
 495.18359375 440.090820312 500.516601562 426.880859375 500.516601562 412.739257812 c 0
 500.516601562 394.651367188 491.98828125 379.001953125 480.782226562 367.795898438 c 0
 469.997070312 357.010742188 456.1484375 350.698242188 441.176757812 347.545898438 c 0
 439.470703125 347.186523438 437.734375 347.006835938 435.998046875 347.006835938 c 2
 400.54296875 347.006835938 l 1
 396.954101562 321.724609375 394.529296875 297.171875 391.028320312 271.997070312 c 1
 411.999023438 271.997070312 l 2
 414.549804688 271.997070312 417.100585938 271.609375 419.555664062 270.833984375 c 0
 435.668945312 265.74609375 450.297851562 256.94140625 460.016601562 243.983398438 c 0
 468.185546875 233.090820312 473.518554688 219.880859375 473.518554688 205.739257812 c 0
 473.518554688 187.651367188 464.990234375 172.001953125 453.784179688 160.795898438 c 0
 442.999023438 150.010742188 429.150390625 143.698242188 414.178710938 140.545898438 c 0
 412.47265625 140.186523438 410.736328125 140.006835938 409 140.006835938 c 2
 372.904296875 140.006835938 l 1
 355.77734375 10.697265625 l 2
 355.516601562 8.73046875 355.022460938 6.7890625 354.294921875 4.91796875 c 0
 348.181640625 -10.7998046875 338.086914062 -24.689453125 324.09375 -33.2998046875 c 0
 313.733398438 -39.6748046875 301.766601562 -43.7177734375 289.293945312 -43.7177734375 c 0
 270.294921875 -43.7177734375 256.232421875 -35.5859375 244.822265625 -24.17578125 c 0
 232.5390625 -11.892578125 226.837890625 4.4091796875 225.129882812 21.498046875 c 0
 225.046875 22.3310546875 225.004882812 23.1669921875 225.004882812 24.0029296875 c 0
 225.004882812 25.1923828125 225.088867188 26.3818359375 225.2578125 27.5615234375 c 0
 230.556640625 64.6533203125 235.17578125 102.606445312 240.2734375 140.0078125 c 1
 205.877929688 140.0078125 l 1
 200 96.7373046875 193.504882812 54.2314453125 187.780273438 10.720703125 c 0
 187.520507812 8.7470703125 187.025390625 6.7978515625 186.294921875 4.919921875 c 0
 180.181640625 -10.7978515625 170.086914062 -24.6875 156.09375 -33.2978515625 c 0
 145.733398438 -39.6728515625 133.766601562 -43.7158203125 121.293945312 -43.7158203125 c 0
 102.294921875 -43.7158203125 88.232421875 -35.583984375 76.822265625 -24.173828125 c 0
 64.5390625 -11.890625 58.837890625 4.4111328125 57.1298828125 21.5 c 0
 57.046875 22.3330078125 57.0048828125 23.1689453125 57.0048828125 24.0048828125 c 0
 57.0048828125 25.1943359375 57.0888671875 26.3837890625 57.2578125 27.5634765625 c 0
 62.556640625 64.6552734375 67.17578125 102.608398438 72.2734375 140.009765625 c 1
 67.0009765625 140.009765625 l 2
 65.8642578125 140.009765625 64.7275390625 140.086914062 63.599609375 140.240234375 c 0
 44.861328125 142.794921875 27.095703125 150.448242188 15.3408203125 164.44140625 c 0
 5.54296875 176.104492188 -0.5166015625 190.731445312 -0.5166015625 206.303710938 c 0
 -0.5166015625 224.565429688 7.4638671875 240.334960938 19.361328125 252.232421875 c 0
 32.5 265.37109375 51.056640625 271.998046875 69.9990234375 271.998046875 c 2
 90.53515625 271.998046875 l 1
 94.158203125 297.053710938 96.6025390625 321.760742188 100.06640625 347.0078125 c 1
 97.9990234375 347.0078125 l 2
 96.8623046875 347.0078125 95.7255859375 347.084960938 94.59765625 347.23828125 c 0
 75.859375 349.79296875 58.09375 357.446289062 46.3388671875 371.439453125 c 0
 36.541015625 383.102539062 30.4814453125 397.729492188 30.4814453125 413.301757812 c 0
 30.4814453125 431.563476562 38.4619140625 447.333007812 50.359375 459.23046875 c 0
 63.498046875 472.369140625 82.0546875 478.99609375 100.997070312 478.99609375 c 2
 118.276367188 478.99609375 l 1
 123.76953125 518.49609375 128.60546875 557.009765625 134.254882812 596.559570312 c 0
 134.3515625 597.233398438 134.475585938 597.904296875 134.626953125 598.5703125 c 0
 138.875 617.262695312 148.206054688 634.461914062 163.127929688 644.961914062 c 0
 173.963867188 652.586914062 186.924804688 657.318359375 200.442382812 657.318359375 c 0
 203.12890625 657.318359375 205.837890625 657.131835938 208.556640625 656.743164062 c 0
 224.594726562 654.452148438 238.6875 645.471679688 248.78125 634.000976562 c 0
 260.432617188 620.760742188 265.072265625 603.787109375 265.072265625 586.413085938 c 0
 265.072265625 584.08203125 265.047851562 581.642578125 264.751953125 579.522460938 c 2
 250.724609375 478.995117188 l 1
 285.318359375 478.995117188 l 1
 302.255859375 597.55859375 l 2
 302.352539062 598.232421875 302.4765625 598.903320312 302.627929688 599.569335938 c 0
 306.875976562 618.26171875 316.20703125 635.4609375 331.12890625 645.9609375 c 0
 341.96484375 653.5859375 354.92578125 658.317382812 368.443359375 658.317382812 c 0
EndSplineSet
Validated: 1
EndChar

StartChar: dollar
Encoding: 36 36 37
Width: 500
VWidth: 940
GlyphClass: 2
Flags: W
VStem: 174.197 130.797<-83.3008 13.2573 149.623 246.098 427.439 512 636.421 746.209> 364.667 122.328<154.309 216.538>
LayerCount: 2
Fore
SplineSet
176.28125 427.439453125 m 1
 176.817382812 515.560546875 l 1
 172.809570312 514.412109375 166.650390625 511.430664062 156.854492188 505.552734375 c 0
 148.1015625 500.30078125 141.6875 495.33203125 137.676757812 491.321289062 c 2
 137.676757812 491.321289062 135.34375 488.541015625 134.135742188 478.928710938 c 0
 136.000976562 463.583007812 143.76171875 451.903320312 154.87890625 443.211914062 c 0
 161.670898438 437.90234375 168.8046875 432.643554688 176.28125 427.439453125 c 1
304.994140625 246.09765625 m 1
 304.994140625 133.432617188 l 1
 318.126953125 138.407226562 330.444335938 145.336914062 345.280273438 155.528320312 c 0
 346.231445312 156.4296875 347.14453125 157.318359375 348.018554688 158.192382812 c 0
 360.875 171.048828125 364.2890625 180.30078125 364.564453125 184.250976562 c 0
 364.631835938 185.216796875 364.666992188 186.176757812 364.666992188 187.133789062 c 0
 364.666992188 194.318359375 362.696289062 201.321289062 357.697265625 209.33203125 c 0
 342.95703125 227.186523438 328.107421875 236.451171875 304.994140625 246.09765625 c 1
304.494140625 499.498046875 m 0
 304.494140625 468.330078125 305.49609375 433.491210938 305.49609375 402.249023438 c 0
 305.49609375 392.432617188 305.432617188 382.76953125 305.305664062 373.258789062 c 1
 321.067382812 367.435546875 336.920898438 361.703125 352.866210938 356.060546875 c 0
 400.87890625 339.071289062 441.193359375 310.450195312 466.620117188 270.384765625 c 0
 480.45703125 248.581054688 486.995117188 222.844726562 486.995117188 194.999023438 c 0
 486.995117188 163.750976562 480.8203125 135.512695312 467.236328125 111.637695312 c 0
 442.765625 68.6298828125 402.365234375 38.1875 352.541992188 21.3251953125 c 0
 336.655273438 15.9482421875 320.8046875 11.4091796875 304.99609375 7.7197265625 c 1
 304.99609375 -6.5009765625 l 2
 304.99609375 -17.6884765625 305.315429688 -29.0556640625 305.95703125 -40.603515625 c 0
 305.983398438 -41.0693359375 305.99609375 -41.53515625 305.99609375 -42.0009765625 c 0
 305.99609375 -44.150390625 305.720703125 -46.2998046875 305.169921875 -48.3916015625 c 0
 300.890625 -64.6552734375 292.658203125 -79.712890625 279.888671875 -89.7060546875 c 0
 268.608398438 -98.5341796875 254.7265625 -103.99609375 240 -103.99609375 c 0
 222.915039062 -103.99609375 205.013671875 -97.75390625 194.051757812 -84.212890625 c 0
 178.377929688 -64.8525390625 174.004882812 -39.28125 174.004882812 -6.0009765625 c 0
 174.004882812 0.6640625 173.918945312 7.140625 173.748046875 13.4267578125 c 1
 141.71875 22.6611328125 113.7265625 33.58984375 90.220703125 49.9736328125 c 0
 66.03515625 66.8310546875 48.16015625 86.384765625 29.580078125 109.252929688 c 0
 28.2724609375 110.862304688 27.1943359375 112.59765625 26.3466796875 114.4140625 c 0
 21.3251953125 125.172851562 17.8212890625 133.635742188 15.75390625 141.90625 c 0
 14.6162109375 146.458984375 14.138671875 150.926757812 14.138671875 155.349609375 c 0
 14.138671875 161.836914062 15.1669921875 168.227539062 16.6484375 174.649414062 c 0
 19.50390625 187.025390625 26.0888671875 199.868164062 36.7333984375 207.674804688 c 0
 46.58203125 214.897460938 57.8681640625 217.153320312 68.7021484375 217.153320312 c 0
 73.3271484375 217.153320312 77.2822265625 216.924804688 80.931640625 215.708984375 c 0
 89.068359375 212.997070312 95.642578125 208.869140625 103.321289062 203.494140625 c 0
 111.08203125 198.061523438 118.21875 192.135742188 124.678710938 185.67578125 c 0
 127.959960938 182.39453125 137.541992188 174.520507812 151.6875 164.232421875 c 0
 160.825195312 157.5859375 168.575195312 152.70703125 174.197265625 149.623046875 c 1
 174.922851562 291.17578125 l 1
 165.374023438 295.659179688 154.55078125 300.708984375 142.458984375 306.323242188 c 0
 99.7578125 326.149414062 61.9765625 355.668945312 36.3046875 393.46484375 c 0
 21.46875 415.306640625 14.00390625 440.80859375 14.00390625 467.997070312 c 0
 14.00390625 518.708984375 37.5048828125 558.374023438 65.0712890625 585.940429688 c 0
 92.3642578125 613.233398438 130 632.799804688 175.00390625 642.123046875 c 1
 175.00390625 654.998046875 l 2
 175.00390625 679.381835938 177.481445312 701.413085938 182.899414062 721.147460938 c 0
 185.643554688 731.142578125 190.485351562 740.69921875 198.216796875 748.430664062 c 0
 210.130859375 760.344726562 226.237304688 764.994140625 242 764.994140625 c 0
 257.59765625 764.994140625 273.622070312 760.491210938 285.490234375 748.623046875 c 0
 292.610351562 741.502929688 297.237304688 732.780273438 299.952148438 723.666015625 c 0
 305.50390625 705.02734375 307.995117188 684.15234375 307.995117188 660.999023438 c 0
 307.995117188 653.397460938 307.825195312 646.086914062 307.479492188 639.05859375 c 1
 331.536132812 632.823242188 353.430664062 625.27734375 375.713867188 615.321289062 c 0
 398.295898438 605.231445312 438.51171875 577.547851562 461.491210938 554.568359375 c 0
 469.379882812 546.6796875 475.794921875 538.90234375 480.466796875 530.151367188 c 0
 484.587890625 522.430664062 487.202148438 514.084960938 487.202148438 503.301757812 c 0
 487.202148438 485.358398438 476.171875 470.94140625 464.145507812 462.233398438 c 0
 451.916015625 453.377929688 437.294921875 448.7109375 422.2734375 448.7109375 c 0
 416.365234375 448.7109375 411.19140625 449.217773438 406.83203125 451.155273438 c 0
 392.420898438 457.559570312 378.001953125 466.670898438 363.13671875 478.2734375 c 0
 346.313476562 491.403320312 326.540039062 503.686523438 304.530273438 512 c 1
 304.505859375 507.870117188 304.494140625 503.703125 304.494140625 499.498046875 c 0
EndSplineSet
Validated: 1
EndChar

StartChar: percent
Encoding: 37 37 38
Width: 500
VWidth: 940
GlyphClass: 2
Flags: W
HStem: -7.99414 121.996<323.972 373.707> 166.01 125.987<323.642 373.414> 365.006 121.994<133.947 183.437> 539.008 125.987<133.842 183.413> 627.998 20G<418.976 436.369>
VStem: 7.00488 125.993<487.366 537.87> 374.008 124.989<114.42 165.103>
LayerCount: 2
Fore
SplineSet
379.25390625 629.419921875 m 1xf6
 393.244140625 640.787109375 409.94921875 647.998046875 428.001953125 647.998046875 c 0xee
 444.735351562 647.998046875 460.79296875 641.567382812 472.6796875 629.680664062 c 0
 484.879882812 617.48046875 490.998046875 600.974609375 490.998046875 584.002929688 c 0
 490.998046875 573.384765625 488.333007812 563.412109375 484.331054688 553.005859375 c 0
 483.60546875 551.118164062 482.642578125 549.301757812 481.442382812 547.6015625 c 0
 395.805664062 426.282226562 409.35546875 440.805664062 327.03515625 322.233398438 c 2
 299.986328125 283.380859375 l 1
 315.643554688 289.043945312 332.04296875 291.997070312 349.002929688 291.997070312 c 0
 389.147460938 291.997070312 426.938476562 274.038085938 456.240234375 244.736328125 c 0
 484.124023438 216.852539062 498.997070312 181.901367188 498.997070312 143.001953125 c 0
 498.997070312 101.462890625 481.935546875 64.068359375 452.200195312 35.857421875 c 0
 422.486328125 7.6669921875 387.357421875 -7.994140625 349.000976562 -7.994140625 c 0
 308.564453125 -7.994140625 269.938476562 10.55078125 240.223632812 40.265625 c 0
 213.978515625 66.5107421875 199.317382812 99.298828125 197.2578125 135.965820312 c 1
 128.239257812 37.3125 l 2
 120.84375 27.142578125 110.709960938 18.3251953125 98.4248046875 13.64453125 c 0
 89.5029296875 10.2451171875 80.52734375 8.005859375 71.0009765625 8.005859375 c 0
 53.791015625 8.005859375 37.212890625 15.3779296875 25.580078125 27.0107421875 c 0
 13.80859375 38.7822265625 8.005859375 54.748046875 8.005859375 71 c 0
 8.005859375 85.8505859375 12.8388671875 99.99609375 20.5546875 112.856445312 c 0
 20.869140625 113.380859375 21.205078125 113.896484375 21.5615234375 114.401367188 c 0
 95.18359375 218.700195312 131.296875 272.500976562 200.1328125 371.276367188 c 1
 186.9375 367.1484375 173.190429688 365.005859375 159.000976562 365.005859375 c 0
 118.466796875 365.005859375 79.8212890625 383.661132812 50.078125 413.404296875 c 0
 21.9716796875 441.510742188 7.0048828125 476.75390625 7.0048828125 516.000976562 c 0
 7.0048828125 554.354492188 21.7744140625 588.854492188 49.3486328125 616.428710938 c 0
 78.9990234375 646.079101562 118.209960938 664.995117188 159.000976562 664.995117188 c 0
 199.145507812 664.995117188 236.936523438 647.036132812 266.23828125 617.734375 c 0
 291.556640625 592.416015625 306.1484375 561.270507812 308.619140625 526.633789062 c 1
 328.985351562 555.794921875 l 2
 356.94921875 595.850585938 373.478515625 620.896484375 373.920898438 621.751953125 c 2
 379.25390625 629.419921875 l 1xf6
159.001953125 539.0078125 m 0xf6
 153.219726562 539.0078125 146.944335938 536.63671875 140.2578125 529.950195312 c 0
 134.80859375 524.500976562 132.998046875 519.897460938 132.998046875 513.004882812 c 0
 132.998046875 505.754882812 135.375976562 500.611328125 141.091796875 495.252929688 c 0
 148.09765625 488.685546875 153.373046875 487 159.002929688 487 c 0
 163.635742188 487 169.909179688 489.220703125 176.747070312 496.05859375 c 0
 182.196289062 501.5078125 184.006835938 506.111328125 184.006835938 513.00390625 c 0
 184.006835938 520.25390625 181.62890625 525.397460938 175.913085938 530.755859375 c 0
 168.658203125 537.556640625 163.572265625 539.0078125 159.001953125 539.0078125 c 0xf6
349.002929688 166.009765625 m 0
 343.220703125 166.009765625 336.9453125 163.638671875 330.258789062 156.952148438 c 0
 324.809570312 151.502929688 322.999023438 146.899414062 322.999023438 140.006835938 c 0
 322.999023438 132.756835938 325.376953125 127.61328125 331.092773438 122.254882812 c 0
 338.098632812 115.6875 343.374023438 114.001953125 349.00390625 114.001953125 c 0
 353.63671875 114.001953125 359.91015625 116.22265625 366.748046875 123.060546875 c 0
 372.197265625 128.509765625 374.0078125 133.11328125 374.0078125 140.005859375 c 0
 374.0078125 147.255859375 371.629882812 152.399414062 365.9140625 157.7578125 c 0
 358.659179688 164.55859375 353.573242188 166.009765625 349.002929688 166.009765625 c 0
EndSplineSet
Validated: 1
EndChar

StartChar: ampersand
Encoding: 38 38 39
Width: 500
VWidth: 940
GlyphClass: 2
Flags: W
HStem: 634.999 20G<190.075 197.939>
VStem: 4.00977 126.987<132.947 238.652> 57.0098 114.564<426.533 530.885> 213.293 126.978<427.042 524.445> 373.208 125.041<304.086 374.608>
LayerCount: 2
Fore
SplineSet
213.29296875 486.752929688 m 0xb8
 213.29296875 489.90234375 213.213867188 493.1875 213.044921875 496.608398438 c 0
 211.95703125 514.2265625 207.765625 521.73046875 204.255859375 524.58203125 c 0
 198.92578125 528.912109375 194.81640625 531.1953125 193.19921875 531.896484375 c 0
 191.802734375 531.598632812 188.680664062 530.522460938 183.831054688 526.75 c 0
 177.208984375 521.599609375 171.57421875 511.374023438 171.57421875 498.895507812 c 0
 171.57421875 495.249023438 172.095703125 491.478515625 173.170898438 487.392578125 c 0
 173.170898438 487.29296875 173.22265625 487.193359375 173.247070312 487.09375 c 0
 178.518554688 466.004882812 183.111328125 448.970703125 186.938476562 436.213867188 c 0
 187.973632812 432.762695312 189.649414062 429.260742188 192.2734375 425.634765625 c 1
 198.04296875 431.055664062 202.694335938 437.369140625 205.870117188 444.134765625 c 0
 210.337890625 453.653320312 213.29296875 467.747070312 213.29296875 486.752929688 c 0xb8
130.997070312 189.000976562 m 0xd8
 130.997070312 177.150390625 133.33984375 167.237304688 137.86328125 158.188476562 c 0
 143.573242188 146.767578125 149.965820312 136.38671875 157.018554688 126.983398438 c 0
 162.16796875 120.1171875 168.440429688 115.609375 178.434570312 112.040039062 c 0
 182.662109375 110.530273438 186.116210938 109.58203125 188.23828125 109.071289062 c 0
 190.447265625 109.688476562 192.724609375 109.997070312 195.001953125 109.997070312 c 0
 196.580078125 109.997070312 200.745117188 110.705078125 207.493164062 115.04296875 c 0
 208.4375 115.650390625 209.4140625 116.1875 210.416015625 116.655273438 c 0
 223.009765625 122.533203125 231.787109375 134.944335938 241.3515625 144.690429688 c 1
 225.93359375 162.873046875 213.798828125 178.903320312 204.813476562 193.223632812 c 0
 197.291992188 205.209960938 182.85546875 224.368164062 162.01171875 249.6328125 c 1
 158.504882812 245.268554688 154.291015625 240.681640625 149.075195312 235.227539062 c 0
 143.825195312 229.73828125 139.391601562 223.182617188 135.784179688 215.196289062 c 0
 132.86328125 208.729492188 130.997070312 200.233398438 130.997070312 189.000976562 c 0xd8
436.000976562 389.997070312 m 0
 468.13671875 389.997070312 498.249023438 363.489257812 498.249023438 330.71484375 c 0
 498.249023438 317.947265625 494.470703125 309.57421875 489.595703125 299.922851562 c 0
 484.703125 290.237304688 478.020507812 279.68359375 469.411132812 267.551757812 c 0
 452.262695312 243.388671875 451.705078125 241.8046875 440.971679688 225.90234375 c 0
 431.546875 211.939453125 401.578125 169.55859375 393.13671875 153.032226562 c 1
 398.602539062 145.948242188 403.353515625 140.447265625 407.122070312 136.678710938 c 0
 409.49609375 134.3046875 411.465820312 132.63671875 412.73828125 131.70703125 c 0
 422.66015625 124.45703125 436.234375 112.975585938 454.760742188 96.4541015625 c 0
 468.921875 85.8974609375 482.560546875 69.0029296875 482.560546875 48.0419921875 c 0
 482.560546875 45.5146484375 482.361328125 42.9521484375 481.943359375 40.3642578125 c 0
 481.240234375 24.5166015625 474.24609375 9.888671875 463.18359375 -1.173828125 c 0
 449.758789062 -14.5986328125 431.518554688 -19.9912109375 413.005859375 -19.9912109375 c 0
 406.040039062 -19.9912109375 396.446289062 -18.7578125 390.765625 -15.20703125 c 0
 371.807617188 -3.3583984375 354.990234375 12.4638671875 341.233398438 30.201171875 c 0
 335.754882812 37.2646484375 330.342773438 44.1669921875 324.997070312 50.908203125 c 1
 309.078125 31.2119140625 289.134765625 12.2490234375 267.774414062 0.2158203125 c 0
 243.301757812 -13.5712890625 220.256835938 -22.04296875 197.592773438 -22.04296875 c 0
 168.025390625 -22.04296875 142.727539062 -17.58984375 121.649414062 -4.943359375 c 0
 104.275390625 5.48046875 85.5888671875 21.4072265625 68.978515625 38.681640625 c 0
 50.4091796875 57.9931640625 35.0771484375 80.21875 23.0126953125 105.079101562 c 0
 10.28515625 131.305664062 4.009765625 160.280273438 4.009765625 191.00390625 c 0xd8
 4.009765625 240.586914062 19.8984375 278.534179688 41.98828125 307.986328125 c 0
 57.5380859375 328.71875 70.611328125 343.497070312 89.8095703125 358.32421875 c 1
 70.6708984375 395.763671875 57.009765625 453.548828125 57.009765625 506.004882812 c 0xb8
 57.009765625 529.647460938 62.2578125 551.885742188 73.234375 571.3046875 c 0
 83.421875 589.328125 96.9638671875 605.212890625 112.848632812 617.998046875 c 0
 127.697265625 629.94921875 141.803710938 639.157226562 155.897460938 645.375 c 0
 169.482421875 651.368164062 183.145507812 654.999023438 197.004882812 654.999023438 c 0
 198.874023438 654.999023438 200.743164062 654.791015625 202.57421875 654.375 c 0
 218.263671875 650.809570312 232.762695312 646.481445312 246.087890625 641.298828125 c 0
 281.469726562 627.538085938 308.974609375 598.37109375 327.01953125 564.858398438 c 0
 335.831054688 548.493164062 340.270507812 530.57421875 340.270507812 512.185546875 c 0
 340.270507812 506.481445312 339.84375 500.732421875 338.987304688 494.969726562 c 0
 338.529296875 452.012695312 324.352539062 415.111328125 305.965820312 386.875 c 0
 290.91015625 363.75390625 271.96875 342.734375 249.546875 326.780273438 c 1
 289.768554688 280.525390625 l 2
 300.229492188 268.825195312 308.067382812 259.068359375 313.4453125 249.036132812 c 1
 324.270507812 265.362304688 334.71484375 280.421875 344.794921875 294.227539062 c 0
 358.98046875 313.65625 368.267578125 331.309570312 373.208007812 346.680664062 c 0
 373.73046875 348.307617188 374.423828125 349.890625 375.288085938 351.40234375 c 0
 382.112304688 363.345703125 391.1484375 373.885742188 403.100585938 380.71484375 c 0
 413.00390625 386.374023438 424.193359375 389.997070312 436.000976562 389.997070312 c 0
EndSplineSet
Validated: 1
EndChar

StartChar: quotesingle
Encoding: 39 39 40
Width: 1024
VWidth: 940
GlyphClass: 2
Flags: W
VStem: 389 189<427.905 570.199>
LayerCount: 2
Fore
SplineSet
578 464 m 1
 575.001953125 421.001953125 l 1
 575.001953125 418.001953125 l 2
 575.001953125 412.001953125 572.001953125 397.334960938 566.001953125 374.001953125 c 1
 565.001953125 374.001953125 l 1
 555.001953125 338.001953125 537.668945312 311.668945312 513.001953125 295.001953125 c 0
 508.334960938 291.668945312 503.001953125 288.668945312 497.001953125 286.001953125 c 2
 495.001953125 285.001953125 l 2
 482.334960938 278.334960938 469.66796875 275.001953125 457.000976562 275.001953125 c 2
 445.000976562 276.001953125 l 2
 418.333984375 280.668945312 399.666992188 300.3359375 389 335.002929688 c 0
 381.666992188 358.3359375 378 388.668945312 378 426.001953125 c 1
 379 427.001953125 l 1
 379.666992188 446.334960938 381.666992188 461.334960938 385 472.001953125 c 0
 387.666992188 481.334960938 389 487.334960938 389 490.001953125 c 2
 389 491.001953125 l 1
 389 495.001953125 l 2
 389 520.334960938 394 541.66796875 404 559.000976562 c 0
 414 576.333984375 422.5 587.666992188 429.5 593 c 0
 436.5 598.333007812 445.666992188 604.666015625 457 611.999023438 c 0
 466.333007812 618.666015625 477.333007812 621.999023438 490 621.999023438 c 2
 497 621.999023438 l 2
 525 618.666015625 546 599.333007812 560 564 c 0
 563.333007812 555.333007812 566.833007812 544.5 570.5 531.5 c 0
 574.166992188 518.5 576.666992188 496.666992188 578 466 c 2
 578 464 l 1
EndSplineSet
Validated: 1
EndChar

StartChar: parenleft
Encoding: 40 40 41
Width: 500
VWidth: 940
GlyphClass: 2
Flags: W
HStem: 640.103 20G<309.871 326.017>
VStem: 124.002 128.425<158.799 377.418>
LayerCount: 2
Fore
SplineSet
390.995117188 -33 m 0
 390.995117188 -49.1474609375 385.041015625 -65.3935546875 373.77734375 -76.6572265625 c 0
 364.353515625 -86.0810546875 352.33984375 -91.8388671875 339.591796875 -94.4765625 c 0
 335.403320312 -95.3427734375 331.219726562 -95.74609375 327.063476562 -95.74609375 c 0
 314.51953125 -95.74609375 302.225585938 -92.0712890625 290.810546875 -86.3642578125 c 0
 288.782226562 -85.349609375 286.86328125 -84.0419921875 285.1171875 -82.44140625 c 0
 277.655273438 -75.6015625 269.875976562 -69.06640625 261.7734375 -62.833984375 c 0
 251.735351562 -55.1123046875 242.780273438 -45.947265625 235.430664062 -35.642578125 c 0
 204.126953125 -0.9873046875 178.470703125 46.1552734375 156.997070312 105.462890625 c 0
 135.41015625 165.083007812 124.001953125 215.838867188 124.001953125 259 c 0
 124.001953125 298.495117188 125.124023438 324.78125 129.115234375 342.517578125 c 0
 132.360351562 356.94140625 139.856445312 385.168945312 151.912109375 428.703125 c 0
 152.048828125 429.198242188 152.201171875 429.690429688 152.369140625 430.177734375 c 0
 172.934570312 489.8125 200.735351562 539.701171875 233.313476562 587.549804688 c 2
 266.313476562 636.049804688 l 2
 267.692382812 638.076171875 269.47265625 639.999023438 271.399414062 641.540039062 c 0
 285.255859375 652.625 300.173828125 660.102539062 319.567382812 660.102539062 c 0
 332.465820312 660.102539062 345.3203125 656.498046875 356.012695312 648.860351562 c 0
 367.678710938 640.52734375 376.18359375 627.342773438 380.090820312 613.1796875 c 0
 381.693359375 607.372070312 382.427734375 601.478515625 382.427734375 595.587890625 c 0
 382.427734375 585.192382812 380.139648438 574.806640625 376.293945312 564.91796875 c 0
 375.705078125 563.403320312 374.962890625 561.934570312 374.067382812 560.536132812 c 0
 363.225585938 543.595703125 352.853515625 528.118164062 342.924804688 514.081054688 c 0
 324.568359375 488.129882812 309.924804688 462.943359375 295.361328125 433.814453125 c 0
 288.7734375 420.63671875 282.607421875 405.326171875 276.981445312 387.90625 c 0
 261.953125 331.64453125 254.037109375 292.438476562 252.94921875 274.478515625 c 0
 252.598632812 268.685546875 252.426757812 263.116210938 252.426757812 257.771484375 c 0
 252.426757812 244.342773438 253.508789062 232.330078125 255.54296875 221.75 c 0
 258.41796875 206.797851562 265.971679688 181.002929688 278.096679688 146.266601562 c 0
 289.180664062 114.512695312 308.545898438 81.8076171875 336.883789062 48.388671875 c 0
 346.9765625 37.080078125 360.440429688 26.61328125 371.59375 16.7001953125 c 0
 373.099609375 15.361328125 374.4921875 13.783203125 375.616210938 12.1474609375 c 0
 384.939453125 -1.4150390625 390.995117188 -16.6591796875 390.995117188 -33 c 0
EndSplineSet
Validated: 1
EndChar

StartChar: parenright
Encoding: 41 41 42
Width: 500
VWidth: 940
GlyphClass: 2
Flags: W
HStem: 637.1 20G<182.981 199.139>
VStem: 252.578 132<163.964 394.168>
LayerCount: 2
Fore
SplineSet
252.578125 276.162109375 m 0
 252.578125 325.29296875 244.547851562 365.01953125 234.885742188 383.326171875 c 0
 234.247070312 384.536132812 233.71484375 385.787109375 233.288085938 387.06640625 c 0
 222.005859375 420.9140625 207.59765625 444.229492188 191.415039062 471.875 c 0
 174.461914062 500.836914062 154.159179688 529.291992188 135.323242188 556.9375 c 0
 134.25 558.512695312 133.376953125 560.18359375 132.704101562 561.915039062 c 0
 128.858398438 571.803710938 126.5703125 582.189453125 126.5703125 592.584960938 c 0
 126.5703125 598.475585938 127.3046875 604.369140625 128.907226562 610.176757812 c 0
 132.815429688 624.341796875 141.31640625 637.522460938 152.985351562 645.857421875 c 0
 163.677734375 653.495117188 176.532226562 657.099609375 189.430664062 657.099609375 c 0
 208.84765625 657.099609375 223.73046875 649.631835938 237.59765625 638.538085938 c 0
 239.5234375 636.997070312 241.303710938 635.07421875 242.682617188 633.047851562 c 0
 264.315429688 601.254882812 287.075195312 569.06640625 306.6015625 535.591796875 c 0
 326.319335938 501.7890625 342.861328125 467.09375 356.626953125 427.17578125 c 0
 356.734375 426.864257812 356.8359375 426.55078125 356.930664062 426.236328125 c 0
 374.904296875 366.5390625 384.578125 321.380859375 384.578125 287.42578125 c 0
 384.578125 285.45703125 384.545898438 283.525390625 384.48046875 281.630859375 c 0
 383.456054688 251.930664062 381.43359375 227.545898438 378.153320312 207.86328125 c 0
 374.626953125 186.704101562 365.32421875 155.883789062 350.099609375 112.239257812 c 0
 334.153320312 66.5263671875 308.265625 17.63671875 272.733398438 -34.9775390625 c 0
 265.283203125 -46.0087890625 255.750976562 -55.7353515625 245.224609375 -63.83203125 c 0
 237.122070312 -70.0654296875 229.342773438 -76.6005859375 221.880859375 -83.4404296875 c 0
 220.134765625 -85.041015625 218.215820312 -86.3486328125 216.1875 -87.36328125 c 0
 204.772460938 -93.0703125 192.478515625 -96.7451171875 179.934570312 -96.7451171875 c 0
 175.778320312 -96.7451171875 171.594726562 -96.341796875 167.40625 -95.4755859375 c 0
 153.501953125 -92.5986328125 140.294921875 -85.7060546875 130.856445312 -75.158203125 c 0
 120.602539062 -63.69921875 116.004882812 -48.8095703125 116.004882812 -34.001953125 c 0
 116.004882812 -17.6611328125 122.060546875 -2.4169921875 131.383789062 11.1455078125 c 0
 132.508789062 12.78125 133.900390625 14.359375 135.40625 15.6982421875 c 0
 146.151367188 25.2490234375 159.100585938 35.3349609375 168.98046875 46.1298828125 c 0
 188.556640625 77.2783203125 207.866210938 113.407226562 226.796875 154.477539062 c 0
 243.947265625 191.685546875 252.578125 231.958984375 252.578125 276.162109375 c 0
EndSplineSet
Validated: 1
EndChar

StartChar: asterisk
Encoding: 42 42 43
Width: 500
VWidth: 940
GlyphClass: 2
Flags: W
HStem: 278.479 155.519<349.642 410.509>
VStem: 192.557 129.441<428.779 539.026>
LayerCount: 2
Fore
SplineSet
42.0048828125 410 m 0
 42.0048828125 426.944335938 48.5693359375 443.44140625 60.4287109375 455.30078125 c 0
 72.3671875 467.239257812 88.5546875 472.999023438 105.001953125 472.999023438 c 0
 105.700195312 472.999023438 106.3984375 472.969726562 107.094726562 472.912109375 c 0
 119.896484375 471.844726562 131.913085938 467.233398438 143.2421875 460.520507812 c 0
 158.584960938 451.428710938 173.533203125 439.782226562 186.904296875 427.946289062 c 1
 189.435546875 445.689453125 191.489257812 464.498046875 192.556640625 481.575195312 c 0
 194.025390625 505.073242188 201.978515625 527.734375 216.325195312 542.081054688 c 0
 227.436523438 553.192382812 242.5546875 558.998046875 258.001953125 558.998046875 c 0
 275.268554688 558.998046875 291.439453125 551.432617188 303.20703125 539.665039062 c 0
 316.7578125 526.114257812 321.998046875 507.6875 321.998046875 489.002929688 c 0
 321.998046875 459.646484375 319.065429688 431.139648438 315.390625 404.5 c 1
 330.62890625 411.395507812 349.921875 420.541015625 366.612304688 426.872070312 c 0
 378 431.19140625 388.766601562 433.997070312 400.001953125 433.997070312 c 0
 417.920898438 433.997070312 435.47265625 426.942382812 447.443359375 413.8828125 c 0
 458.3828125 401.948242188 464.998046875 386.504882812 464.998046875 370.001953125 c 0
 464.998046875 352.278320312 456.1328125 336.829101562 444.323242188 325.474609375 c 0
 424.137695312 306.067382812 393.979492188 288.891601562 364.974609375 278.478515625 c 0
 359.6171875 276.555664062 354.427734375 274.579101562 349.40625 272.551757812 c 1
 369.458984375 241.416992188 l 2
 379.392578125 228.345703125 384.99609375 212.549804688 384.99609375 196.002929688 c 0
 384.99609375 179.001953125 378.650390625 162.243164062 366.256835938 150.412109375 c 0
 354.296875 138.995117188 338.411132812 133.0078125 322.000976562 133.0078125 c 0
 314.94140625 133.0078125 309.711914062 134.744140625 304.891601562 136.671875 c 0
 283.78515625 145.114257812 265.922851562 160.583007812 253.788085938 178.495117188 c 0
 247.1953125 188.227539062 239.56640625 198.568359375 230.905273438 209.474609375 c 0
 229.522460938 211.215820312 228.184570312 212.95703125 226.893554688 214.701171875 c 1
 162.130859375 159.901367188 l 2
 161.08984375 159.020507812 159.994140625 158.23828125 158.85546875 157.5546875 c 0
 145.995117188 149.838867188 131.849609375 145.005859375 116.999023438 145.005859375 c 0
 99.6396484375 145.005859375 82.59375 151.985351562 71.0244140625 164.657226562 c 0
 60.2412109375 176.467773438 54.00390625 191.8203125 54.00390625 208.000976562 c 0
 54.00390625 233.103515625 67.4091796875 252.440429688 82.0908203125 264.291015625 c 2
 127.465820312 302.828125 l 1
 113.256835938 313.569335938 100.243164062 325.4765625 87.2265625 337.926757812 c 0
 79.9931640625 344.844726562 73.353515625 350.69921875 67.40234375 355.459960938 c 0
 66.48828125 356.190429688 65.5986328125 357.010742188 64.7861328125 357.874023438 c 0
 51.1689453125 372.341796875 42.0048828125 390.088867188 42.0048828125 410 c 0
EndSplineSet
Validated: 1
EndChar

StartChar: plus
Encoding: 43 43 44
Width: 500
VWidth: 940
GlyphClass: 2
Flags: W
HStem: 258.005 131.992<32.4726 180.006 311.997 466.201>
VStem: 180.006 131.99<105.991 257.804 389.997 539.233>
LayerCount: 2
Fore
SplineSet
12.0048828125 323 m 0
 12.0048828125 340.655273438 19.9794921875 357.375 31.845703125 369.241210938 c 0
 45.1357421875 382.53125 63.75390625 388.837890625 82.7958984375 388.994140625 c 2
 180.006835938 389.791015625 l 1
 180.006835938 493 l 2
 180.006835938 495.047851562 180.256835938 497.095703125 180.755859375 499.09375 c 0
 184.87109375 515.557617188 192.165039062 530.572265625 204.196289062 541.510742188 c 0
 215.5625 551.84375 230.352539062 557.995117188 246.001953125 557.995117188 c 0
 263.444335938 557.995117188 280.53515625 549.701171875 291.515625 538.720703125 c 0
 301.4921875 528.744140625 307.553710938 516.137695312 311.170898438 502.392578125 c 0
 311.721679688 500.30078125 311.997070312 498.151367188 311.997070312 496.001953125 c 2
 311.997070312 389.997070312 l 1
 423.001953125 389.997070312 l 2
 425.151367188 389.997070312 427.30078125 389.721679688 429.392578125 389.170898438 c 0
 445.65625 384.891601562 460.713867188 376.659179688 470.70703125 363.889648438 c 0
 479.53515625 352.609375 484.997070312 338.727539062 484.997070312 324.000976562 c 0
 484.997070312 307.223632812 477.614257812 291.1953125 466.391601562 279.97265625 c 0
 455.487304688 269.068359375 441.52734375 262.612304688 426.094726562 258.75390625 c 0
 424.096679688 258.254882812 422.048828125 258.004882812 420.000976562 258.004882812 c 2
 311.99609375 258.004882812 l 1
 311.99609375 157 l 2
 311.99609375 136.912109375 304.57421875 117.1171875 290.416015625 104.090820312 c 0
 278.344726562 92.984375 262.815429688 86.0048828125 246 86.0048828125 c 0
 228.658203125 86.0048828125 212.013671875 94.0205078125 200.614257812 105.419921875 c 0
 188.484375 117.549804688 182.5625 133.5390625 180.236328125 150.598632812 c 0
 180.083007812 151.7265625 180.005859375 152.86328125 180.005859375 154 c 2
 180.005859375 257.803710938 l 1
 80.0009765625 257.00390625 l 2
 78.8642578125 257.00390625 77.7275390625 257.08203125 76.599609375 257.235351562 c 0
 58.1181640625 259.755859375 40.59375 266.926757812 28.6708984375 280.553710938 c 0
 18.4609375 292.221679688 12.0048828125 307.032226562 12.0048828125 323 c 0
EndSplineSet
Validated: 1
EndChar

StartChar: comma
Encoding: 44 44 45
Width: 1024
VWidth: 940
GlyphClass: 2
Flags: W
HStem: -153.001 293.501
VStem: 23.001 319.999
LayerCount: 2
Fore
SplineSet
267 -50 m 1
 231 -84.0009765625 l 2
 229 -88.0009765625 215 -99.0009765625 189 -117.000976562 c 1
 188 -117.000976562 l 1
 152.666992188 -141.000976562 120.333984375 -153.000976562 91.0009765625 -153.000976562 c 0
 84.333984375 -153.000976562 78.333984375 -152.333984375 73.0009765625 -151.000976562 c 2
 71.0009765625 -151.000976562 l 2
 52.333984375 -148.333984375 38.333984375 -141.333984375 29.0009765625 -130.000976562 c 0
 20.333984375 -118.000976562 18.333984375 -103.000976562 23.0009765625 -85.0009765625 c 0
 25.66796875 -74.333984375 30.66796875 -62.333984375 38.0009765625 -49.0009765625 c 0
 51.333984375 -25.66796875 72.6669921875 1.33203125 102 31.9990234375 c 1
 103 31.9990234375 l 1
 118.333007812 47.9990234375 131.5 59.4990234375 142.5 66.4990234375 c 0
 153.5 73.4990234375 159 77.666015625 159 78.9990234375 c 2
 163 82.9990234375 l 2
 182.333007812 103.666015625 202.333007812 118.333007812 223 127 c 0
 243.666992188 135.666992188 258.166992188 140.166992188 266.5 140.5 c 0
 274.833007812 140.833007812 286 141 300 141 c 0
 314 141 325.333007812 136 334 126 c 0
 346 112.666992188 349 95 343 73 c 0
 341 63.6669921875 337.333007812 53.6669921875 332 43 c 0
 327.333007812 33.6669921875 321.5 22.6669921875 314.5 10 c 0
 307.5 -2.6669921875 291.666992188 -22 267 -48 c 1
 267 -50 l 1
EndSplineSet
Validated: 33
EndChar

StartChar: hyphen
Encoding: 45 45 46
Width: 930
VWidth: 940
GlyphClass: 2
Flags: W
HStem: 105 197<406.25 720.167> 115 179<194.5 541.875> 122 180<406.25 672.656> 136 125<127.206 247.158>
LayerCount: 2
Fore
SplineSet
594 303 m 0x80
 714 303 774.000976562 267 774.000976562 195 c 0
 774.000976562 165 766.66796875 145 752.000976562 135 c 1
 752.000976562 134 l 1
 733.333984375 113.333007812 713.666992188 103 693 103 c 2
 662 103 l 2
 658.666992188 103.666992188 655 104 651 104 c 0
 647 104 643.333007812 104.333007812 640 105 c 2
 609 105 l 1x80
 567 108 l 2
 450.333007812 112.666992188 380 115 356 115 c 2
 355 115 l 2x40
 345 115.666992188 335.333007812 116 326 116 c 0
 316.666992188 116 307 116.333007812 297 117 c 2
 235 122 l 1
 233 122 l 1x20
 199 126 l 2
 187.666992188 127.333007812 178.666992188 129.333007812 172 132 c 0
 165.333007812 134.666992188 161.333007812 136 160 136 c 0
 142.666992188 139.333007812 128.666992188 151.333007812 118 172 c 0
 114 178.666992188 112 188 112 200 c 0
 112 228 128 248.333007812 160 261 c 0x10
 200 277 264 288 352 294 c 2x40
 569 302 l 1
 570 302 l 2
 578 302.666992188 586 303 594 303 c 0x80
EndSplineSet
Validated: 1
EndChar

StartChar: period
Encoding: 46 46 47
Width: 1024
VWidth: 940
GlyphClass: 2
Flags: W
HStem: -153 294.001<155.189 255.578>
VStem: 130.001 193.999<10 79>
LayerCount: 2
Fore
SplineSet
311 -50 m 1
 295 -84 l 2
 295 -88 287 -99 271 -117 c 1
 270 -117 l 1
 249.333007812 -141 224 -153 194 -153 c 0
 188 -153 181.666992188 -152.333007812 175 -151 c 2
 173 -151 l 2
 153 -148.333007812 135.333007812 -141.333007812 120 -130 c 0
 94.6669921875 -111.333007812 82 -84.3330078125 82 -49 c 0
 82 -25.6669921875 87.6669921875 1.3330078125 99 32 c 1
 100 32 l 1
 106.666992188 48 113.333984375 59.5 120.000976562 66.5 c 0
 126.66796875 73.5 130.000976562 77.6669921875 130.000976562 79 c 2
 131.000976562 83 l 2
 139.000976562 103.666992188 150.66796875 118.333984375 166.000976562 127.000976562 c 0
 181.333984375 135.66796875 193.166992188 140.16796875 201.5 140.500976562 c 0
 209.833007812 140.833984375 221 141.000976562 235 141.000976562 c 0
 249 141.000976562 263.333007812 136.000976562 278 126.000976562 c 0
 304.666992188 107.333984375 319.666992188 79.6669921875 323 43 c 0
 323.666992188 33.6669921875 324 22.6669921875 324 10 c 0
 324 -2.6669921875 319.666992188 -22 311 -48 c 1
 311 -50 l 1
EndSplineSet
Validated: 1
EndChar

StartChar: slash
Encoding: 47 47 48
Width: 500
VWidth: 940
GlyphClass: 2
Flags: W
VStem: 33.0059 121.916<-56.0618 3.52149>
LayerCount: 2
Fore
SplineSet
400 752.995117188 m 0
 417.4921875 752.995117188 434.146484375 745.262695312 445.909179688 733.5 c 0
 458.083007812 721.326171875 463.997070312 704.837890625 463.997070312 688 c 0
 463.997070312 677.303710938 461.352539062 666.342773438 456.977539062 656.134765625 c 0
 356.884765625 422.583984375 256.006835938 192.200195312 154.921875 -39.9951171875 c 0
 152.438476562 -45.69921875 147.954101562 -50.4619140625 143.783203125 -54.6328125 c 0
 132.748046875 -65.66796875 115.326171875 -74.9951171875 95.0009765625 -74.9951171875 c 0
 78.46875 -74.9951171875 62.8837890625 -68.23828125 51.3232421875 -56.677734375 c 0
 38.255859375 -43.6103515625 33.005859375 -25.875 33.005859375 -8 c 2
 33.005859375 -1.5 l 2
 33.005859375 4.5830078125 34.01171875 11.1669921875 36.025390625 15.865234375 c 0
 136.118164062 249.416015625 236.99609375 479.799804688 338.081054688 711.995117188 c 0
 338.54296875 713.056640625 339.08203125 714.092773438 339.698242188 715.094726562 c 0
 343.771484375 721.712890625 348.344726562 727.729492188 353.662109375 733.046875 c 0
 365.956054688 745.340820312 382.250976562 752.995117188 400 752.995117188 c 0
EndSplineSet
Validated: 1
EndChar

StartChar: zero
Encoding: 48 48 49
Width: 500
VWidth: 940
GlyphClass: 2
Flags: W
HStem: -29.9951 131.015<194.384 280.733> 522.104 132.114<208.13 303.954>
VStem: 10.4707 131.349<303.715 426.953>
LayerCount: 2
Fore
SplineSet
359.015625 315.780273438 m 1
 303.970703125 274.8046875 225.432617188 215.028320312 164.1875 167.560546875 c 1
 168.248046875 159.337890625 172.92578125 150.258789062 178.2109375 140.359375 c 0
 182.125 135.1015625 186.147460938 130.438476562 190.245117188 126.340820312 c 0
 204.504882812 112.081054688 219.90234375 104.060546875 237.828125 101.01953125 c 0
 252.666015625 101.423828125 265.223632812 106.829101562 277.947265625 119.552734375 c 0
 282.390625 123.99609375 286.865234375 129.444335938 291.25390625 135.95703125 c 0
 291.801757812 136.76953125 292.40234375 137.556640625 293.055664062 138.313476562 c 0
 320.750976562 170.416015625 336.256835938 198.932617188 341.62890625 222.5703125 c 0
 341.692382812 222.849609375 341.760742188 223.127929688 341.833984375 223.405273438 c 0
 351.131835938 258.659179688 356.748046875 289.54296875 359.015625 315.780273438 c 1
261.802734375 522.104492188 m 0
 261.623046875 522.104492188 261.450195312 522.100585938 261.287109375 522.094726562 c 0
 232.76953125 518.549804688 213.83984375 509.00390625 200.594726562 494.287109375 c 0
 198.4375 491.889648438 196.25 490.546875 193.857421875 488.154296875 c 0
 183.48046875 477.77734375 169.896484375 452.647460938 157.9375 412.783203125 c 0
 148.096679688 380.577148438 142.625976562 344.228515625 141.819335938 303.71484375 c 1
 238.23046875 377.467773438 303.17578125 426.795898438 337.100585938 452.020507812 c 1
 331.444335938 464.341796875 322.463867188 479.071289062 309.794921875 495.657226562 c 0
 296.278320312 507.0234375 284.643554688 514.51171875 275.8359375 518.407226562 c 0
 269.215820312 521.334960938 264.564453125 522.104492188 261.802734375 522.104492188 c 0
245.374023438 -29.9951171875 m 0
 212.384765625 -29.9951171875 182.176757812 -23.49609375 159.241210938 -12.57421875 c 0
 136.81640625 -1.8955078125 116.766601562 10.447265625 100.302734375 26.9111328125 c 0
 93.26171875 33.9521484375 86.7607421875 41.77734375 80.7421875 50.337890625 c 0
 48.9208984375 92.8759765625 26.9130859375 145.196289062 16.83984375 206.412109375 c 0
 12.5927734375 232.221679688 10.470703125 258.345703125 10.470703125 284.7265625 c 0
 10.470703125 315.53515625 12.7958984375 344.508789062 17.2783203125 373.690429688 c 0
 30.1015625 463.23046875 69.9365234375 543.494140625 122.694335938 596.251953125 c 0
 132.364257812 605.921875 142.506835938 614.7109375 153.1171875 622.587890625 c 0
 182.391601562 644.321289062 216.9921875 654.21875 260.044921875 654.21875 c 0
 285.067382812 654.21875 310.215820312 649.447265625 326.759765625 641.568359375 c 0
 385.377929688 613.653320312 432.076171875 566.279296875 457.08203125 506.110351562 c 0
 477.7265625 456.436523438 488.995117188 399.055664062 488.995117188 332.497070312 c 0
 488.995117188 303.176757812 487.270507812 274.939453125 483.791015625 247.796875 c 0
 483.672851562 246.876953125 483.50390625 245.962890625 483.284179688 245.05859375 c 0
 476.923828125 218.912109375 467.674804688 191.251953125 455.612304688 161.958984375 c 0
 430.344726562 100.59765625 392.858398438 46.2451171875 343.072265625 8.5478515625 c 0
 318.658203125 -9.9375 299.370117188 -22.1787109375 280.391601562 -27.1728515625 c 0
 279.41796875 -27.4287109375 278.431640625 -27.625 277.438476562 -27.76171875 c 0
 266.677734375 -29.24609375 255.978515625 -29.9951171875 245.374023438 -29.9951171875 c 0
EndSplineSet
Validated: 1
EndChar

StartChar: one
Encoding: 49 49 50
Width: 500
VWidth: 940
GlyphClass: 2
Flags: W
HStem: -5.98926 121.702<121.433 207.749 340.151 474.386> -0.65625 121.183<20.8721 207.749> 630.997 20G<269.691 283.258>
VStem: 205.207 134.25<118.277 442.366>
LayerCount: 2
Fore
SplineSet
359.079101562 115.712890625 m 0xb0
 373.381835938 115.712890625 384.798828125 117.08203125 398.654296875 117.08203125 c 0
 416.126953125 117.08203125 430.486328125 116.223632812 442.540039062 114.131835938 c 0
 457.583007812 111.521484375 469.998046875 107.048828125 478.057617188 95.953125 c 0
 485.692382812 86.18359375 490.752929688 74.5546875 492.306640625 62.1259765625 c 0
 492.524414062 60.38671875 492.625 58.693359375 492.625 57.044921875 c 0
 492.625 48.6962890625 490.05078125 41.4921875 487.043945312 35.35546875 c 0
 482.427734375 25.93359375 475.506835938 16.1513671875 466.68359375 7.328125 c 0
 461.110351562 1.7548828125 453.408203125 -1.662109375 446.698242188 -3.798828125 c 0
 432.7265625 -8.2470703125 416.630859375 -9.3857421875 398.107421875 -9.3857421875 c 0
 381.509765625 -9.3857421875 362.192382812 -8.2060546875 339.756835938 -5.9892578125 c 2
 292.504882812 -5.9892578125 l 2xb0
 259.444335938 -5.9892578125 216.086914062 -4.306640625 162.040039062 -0.9775390625 c 0
 147.712890625 -0.7626953125 133.970703125 -0.65625 120.815429688 -0.65625 c 0
 94.1162109375 -0.65625 69.837890625 -1.0966796875 48.01171875 -1.9697265625 c 0
 47.6767578125 -1.9833984375 47.3408203125 -1.990234375 47.0048828125 -1.990234375 c 0
 36.1015625 -1.990234375 25.2685546875 2.5048828125 17.3759765625 10.3974609375 c 0
 5.66796875 22.10546875 2.529296875 36.1025390625 2.0087890625 51.005859375 c 0
 1.4267578125 67.65625 6.5830078125 84.607421875 19.103515625 97.1279296875 c 0
 24.896484375 102.920898438 31.78515625 107.146484375 39.0947265625 109.990234375 c 0
 48.1416015625 114.270507812 57.8603515625 116.348632812 69.21484375 117.893554688 c 0
 82.630859375 119.71875 98.544921875 120.526367188 117.458007812 120.526367188 c 0x70
 148.385742188 120.526367188 178.661132812 119.58984375 207.749023438 118.27734375 c 1
 208.583984375 150.350585938 208.994140625 178.678710938 208.994140625 203.168945312 c 0
 208.994140625 269.209960938 205.20703125 284.861328125 205.20703125 351.356445312 c 0
 205.20703125 377.11328125 205.619140625 407.411132812 206.4296875 442.366210938 c 1
 194.434570312 431.93359375 183.764648438 423.063476562 174.358398438 415.716796875 c 0
 158.626953125 403.430664062 147.103515625 395.21484375 134.803710938 390.602539062 c 0
 130.83984375 389.116210938 126.143554688 388.756835938 120.985351562 388.756835938 c 0
 104.524414062 388.756835938 88.1884765625 394.459960938 76.4453125 406.712890625 c 0
 65.0673828125 418.584960938 58.005859375 434.166992188 58.005859375 451.00390625 c 0
 58.005859375 461.24609375 60.5751953125 471.100585938 64.7041015625 480.276367188 c 0
 67.560546875 486.625 69.81640625 488.58203125 72.7138671875 491.923828125 c 0
 76.2021484375 495.947265625 80.6455078125 500.588867188 86.4013671875 506.344726562 c 0
 103.26171875 523.205078125 131.342773438 549.395507812 171.225585938 585.540039062 c 0
 171.494140625 585.783203125 171.766601562 586.01953125 172.04296875 586.249023438 c 2
 237.04296875 640.249023438 l 2
 239.171875 642.017578125 241.52734375 643.377929688 244.00390625 644.330078125 c 0
 254.409179688 648.33203125 264.381835938 650.997070312 275 650.997070312 c 0
 291.516601562 650.997070312 307.846679688 645.370117188 319.889648438 633.327148438 c 0
 329.80859375 623.408203125 335.703125 610.874023438 339.204101562 597.2578125 c 0
 339.731445312 595.208007812 339.995117188 593.104492188 339.995117188 591.000976562 c 0
 339.995117188 590.73046875 339.991210938 590.459960938 339.982421875 590.189453125 c 0
 337.90234375 525.71484375 336.87109375 469.01171875 336.87109375 420.190429688 c 0
 336.87109375 375.43359375 337.737304688 337.30078125 339.45703125 305.876953125 c 0
 341.237304688 273.353515625 342.125976562 240.051757812 342.125976562 205.969726562 c 0
 342.125976562 176.616210938 341.466796875 146.68359375 340.151367188 116.171875 c 1
 346.6953125 115.864257812 353.005859375 115.712890625 359.079101562 115.712890625 c 0xb0
EndSplineSet
Validated: 37
EndChar

StartChar: two
Encoding: 50 50 51
Width: 500
VWidth: 940
GlyphClass: 2
Flags: W
HStem: -8.99316 138.988<196.606 437.181> 519.991 140.004<211.529 302.814>
VStem: 42.0039 416.992<15.6403 115.036> 314.005 133.99<410.182 511.436>
LayerCount: 2
Fore
SplineSet
345 129.995117188 m 2xd0
 355.185546875 129.995117188 389.749023438 130.99609375 399.000976562 130.99609375 c 0
 412.984375 130.99609375 427.2265625 126.08984375 437.673828125 115.642578125 c 0
 450.4453125 102.87109375 458.99609375 79.4599609375 458.99609375 58 c 0
 458.99609375 55.318359375 458.567382812 52.63671875 457.7109375 50.0673828125 c 0
 451.602539062 31.7431640625 447.99609375 21.1787109375 445.573242188 15.3642578125 c 0
 439.443359375 0.65625 425.357421875 -2.5087890625 407.955078125 -4.7724609375 c 0
 394.125 -6.5712890625 374.827148438 -7.8974609375 349.047851562 -8.9716796875 c 0
 348.698242188 -8.986328125 348.348632812 -8.9931640625 347.999023438 -8.9931640625 c 2
 109.999023438 -8.9931640625 l 2
 109.141601562 -8.9931640625 108.284179688 -8.94921875 107.430664062 -8.861328125 c 0
 90.9033203125 -7.166015625 75.1669921875 -1.07421875 63.259765625 10.8330078125 c 0
 50.0146484375 24.078125 43.8681640625 41.80078125 42.1123046875 60.6708984375 c 0
 42.0400390625 61.4462890625 42.00390625 62.224609375 42.00390625 63.0029296875 c 0xe0
 42.00390625 64.83203125 42.203125 66.6611328125 42.6015625 68.455078125 c 0
 47.923828125 92.4072265625 52.578125 113.682617188 56.560546875 132.26953125 c 0
 61.25390625 154.174804688 70.4345703125 175.997070312 83.5517578125 197.858398438 c 0
 107.853515625 238.362304688 132.134765625 263.865234375 164.296875 294.665039062 c 0
 193.815429688 325.62109375 223.680664062 354.002929688 259.37890625 379.78515625 c 0
 275.108398438 391.145507812 288.479492188 404.247070312 299.798828125 419.735351562 c 0
 309.047851562 432.391601562 314.004882812 447.678710938 314.004882812 468.002929688 c 0
 314.004882812 471.291992188 313.35546875 475.36328125 311.51171875 480.432617188 c 0
 306.662109375 493.767578125 300.997070312 504.221679688 291.90625 512.302734375 c 0
 286.399414062 517.198242188 282.08203125 519.2265625 278.854492188 519.991210938 c 0
 254.9921875 519.6328125 234.12890625 513.267578125 214.654296875 500.5546875 c 0
 192.354492188 485.997070312 171.596679688 468.484375 153.248046875 448.913085938 c 0
 152.115234375 447.704101562 150.836914062 446.586914062 149.515625 445.643554688 c 0
 136.499023438 436.344726562 121.088867188 431.006835938 105.000976562 431.006835938 c 0
 87.6416015625 431.006835938 70.595703125 437.986328125 59.0263671875 450.658203125 c 0
 47.4072265625 463.383789062 42.0048828125 480.021484375 42.0048828125 497.001953125 c 0
 42.0048828125 512.498046875 46.5478515625 527.514648438 54.5537109375 540.857421875 c 0
 55.4775390625 542.397460938 56.58203125 543.859375 57.8671875 545.211914062 c 0
 98.6494140625 588.138671875 145.53515625 628.64453125 207.432617188 649.666015625 c 0
 227.633789062 656.526367188 248.625 659.995117188 269.999023438 659.995117188 c 0
 326.450195312 659.995117188 370.370117188 632.173828125 397.689453125 599.525390625 c 0
 427.09375 564.385742188 447.995117188 513.009765625 447.995117188 451 c 0
 447.995117188 440.305664062 446.899414062 428.998046875 444.306640625 418.155273438 c 0
 436.362304688 384.930664062 423.993164062 356.537109375 406.26953125 333.693359375 c 0
 390.336914062 313.159179688 372.041015625 294.809570312 351.389648438 279.4140625 c 2
 298.852539062 240.38671875 l 2
 283.547851562 229.0625 270.408203125 217.180664062 258.219726562 203.4296875 c 2
 215.217773438 154.927734375 l 2
 208.77734375 147.665039062 202.557617188 139.362304688 196.606445312 129.995117188 c 1
 345 129.995117188 l 2xd0
EndSplineSet
Validated: 1
EndChar

StartChar: three
Encoding: 51 51 52
Width: 500
VWidth: 940
GlyphClass: 2
Flags: W
HStem: -15.1357 132.137<174.455 288.99> 476.007 21G<91.1118 111.336> 519.008 130.48<151.544 296.05>
VStem: 301.248 132.747<448.707 507.135> 323.003 136.991<152.963 260.537>
LayerCount: 2
Fore
SplineSet
27.0048828125 122 m 0xe8
 27.0048828125 139.000976562 33.3505859375 155.760742188 45.744140625 167.591796875 c 0
 58.0166015625 179.306640625 74.3330078125 184.99609375 91 184.99609375 c 0
 98.2626953125 184.99609375 103.556640625 182.708007812 108.9609375 180.555664062 c 0
 128.334960938 172.840820312 151.74609375 159.609375 164.676757812 146.678710938 c 0
 168.720703125 142.634765625 177.508789062 136.081054688 190.399414062 128.71484375 c 0
 199.858398438 123.309570312 214.624023438 118.862304688 235.048828125 117.000976562 c 0
 264.88671875 117.301757812 285.333007812 131.755859375 298.606445312 149.1484375 c 0
 312.71875 167.640625 323.002929688 195.072265625 323.002929688 226.000976562 c 0xe8
 323.002929688 237.454101562 319.752929688 244.5859375 313.083984375 251.064453125 c 0
 304.068359375 259.822265625 292.6953125 267.106445312 278.349609375 272.732421875 c 0
 263.078125 278.721679688 247.442382812 282.888671875 231.310546875 285.279296875 c 0
 214.203125 287.814453125 199.661132812 289.0078125 187.999023438 289.0078125 c 0
 185.849609375 289.0078125 183.700195312 289.283203125 181.608398438 289.833984375 c 0
 165.344726562 294.11328125 150.287109375 302.345703125 140.293945312 315.115234375 c 0
 131.465820312 326.395507812 126.00390625 340.27734375 126.00390625 355.00390625 c 0
 126.00390625 372.108398438 134.189453125 388.186523438 145.221679688 399.21875 c 0
 155.995117188 409.9921875 169.755859375 416.461914062 184.905273438 420.249023438 c 0
 185.998046875 420.522460938 187.10546875 420.720703125 188.219726562 420.844726562 c 0
 225.509765625 424.987304688 263.23046875 435.5 287.62109375 453.59765625 c 0
 293.184570312 457.725585938 297.749023438 462.619140625 301.248046875 468.603515625 c 2
 301.909179688 485.126953125 l 2
 300.7421875 491.251953125 299.524414062 497.368164062 298.409179688 503.50390625 c 0
 297.978515625 505.87109375 297.522460938 506.32421875 296.55078125 507.174804688 c 0
 286.05078125 516.36328125 263.424804688 519.0078125 243.999023438 519.0078125 c 0
 230.30859375 519.0078125 214.99609375 517.66015625 198.134765625 514.849609375 c 0
 183.669921875 512.438476562 168.8125 507.240234375 153.403320312 498.837890625 c 0
 138.54296875 488.108398438 122.673828125 476.006835938 99.9990234375 476.006835938 c 0
 82.224609375 476.006835938 65.580078125 484.098632812 54.0908203125 496.5859375 c 0
 40.7705078125 511.0625 36.00390625 530.217773438 36.00390625 550.000976562 c 0
 36.00390625 551.463867188 36.1318359375 552.926757812 36.38671875 554.372070312 c 0
 39.423828125 571.58203125 49.013671875 587.083984375 61.74609375 597.998046875 c 0
 86.287109375 619.034179688 111.423828125 629.596679688 148.712890625 640.063476562 c 0
 168.96875 645.749023438 186.513671875 649.072265625 202.337890625 649.48828125 c 0
 215.125976562 649.82421875 224.744140625 649.997070312 231.5 649.997070312 c 2
 237 649.997070312 l 2
 324.737304688 649.997070312 388.131835938 616.651367188 417.862304688 557.189453125 c 0
 428.912109375 535.08984375 433.995117188 509.700195312 433.995117188 482.001953125 c 0xf0
 433.995117188 476.192382812 433.62109375 468.868164062 432.930664062 459.20703125 c 0
 432.05859375 447.00390625 429.10546875 434.62890625 424.48828125 421.932617188 c 0
 416.49609375 399.953125 399.305664062 376.454101562 381.8828125 360.5859375 c 1
 411.705078125 337.725585938 436.6015625 307.760742188 450.48828125 269.569335938 c 0
 456.860351562 252.044921875 459.994140625 233.357421875 459.994140625 214.000976562 c 0
 459.994140625 184.754882812 453.169921875 155.935546875 440.098632812 128.299804688 c 0
 414.876953125 74.974609375 373.412109375 31.251953125 321.1875 5.138671875 c 0
 292.237304688 -9.3369140625 265.50390625 -15.1357421875 233.076171875 -15.1357421875 c 0
 198.211914062 -15.1357421875 163.655273438 -5.796875 130.278320312 11.9130859375 c 0
 95.8466796875 30.1826171875 67.7626953125 50.12890625 45.029296875 73.6201171875 c 0
 44.224609375 74.4521484375 43.4892578125 75.326171875 42.8232421875 76.2353515625 c 0
 33.00390625 89.625 27.0048828125 105.34375 27.0048828125 122 c 0xe8
EndSplineSet
Validated: 1
EndChar

StartChar: four
Encoding: 52 52 53
Width: 500
VWidth: 940
GlyphClass: 2
Flags: W
HStem: 174.39 133.604<184.606 234.007 365.998 466.311> 638.077 20G<312.114 325.446>
VStem: 234.007 131.989<-14.4071 174.39 309.343 408.978>
LayerCount: 2
Fore
SplineSet
192.059570312 308.198242188 m 0
 205.485351562 308.198242188 222.393554688 309.177734375 234.0078125 309.342773438 c 1
 234.0078125 362.997070312 l 2
 234.0078125 365.044921875 234.2578125 367.092773438 234.756835938 369.090820312 c 0
 238.828125 385.375976562 245.813476562 400.254882812 257.744140625 411.048828125 c 0
 269.005859375 421.237304688 283.701171875 426.9921875 299.002929688 426.9921875 c 0
 316.834960938 426.9921875 334.856445312 419.029296875 346.038085938 407.84765625 c 0
 355.80859375 398.077148438 361.653320312 385.763671875 365.171875 372.389648438 c 0
 365.72265625 370.297851562 365.998046875 368.1484375 365.998046875 365.999023438 c 2
 365.998046875 307.994140625 l 1
 423.002929688 307.994140625 l 2
 425.807617188 307.994140625 428.612304688 307.525390625 431.2890625 306.588867188 c 0
 447.234375 301.0078125 461.3515625 293.055664062 471.369140625 280.8125 c 0
 480.466796875 269.693359375 485.998046875 255.7421875 485.998046875 241 c 0
 485.998046875 223.870117188 478.1953125 207.774414062 466.830078125 196.409179688 c 0
 455.797851562 185.376953125 441.685546875 178.650390625 426.094726562 174.752929688 c 0
 424.096679688 174.25390625 422.048828125 174.00390625 420.000976562 174.00390625 c 2
 393.000976562 174.00390625 l 2
 386.905273438 174.00390625 377.951171875 174.1328125 365.99609375 174.389648438 c 1
 365.99609375 37.998046875 l 2
 365.99609375 37.6328125 365.97265625 37.267578125 365.97265625 36.9033203125 c 0
 365.120117188 17.306640625 358.850585938 -1.5625 344.80859375 -15.04296875 c 0
 332.4921875 -26.8671875 316.348632812 -33.9970703125 299.001953125 -33.9970703125 c 0
 282.1171875 -33.9970703125 266.028320312 -26.4306640625 254.748046875 -15.150390625 c 0
 242.228515625 -2.630859375 236.538085938 13.9560546875 234.217773438 31.7431640625 c 0
 234.077148438 32.8232421875 234.006835938 33.9111328125 234.006835938 34.9990234375 c 2
 234.006835938 176.491210938 l 1
 171.149414062 177.880859375 157.563476562 178.48828125 95.8798828125 186.19921875 c 0
 93.0302734375 186.555664062 90.23046875 187.401367188 87.6171875 188.736328125 c 0
 61.73828125 201.962890625 34.341796875 224.325195312 34.341796875 259.05859375 c 0
 34.341796875 262.825195312 34.689453125 266.646484375 35.412109375 270.499023438 c 0
 46.6201171875 332.142578125 69.9365234375 385.876953125 105.592773438 430.513671875 c 1
 128.2421875 466.377929688 174.37890625 529.600585938 245.12109375 622.161132812 c 0
 247.952148438 625.866210938 251.52734375 629.301757812 254.569335938 632.34375 c 0
 264.388671875 642.163085938 273.3671875 650.248046875 286.602539062 654.029296875 c 0
 296.74609375 656.927734375 306.57421875 658.077148438 317.653320312 658.077148438 c 0
 333.23828125 658.077148438 349.088867188 652.310546875 360.068359375 641.331054688 c 0
 371.323242188 630.076171875 375.295898438 615.302734375 375.295898438 600.849609375 c 0
 375.295898438 597.95703125 375.154296875 595.036132812 374.841796875 592.219726562 c 0
 371.306640625 560.403320312 354.130859375 532.282226562 329.170898438 507.322265625 c 0
 309.3671875 487.518554688 274.201171875 441.9375 226.73046875 373.017578125 c 0
 209.025390625 346.302734375 194.83203125 324.396484375 184.591796875 308.298828125 c 1
 187.029296875 308.232421875 189.518554688 308.198242188 192.059570312 308.198242188 c 0
EndSplineSet
Validated: 1
EndChar

StartChar: five
Encoding: 53 53 54
Width: 500
VWidth: 940
GlyphClass: 2
Flags: W
HStem: -15.9951 136.99<150.875 296.599> 262.006 378.991<71.7534 165.24> 298.005 136.989<182.451 304.922> 509.022 136.975<179.757 419.677>
VStem: 50.0205 132.044<430.853 505.823> 335.002 135.99<158.887 268.88>
LayerCount: 2
Fore
SplineSet
182.064453125 430.852539062 m 1x9c
 197.850585938 433.44921875 216.038085938 434.994140625 232.998046875 434.994140625 c 0
 308.43359375 434.994140625 367.44140625 406.118164062 406.336914062 366.513671875 c 0
 441.7421875 330.462890625 470.9921875 278.928710938 470.9921875 212.999023438 c 0
 470.9921875 185.349609375 464.9765625 157.853515625 453.456054688 131.095703125 c 0
 429.545898438 75.5615234375 384.581054688 30.9345703125 329.721679688 4.912109375 c 0
 300.201171875 -9.0908203125 267.642578125 -15.9951171875 232.99609375 -15.9951171875 c 0
 164.299804688 -15.9951171875 104.74609375 8.873046875 60.279296875 38.09375 c 0
 58.67578125 39.1474609375 57.1318359375 40.4404296875 55.7822265625 41.8740234375 c 0
 41.7138671875 56.8203125 33 75.5322265625 33 96 c 0
 33 113.479492188 39.625 130.499023438 51.8876953125 142.76171875 c 0
 64.5234375 155.397460938 81.6513671875 160.99609375 98.9951171875 160.99609375 c 0
 109.912109375 160.99609375 123.791015625 159.0859375 131.665039062 153.9375 c 0
 147.448242188 143.618164062 163.67578125 135.521484375 180.430664062 129.537109375 c 0
 196.346679688 123.852539062 213.041992188 120.995117188 230.99609375 120.995117188 c 0
 264.290039062 120.995117188 289.627929688 134.326171875 307.08984375 151.788085938 c 0
 322.842773438 167.541015625 335.001953125 190.182617188 335.001953125 221 c 0
 335.001953125 243.774414062 326.884765625 256.275390625 315.846679688 267.313476562 c 0
 297.30859375 285.8515625 263.734375 298.004882812 228.998046875 298.004882812 c 0xbc
 207.681640625 298.004882812 189.762695312 294.84375 172.124023438 289.897460938 c 0
 170.21484375 288.647460938 168.913085938 287.560546875 168.174804688 286.822265625 c 0
 160.403320312 279.05078125 152.283203125 271.482421875 141.857421875 266.743164062 c 0
 134.037109375 263.188476562 125.900390625 262.005859375 117.997070312 262.005859375 c 0
 100.221679688 262.005859375 83.0166015625 270.026367188 71.1953125 281.84765625 c 0
 58.4150390625 294.627929688 52.478515625 311.619140625 50.1962890625 329.879882812 c 0
 50.107421875 330.588867188 50.048828125 331.301757812 50.0205078125 332.015625 c 0
 47.4306640625 398.081054688 46.771484375 462.220703125 44.3583984375 528.875 c 1
 34.5908203125 541.083007812 29.001953125 556.05859375 29.001953125 572.001953125 c 0
 29.001953125 590.881835938 37.7861328125 609.306640625 50.3095703125 621.830078125 c 0
 63.8447265625 635.365234375 82.23046875 640.997070312 100.997070312 640.997070312 c 0xcc
 122.950195312 640.997070312 151.888671875 642.016601562 179.078125 642.493164062 c 0
 235.390625 643.4296875 291.846679688 644.357421875 347.913085938 645.490234375 c 0
 362.344726562 645.825195312 371.817382812 645.997070312 376.998046875 645.997070312 c 0
 379.045898438 645.997070312 381.09375 645.747070312 383.091796875 645.248046875 c 0
 400.107421875 640.994140625 415.913085938 632.454101562 426.016601562 618.983398438 c 0
 434.841796875 607.215820312 439.994140625 592.9296875 439.994140625 578.001953125 c 0
 439.994140625 560.13671875 431.990234375 543.000976562 420.189453125 531.200195312 c 0
 409.295898438 520.306640625 395.396484375 513.58203125 380.092773438 509.755859375 c 0
 378.387695312 509.329101562 376.645507812 509.084960938 374.8984375 509.022460938 c 0
 337.274414062 507.678710938 300.140625 507.005859375 263.499023438 507.005859375 c 0
 235.686523438 507.005859375 207.772460938 506.611328125 179.756835938 505.823242188 c 1
 180.534179688 480.840820312 181.305664062 455.852539062 182.064453125 430.852539062 c 1x9c
EndSplineSet
Validated: 1
EndChar

StartChar: six
Encoding: 54 54 55
Width: 500
VWidth: 940
GlyphClass: 2
Flags: W
HStem: -6.99902 132.994<198.702 320.159> 278.003 131.99<203.873 320.812> 646.992 20G<267.993 285.368>
VStem: 339.006 133.99<145.401 262.086>
LayerCount: 2
Fore
SplineSet
259 125.995117188 m 0
 282.3203125 125.995117188 297.384765625 130.327148438 305.493164062 135.540039062 c 0
 315.2578125 141.817382812 323.015625 148.673828125 328.288085938 157.899414062 c 0
 333.549804688 167.107421875 336.26953125 175.483398438 337.168945312 183.356445312 c 0
 338.442382812 194.501953125 339.005859375 202.784179688 339.005859375 206.998046875 c 0
 339.005859375 234.26171875 332.364257812 251.489257812 318.727539062 262.599609375 c 0
 306.826171875 272.295898438 291.712890625 278.002929688 272 278.002929688 c 0
 251.051757812 278.002929688 231.850585938 272.814453125 213.073242188 261.884765625 c 0
 193.010742188 250.206054688 176.91015625 234.541992188 163.01953125 216.018554688 c 0
 161.268554688 213.68359375 159.377929688 211.447265625 157.334960938 209.328125 c 0
 159.775390625 201.762695312 162.748046875 194.331054688 164.991210938 186.59375 c 0
 173.899414062 173.416015625 182.541015625 162.779296875 190.606445312 154.713867188 c 0
 198.1484375 147.171875 205.202148438 141.862304688 211.4453125 138.466796875 c 0
 227.114257812 129.9453125 242.598632812 125.995117188 259 125.995117188 c 0
270.000976562 409.993164062 m 0
 334.33203125 409.993164062 384.328125 387.633789062 418.134765625 353.827148438 c 0
 450.911132812 321.05078125 472.99609375 272.889648438 472.99609375 209.99609375 c 0
 472.99609375 105.334960938 422.381835938 36.8740234375 345.953125 7.650390625 c 0
 320.075195312 -2.244140625 291.588867188 -6.9990234375 261.000976562 -6.9990234375 c 0
 226.434570312 -6.9990234375 192.982421875 -0.3115234375 161.328125 12.9384765625 c 0
 128.8984375 26.513671875 101.813476562 47.3193359375 81.8564453125 74.1845703125 c 0
 72.3779296875 87.048828125 64.865234375 97.62109375 59.1845703125 106.142578125 c 0
 47.57421875 123.559570312 39.89453125 141.337890625 34.25390625 163.903320312 c 0
 31.8212890625 173.635742188 28.9462890625 186.1640625 25.578125 201.657226562 c 0
 22.798828125 214.4453125 22.005859375 228.43359375 22.005859375 241.997070312 c 0
 22.005859375 278.556640625 27.57421875 315.783203125 38.49609375 353.483398438 c 0
 69.9013671875 461.887695312 131.950195312 553.486328125 202.971679688 624.5078125 c 0
 210.948242188 632.484375 219.0546875 640.1796875 227.291015625 647.592773438 c 0
 240.61328125 659.58203125 258.985351562 666.9921875 277.000976562 666.9921875 c 0
 293.734375 666.9921875 309.791992188 660.561523438 321.678710938 648.674804688 c 0
 333.565429688 636.788085938 339.99609375 620.73046875 339.99609375 603.997070312 c 0
 339.99609375 585.944335938 332.788085938 569.241210938 321.420898438 555.250976562 c 0
 320.524414062 554.147460938 319.49609375 553.08203125 318.419921875 552.142578125 c 0
 286.385742188 524.198242188 260.390625 494.379882812 233.907226562 457.048828125 c 0
 220.517578125 438.174804688 208.673828125 418.819335938 198.354492188 398.96484375 c 1
 221.494140625 406.26953125 245.444335938 409.993164062 270.000976562 409.993164062 c 0
EndSplineSet
Validated: 1
EndChar

StartChar: seven
Encoding: 55 55 56
Width: 500
VWidth: 940
GlyphClass: 2
Flags: W
HStem: 509.004 131.99<18.4699 303.265>
VStem: 134.121 130.75<-7.96873 39.9636 40.0395 145.595>
LayerCount: 2
Fore
SplineSet
199 -27.9951171875 m 0
 181.743164062 -27.9951171875 165.591796875 -19.99609375 154.1484375 -8.552734375 c 0
 141.75390625 3.8427734375 135.768554688 20.3076171875 134.12109375 37.61328125 c 0
 134.045898438 38.4072265625 134.0078125 39.2041015625 134.0078125 40.0009765625 c 0
 134.0078125 40.8232421875 134.047851562 41.6455078125 134.12890625 42.46484375 c 0
 143.364257812 136.362304688 170.232421875 229.8515625 200.673828125 308.997070312 c 0
 227.842773438 379.635742188 263.615234375 449.93359375 303.264648438 509.00390625 c 1
 66.001953125 509.00390625 l 2
 64.865234375 509.00390625 63.728515625 509.081054688 62.6005859375 509.234375 c 0
 44.119140625 511.754882812 26.5947265625 518.92578125 14.671875 532.552734375 c 0
 4.4619140625 544.220703125 -1.994140625 559.03125 -1.994140625 574.999023438 c 0
 -1.994140625 592.654296875 5.9775390625 609.375 17.84375 621.241210938 c 0
 31.1162109375 634.513671875 49.8720703125 640.994140625 69.0009765625 640.994140625 c 2
 442.000976562 640.994140625 l 2
 444.104492188 640.994140625 446.208007812 640.73046875 448.2578125 640.203125 c 0
 461.874023438 636.702148438 474.408203125 630.807617188 484.327148438 620.888671875 c 0
 496.370117188 608.845703125 501.997070312 592.515625 501.997070312 575.999023438 c 0
 501.997070312 565.380859375 499.33203125 555.408203125 495.330078125 545.001953125 c 0
 494.39453125 542.569335938 493.065429688 540.25390625 491.341796875 538.154296875 c 0
 473.2265625 516.086914062 455.409179688 495.072265625 438.421875 471.568359375 c 0
 394.7421875 408.587890625 354.334960938 335.280273438 323.666992188 259.590820312 c 0
 295.611328125 190.34765625 273.314453125 111.927734375 264.87109375 27.4951171875 c 0
 264.630859375 25.0947265625 264.044921875 22.72265625 263.11328125 20.4599609375 c 0
 253.043945312 -3.9912109375 231.858398438 -27.9951171875 199 -27.9951171875 c 0
EndSplineSet
Validated: 1
EndChar

StartChar: eight
Encoding: 56 56 57
Width: 500
VWidth: 940
GlyphClass: 2
Flags: W
HStem: -26.9922 126.989<166.648 311.271> 537.005 126.995<186.628 328.853>
VStem: 45.0039 420.989<464.5 580.309>
LayerCount: 2
Fore
SplineSet
267 537.004882812 m 0
 246.880859375 537.004882812 223.030273438 532.302734375 206.952148438 526.155273438 c 0
 197.381835938 522.49609375 188.791992188 517.704101562 182.388671875 511.30078125 c 0
 179.942382812 508.853515625 178.405273438 506.508789062 177.430664062 503.693359375 c 0
 178.295898438 497.491210938 179.1796875 490.729492188 180.043945312 484.5234375 c 0
 198.2734375 454.774414062 220.209960938 434.059570312 247.288085938 413.173828125 c 1
 262.130859375 422.701171875 275.879882812 432.731445312 288.551757812 443.250976562 c 0
 303.84375 455.946289062 316.170898438 470.19140625 327.625976562 487.840820312 c 0
 329.078125 494.620117188 329.638671875 501.559570312 331.07421875 508.276367188 c 0
 330.342773438 511.340820312 329.928710938 514.390625 329.577148438 517.5390625 c 0
 322.340820312 525.034179688 314.525390625 529.7578125 306.75 531.927734375 c 0
 294.837890625 535.251953125 281.65625 537.004882812 267 537.004882812 c 0
237 99.9970703125 m 0
 246.900390625 99.9970703125 258.3828125 101.252929688 271.34765625 103.966796875 c 0
 296.342773438 109.198242188 317.03125 122.314453125 331.01171875 139.669921875 c 0
 337.08203125 147.205078125 342 156.88671875 345.362304688 169.3984375 c 0
 343.665039062 175.389648438 340.268554688 181.645507812 334.239257812 188.478515625 c 0
 314.772460938 210.540039062 289.96875 229.149414062 264.21484375 245.3203125 c 0
 255.15625 251.008789062 246.573242188 256.358398438 238.467773438 261.3671875 c 1
 220.224609375 249.140625 204.948242188 237.998046875 192.74609375 228.083984375 c 0
 178.19921875 216.264648438 167.689453125 203.34765625 156.323242188 185.193359375 c 0
 154.436523438 177.536132812 152.51171875 169.19140625 150.625976562 161.491210938 c 0
 152.1640625 153.397460938 152.782226562 144.63671875 154.411132812 136.7578125 c 0
 159.735351562 128.619140625 164.223632812 123.190429688 170.688476562 117.96875 c 0
 181.94140625 108.879882812 196.234375 102.1171875 212.793945312 100.93359375 c 0
 221.616210938 100.302734375 229.698242188 99.9970703125 237 99.9970703125 c 0
465.993164062 514.00390625 m 0
 465.993164062 422.10546875 416.689453125 373.861328125 361.150390625 335.848632812 c 1
 403.456054688 306.946289062 444.139648438 273.1875 467.770507812 226.87109375 c 0
 477.987304688 206.845703125 482.994140625 184.515625 482.994140625 161.002929688 c 0
 482.994140625 109.685546875 450.560546875 67.7578125 421.362304688 41.0458984375 c 0
 391.366210938 13.6044921875 348.508789062 -12.40625 302.202148438 -19.6416015625 c 0
 275.729492188 -24.5 250.67578125 -26.9921875 227 -26.9921875 c 0
 199.952148438 -26.9921875 174.095703125 -23.1328125 149.786132812 -15.279296875 c 0
 124.916992188 -7.2451171875 100.180664062 6.30859375 75.228515625 24.8291015625 c 0
 68.982421875 29.361328125 63.2265625 34.2138671875 57.99609375 39.4443359375 c 0
 44.177734375 53.2626953125 34.3251953125 69.62109375 29.7529296875 87.91015625 c 0
 23.8720703125 111.430664062 19.21875 135.676757812 15.2958984375 161.177734375 c 0
 15.1005859375 162.4453125 15.0029296875 163.724609375 15.0029296875 165.00390625 c 0
 15.0029296875 166.920898438 15.2216796875 168.837890625 15.6591796875 170.713867188 c 0
 20.3681640625 190.892578125 25.08203125 210.088867188 29.8056640625 228.307617188 c 0
 35.7626953125 251.283203125 48.9541015625 272.119140625 67.59375 290.951171875 c 0
 80.068359375 305.491210938 94.5810546875 318.485351562 110.533203125 329.244140625 c 0
 115.745117188 332.758789062 121.01953125 336.250976562 126.35546875 339.719726562 c 1
 108.213867188 356.3046875 91.794921875 375.096679688 77.875 395.366210938 c 0
 55.9619140625 427.275390625 45.00390625 464.5 45.00390625 505.00390625 c 0
 45.00390625 534.53125 52.6142578125 561.51953125 68.9345703125 583.422851562 c 0
 97.48046875 621.733398438 144.108398438 647.09375 199.529296875 657.099609375 c 0
 224.88671875 661.677734375 249.724609375 664 273.998046875 664 c 0
 338.084960938 664 393.671875 644.091796875 427.033203125 610.73046875 c 0
 434.348632812 603.415039062 440.845703125 595.329101562 446.51171875 586.555664062 c 0
 459.89453125 565.833007812 465.993164062 541.020507812 465.993164062 514.00390625 c 0
EndSplineSet
Validated: 1
EndChar

StartChar: nine
Encoding: 57 57 58
Width: 500
VWidth: 940
GlyphClass: 2
Flags: W
HStem: -34.9971 120.49<134.709 187.119> 212.003 129.992<179.756 299.664> 525.002 128.992<195.179 319.409>
VStem: 19.0049 131.991<370.211 481.977> 349.006 133.989<367.855 493.657>
LayerCount: 2
Fore
SplineSet
245 341.995117188 m 0
 285.24609375 341.995117188 323.77734375 361.021484375 349.005859375 378.83984375 c 1
 349.005859375 395.998046875 l 2
 349.005859375 413.8828125 347.466796875 431.384765625 344.397460938 448.576171875 c 0
 338.887695312 479.434570312 326.94921875 502.075195312 304.288085938 515.465820312 c 0
 294.372070312 521.325195312 280.762695312 525.001953125 262.000976562 525.001953125 c 0
 227.079101562 525.001953125 199.202148438 509.498046875 180.833007812 491.12890625 c 0
 164.760742188 475.056640625 150.99609375 450.35546875 150.99609375 419.998046875 c 0
 150.99609375 399.981445312 156.97265625 386.365234375 168.020507812 374.3359375 c 0
 179.845703125 362.587890625 191.891601562 354.62109375 204.22265625 349.740234375 c 0
 217.356445312 344.541992188 230.75 341.995117188 245 341.995117188 c 0
184.000976562 -34.9970703125 m 0
 165.446289062 -34.9970703125 147.231445312 -29.107421875 134.088867188 -15.96484375 c 0
 122.739257812 -4.615234375 116.002929688 10.7041015625 116.002929688 26.9970703125 c 0
 116.002929688 49.955078125 129.448242188 69.7744140625 145.399414062 82.5361328125 c 0
 146.869140625 83.7119140625 148.44140625 84.697265625 150.083007812 85.4931640625 c 0
 213.212890625 116.1015625 265.083984375 160.30859375 300.91015625 217.58203125 c 1
 282.681640625 213.879882812 264.357421875 212.002929688 246 212.002929688 c 0
 209.229492188 212.002929688 175.919921875 218.141601562 146.776367188 231.1796875 c 0
 118.9140625 243.64453125 95.1259765625 259.874023438 75.806640625 280.352539062 c 0
 57.0361328125 300.249023438 42.6923828125 322.745117188 33.1708984375 347.501953125 c 0
 23.8583984375 371.716796875 19.0048828125 396.362304688 19.0048828125 420.998046875 c 0
 19.0048828125 449.555664062 24.5048828125 477.780273438 35.228515625 505.142578125 c 0
 58.10546875 563.516601562 103.7734375 607.684570312 161.305664062 633.331054688 c 0
 192.662109375 647.30859375 228.141601562 653.994140625 266.999023438 653.994140625 c 0
 285.756835938 653.994140625 303.623046875 651.389648438 320.258789062 645.932617188 c 0
 361.015625 634.725585938 392.12890625 617.360351562 417.510742188 591.978515625 c 0
 446.338867188 563.150390625 466.48046875 524.020507812 475.083984375 477.029296875 c 0
 479.68359375 451.903320312 482.291992188 425.098632812 482.987304688 396.614257812 c 0
 482.9921875 396.409179688 482.995117188 396.204101562 482.995117188 395.999023438 c 0
 482.995117188 294.267578125 452.92578125 210.282226562 410.529296875 144.470703125 c 0
 361.771484375 68.7841796875 293.295898438 10.3310546875 208.899414062 -30.505859375 c 0
 202.29296875 -33.703125 193.028320312 -34.9970703125 184.000976562 -34.9970703125 c 0
EndSplineSet
Validated: 1
EndChar

StartChar: colon
Encoding: 58 58 59
Width: 1024
VWidth: 940
GlyphClass: 2
Flags: W
HStem: -146 236<159.03 273.295>
VStem: 87.999 241.001<-88.7553 38.7951> 109.999 220<326.164 430.469 432 464.781>
LayerCount: 2
Fore
SplineSet
155 303 m 0xa0
 125 325 109.999023438 355.666015625 109.999023438 394.999023438 c 0
 109.999023438 400.33203125 110.33203125 405.999023438 110.999023438 411.999023438 c 0
 110.999023438 424.666015625 115.33203125 438.333007812 123.999023438 453 c 0
 142.666015625 486.333007812 169.999023438 504.333007812 205.999023438 507 c 2
 220.999023438 507 l 1
 241.999023438 503 l 2
 243.999023438 502.333007812 248.999023438 501 256.999023438 499 c 0
 264.999023438 497 273.33203125 494.333007812 281.999023438 491 c 0
 290.666015625 487.666992188 299.666015625 480.5 308.999023438 469.5 c 0
 318.33203125 458.5 324.999023438 446.333007812 328.999023438 433 c 1
 328.999023438 432 l 1
 329.999023438 431 l 1
 332.666015625 419.666992188 333.999023438 409 333.999023438 399 c 0
 333.999023438 389 332.666015625 380 329.999023438 372 c 2
 329.999023438 371 l 1
 322.666015625 337 304.999023438 312 276.999023438 296 c 1
 276.999023438 295 l 1
 259.666015625 285 241.333007812 280 222 280 c 2
 216 280 l 2
 189.333007812 281.333007812 169 289 155 303 c 0xa0
131.999023438 64.9990234375 m 1
 133.000976562 65 l 1
 153.66796875 81.6669921875 176.000976562 90 200.000976562 90 c 0
 211.333984375 90 223.333984375 88 236.000976562 84 c 0
 265.333984375 82.6669921875 288.666992188 71 306 49 c 0
 322 29.6669921875 330 7.6669921875 330 -17 c 0
 330 -20.3330078125 329.666992188 -24 329 -28 c 2
 329 -29 l 2
 326.333007812 -54.3330078125 317.666015625 -76.3330078125 302.999023438 -95 c 1
 301.999023438 -95 l 1
 285.33203125 -119 263.999023438 -134.333007812 237.999023438 -141 c 0
 225.999023438 -144.333007812 213.999023438 -146 201.999023438 -146 c 0
 187.999023438 -146 174.33203125 -143.666992188 160.999023438 -139 c 1
 158.999023438 -139 l 1
 144.33203125 -133.666992188 131.33203125 -125.333984375 119.999023438 -114.000976562 c 0
 98.666015625 -92.66796875 87.9990234375 -67.66796875 87.9990234375 -39.0009765625 c 0xc0
 87.9990234375 -33.0009765625 88.666015625 -27.0009765625 89.9990234375 -21.0009765625 c 0
 94.666015625 16.33203125 108.666015625 44.9990234375 131.999023438 64.9990234375 c 1
EndSplineSet
Validated: 1
EndChar

StartChar: semicolon
Encoding: 59 59 60
Width: 1024
VWidth: 940
GlyphClass: 2
Flags: W
VStem: 110 220<326.163 430.437 431.999 464.78>
LayerCount: 2
Fore
SplineSet
282 -50 m 1
 255.000976562 -84.0009765625 l 2
 253.66796875 -88.0009765625 242.334960938 -99.0009765625 221.001953125 -117.000976562 c 1
 220.001953125 -117.000976562 l 1
 191.334960938 -141.000976562 162.334960938 -153.000976562 133.001953125 -153.000976562 c 0
 126.334960938 -153.000976562 120.001953125 -152.333984375 114.001953125 -151.000976562 c 2
 112.001953125 -151.000976562 l 2
 92.6689453125 -148.333984375 77.001953125 -141.333984375 65.001953125 -130.000976562 c 0
 53.001953125 -118.000976562 47.001953125 -103.000976562 47.001953125 -85.0009765625 c 0
 47.001953125 -74.333984375 49.001953125 -62.333984375 53.001953125 -49.0009765625 c 0
 60.3349609375 -25.66796875 74.66796875 1.33203125 96.0009765625 31.9990234375 c 1
 97.0009765625 31.9990234375 l 1
 108.333984375 47.9990234375 118.500976562 59.4990234375 127.500976562 66.4990234375 c 0
 136.500976562 73.4990234375 141.000976562 77.666015625 141.000976562 78.9990234375 c 2
 144.000976562 82.9990234375 l 2
 158.000976562 103.666015625 174.16796875 118.333007812 192.500976562 127 c 0
 210.833984375 135.666992188 224.166992188 140.166992188 232.5 140.5 c 0
 240.833007812 140.833007812 252 141 266 141 c 0
 280 141 292.666992188 136 304 126 c 0
 319.333007812 112.666992188 327 95 327 73 c 0
 327 63.6669921875 325.666992188 53.6669921875 323 43 c 0
 321 33.6669921875 318 22.6669921875 314 10 c 0
 310 -2.6669921875 299.333007812 -22 282 -48 c 1
 282 -50 l 1
155.000976562 302.999023438 m 0
 125.000976562 324.999023438 110 355.665039062 110 394.998046875 c 0
 110 400.331054688 110.333007812 405.998046875 111 411.998046875 c 0
 111 424.665039062 115.333007812 438.33203125 124 452.999023438 c 0
 142.666992188 486.33203125 170 504.33203125 206 506.999023438 c 2
 221 506.999023438 l 1
 242 502.999023438 l 2
 244 502.33203125 249 500.999023438 257 498.999023438 c 0
 265 496.999023438 273.333007812 494.33203125 282 490.999023438 c 0
 290.666992188 487.666015625 299.666992188 480.499023438 309 469.499023438 c 0
 318.333007812 458.499023438 325 446.33203125 329 432.999023438 c 1
 329 431.999023438 l 1
 330 430.999023438 l 1
 332 418.999023438 333 408.166015625 333 398.499023438 c 0
 333 388.83203125 332 379.999023438 330 371.999023438 c 2
 330 370.999023438 l 1
 322.666992188 336.999023438 305 311.999023438 277 295.999023438 c 1
 277 294.999023438 l 1
 259.666992188 284.999023438 241.333984375 279.999023438 222.000976562 279.999023438 c 2
 216.000976562 279.999023438 l 2
 189.333984375 281.33203125 169.000976562 288.999023438 155.000976562 302.999023438 c 0
EndSplineSet
Validated: 1
EndChar

StartChar: less
Encoding: 60 60 61
Width: 500
VWidth: 940
GlyphClass: 2
Flags: W
LayerCount: 2
Fore
SplineSet
478.251953125 498.768554688 m 0
 478.251953125 476.627929688 465.708984375 456.043945312 449.123046875 446.375 c 0
 363.913085938 396.703125 288.485351562 355.5859375 222.661132812 322.979492188 c 1
 265.42578125 302.907226562 309.17578125 283.802734375 353.912109375 265.666015625 c 0
 385.638671875 252.803710938 409.796875 242.334960938 427.030273438 233.888671875 c 0
 437.873046875 228.57421875 445.446289062 224.05078125 449.5625 221.389648438 c 0
 459.71875 214.823242188 467.2890625 203.643554688 471.668945312 193.303710938 c 0
 475.62890625 183.955078125 477.994140625 174.223632812 477.994140625 164 c 0
 477.994140625 158.55078125 477.563476562 148.29296875 472.333984375 137.241210938 c 0
 468.211914062 128.530273438 462.75 122.880859375 460.333007812 120.463867188 c 0
 456.891601562 117.022460938 451.258789062 111.981445312 442.771484375 108 c 0
 435.87109375 104.762695312 426.920898438 102.198242188 417.5234375 102.198242188 c 0
 412.100585938 102.198242188 406.677734375 103.07421875 401.486328125 104.825195312 c 0
 381.390625 111.604492188 367.2890625 116.7890625 357.346679688 121.377929688 c 0
 257.259765625 168.456054688 182.380859375 204.317382812 132.49609375 229.073242188 c 0
 95.9384765625 247.215820312 73.00390625 259.482421875 62.8251953125 265.76953125 c 0
 50.6494140625 273.290039062 41.517578125 286.669921875 36.6640625 299.177734375 c 0
 33.8916015625 306.323242188 32.0048828125 313.662109375 32.0048828125 321.999023438 c 0
 32.0048828125 327.604492188 32.587890625 335.631835938 36.0478515625 344.801757812 c 0
 41.4287109375 359.0625 50.201171875 368.485351562 60.4013671875 376.538085938 c 2
 82.90234375 394.538085938 l 2
 99.4462890625 407.772460938 138.1953125 428.614257812 209.017578125 465.2109375 c 0
 278.29296875 501.008789062 322.591796875 525.85546875 339.155273438 537.478515625 c 0
 354.674804688 548.369140625 366.05859375 554.217773438 373.186523438 557.176757812 c 0
 377.504882812 558.969726562 382.024414062 560.131835938 386.603515625 560.662109375 c 0
 395.600585938 563.866210938 404.524414062 565.994140625 413.999023438 565.994140625 c 0
 420.813476562 565.994140625 431.020507812 565.264648438 441.83984375 560.276367188 c 0
 450.646484375 556.215820312 456.409179688 550.946289062 459.677734375 547.677734375 c 0
 462.756835938 544.598632812 468.053710938 538.876953125 472.107421875 530.401367188 c 0
 477.388671875 519.361328125 477.370117188 511.123046875 477.92578125 505.3515625 c 0
 478.012695312 504.451171875 478.251953125 501.849609375 478.251953125 498.768554688 c 0
EndSplineSet
Validated: 1
EndChar

StartChar: equal
Encoding: 61 61 62
Width: 500
VWidth: 940
GlyphClass: 2
Flags: W
HStem: 170.004 134.991<37.3146 454.09> 341.003 134.99<36.8356 458.281>
LayerCount: 2
Fore
SplineSet
475.208984375 247.185546875 m 0
 475.208984375 227.2265625 470.484375 208.115234375 456.3046875 193.935546875 c 0
 441.111328125 178.7421875 416.278320312 171.00390625 392.0859375 171.00390625 c 2
 99 170.00390625 l 2
 74.017578125 170.00390625 50.439453125 177.171875 35.1044921875 192.506835938 c 0
 23.0908203125 204.520507812 17.0048828125 220.784179688 17.0048828125 237.499023438 c 0
 17.0048828125 253.765625 23.1474609375 269.522460938 34.775390625 281.150390625 c 0
 49.8017578125 296.176757812 74.2431640625 304.995117188 98.9150390625 304.995117188 c 2
 392.000976562 305.995117188 l 2
 418.5625 305.995117188 442.844726562 301.34765625 459.955078125 284.237304688 c 0
 466.248046875 277.944335938 470.9375 270.25390625 473.7109375 261.93359375 c 0
 475.12109375 257.702148438 475.208984375 252.547851562 475.208984375 247.185546875 c 0
479.995117188 412.999023438 m 0
 479.995117188 394.767578125 474.87890625 376.6875 461.568359375 363.376953125 c 0
 446.807617188 348.615234375 422.321289062 341.002929688 398.001953125 341.002929688 c 2
 100.001953125 341.002929688 l 2
 75.2890625 341.002929688 50.302734375 348.849609375 35.41015625 363.7421875 c 0
 22.1953125 376.95703125 17.0068359375 394.901367188 17.0068359375 412.997070312 c 0
 17.0068359375 414.108398438 17.080078125 415.219726562 17.2275390625 416.323242188 c 0
 18.8154296875 428.23828125 22.2802734375 440.463867188 31.94921875 450.3671875 c 0
 46.7119140625 470.120117188 72.74609375 475.993164062 100.000976562 475.993164062 c 2
 398.000976562 475.993164062 l 2
 421.267578125 475.993164062 443.241210938 471.970703125 459.025390625 456.186523438 c 0
 465.76953125 449.442382812 472.192382812 437.96484375 475.826171875 429.87890625 c 0
 477.733398438 425.635742188 479.995117188 421.421875 479.995117188 412.999023438 c 0
EndSplineSet
Validated: 1
EndChar

StartChar: greater
Encoding: 62 62 63
Width: 500
VWidth: 940
GlyphClass: 2
Flags: W
LayerCount: 2
Fore
SplineSet
474.995117188 321 m 0
 474.995117188 301.245117188 465.38671875 284.032226562 451.676757812 270.322265625 c 0
 450.704101562 269.349609375 449.670898438 268.473632812 448.588867188 267.6953125 c 0
 426.947265625 252.11328125 330.75390625 203.415039062 149.087890625 113.587890625 c 0
 137.336914062 107.77734375 121.087890625 103.102539062 97.4267578125 96.83984375 c 0
 95.3232421875 96.283203125 93.1611328125 96.0048828125 90.9990234375 96.0048828125 c 0
 73.76171875 96.0048828125 56.8388671875 102.2890625 44.6650390625 114.462890625 c 0
 33.05859375 126.069335938 27.00390625 141.806640625 27.00390625 157.999023438 c 0
 27.00390625 174.127929688 32.62890625 189.377929688 41.900390625 202.485351562 c 0
 43.58203125 205.267578125 45.28125 207.064453125 46.80078125 208.583984375 c 0
 54.9736328125 216.756835938 63.8310546875 221.010742188 77.5146484375 227.780273438 c 0
 94.4033203125 236.135742188 118.05078125 246.474609375 149.017578125 259.134765625 c 0
 194.146484375 277.5859375 238.827148438 298.512695312 283.064453125 321.92578125 c 1
 211.494140625 357.731445312 156.416992188 386.16015625 117.610351562 407.346679688 c 0
 97.0439453125 418.575195312 81.06640625 427.747070312 69.2890625 435.15234375 c 0
 59.2158203125 441.486328125 52.1923828125 445.668945312 46.1689453125 452.553710938 c 0
 34.5849609375 465.79296875 26.939453125 482.072265625 26.939453125 499.834960938 c 0
 26.939453125 518.353515625 32.7734375 534.129882812 45.3212890625 546.677734375 c 0
 56.599609375 557.956054688 71.55859375 564.036132812 87.1630859375 564.890625 c 0
 89.0283203125 565.275390625 90.6171875 565.391601562 92.005859375 565.391601562 c 0
 97.7216796875 565.391601562 102.075195312 564.485351562 106.944335938 563.3359375 c 0
 115.203125 561.38671875 125.288085938 558.176757812 138.344726562 553.568359375 c 0
 140.262695312 552.891601562 142.114257812 551.973632812 143.852539062 550.815429688 c 0
 150.956054688 546.080078125 162.2734375 539.263671875 177.299804688 530.76953125 c 0
 192.123046875 522.390625 232.23828125 500.655273438 296.813476562 466.037109375 c 0
 361.833984375 431.180664062 403.01171875 408.041992188 422.853515625 394.814453125 c 0
 435.068359375 386.671875 442.0703125 382.0703125 448.166992188 375.973632812 c 0
 449.859375 374.28125 452.3984375 370.623046875 454.483398438 368.538085938 c 0
 467.130859375 355.890625 474.995117188 339.208007812 474.995117188 321 c 0
EndSplineSet
Validated: 1
EndChar

StartChar: question
Encoding: 63 63 64
Width: 800
VWidth: 940
GlyphClass: 2
Flags: W
HStem: -136.002 172<169.296 267.835> 574 193<147.408 274.998>
VStem: 122 160.999<145.061 310.122> 129.001 153.998<107.77 310.122> 132.999 160.999<-108.054 1.93545>
LayerCount: 2
Fore
SplineSet
268 767 m 2xe0
 277.999023438 766.998046875 l 2
 298.666015625 766.998046875 316.333007812 763.665039062 331 756.998046875 c 0
 342.333007812 751.665039062 353.333007812 744.33203125 364 734.999023438 c 0
 374.666992188 725.666015625 383.666992188 715.666015625 391 704.999023438 c 2
 392 703.999023438 l 1
 392 702.999023438 l 1
 393 701.999023438 l 2
 401.666992188 689.999023438 410 671.666015625 418 646.999023438 c 0
 425.333007812 626.999023438 430.666015625 606.666015625 433.999023438 585.999023438 c 0
 436.666015625 567.999023438 438.333007812 549.666015625 439 530.999023438 c 2
 439 524.999023438 l 2
 439 500.999023438 436.333007812 478.999023438 431 458.999023438 c 2
 430 455.999023438 l 1
 430 453.999023438 l 1
 422 427.999023438 414 410.666015625 406 401.999023438 c 2
 404 397.999023438 l 2
 394 380.666015625 380.333007812 364.333007812 363 349 c 1
 361 348 l 1
 347.666992188 336.666992188 330 325 308 313 c 2
 306 312 l 2
 289.333007812 303.333007812 280.666015625 282.333007812 279.999023438 249 c 2
 282.999023438 162 l 2xe0
 282.999023438 138 273.33203125 117.333007812 253.999023438 100 c 0
 248.666015625 95.3330078125 242.333007812 91.666015625 235 88.9990234375 c 0
 225.666992188 84.9990234375 216.333984375 82.9990234375 207.000976562 82.9990234375 c 0
 193.66796875 82.9990234375 180.334960938 86.9990234375 167.001953125 94.9990234375 c 0
 148.334960938 106.33203125 135.66796875 122.665039062 129.000976562 143.998046875 c 1
 129.000976562 144.998046875 l 2xd0
 128.333984375 146.331054688 127.666992188 147.998046875 127 149.998046875 c 0
 123 170.665039062 121.333007812 183.665039062 122 188.998046875 c 0
 124.666992188 230.998046875 124 272.665039062 120 313.998046875 c 0
 118 349.998046875 128.666992188 385.331054688 152 419.998046875 c 1
 153 421.998046875 l 2
 164.333007812 439.331054688 176.666015625 452.998046875 189.999023438 462.998046875 c 0
 207.33203125 475.665039062 223.999023438 486.33203125 239.999023438 494.999023438 c 0
 252.666015625 501.666015625 261.666015625 507.666015625 266.999023438 512.999023438 c 1
 267.999023438 512.999023438 l 2
 269.999023438 515.666015625 271.33203125 517.333007812 271.999023438 518 c 2
 272.999023438 519 l 2
 275.666015625 523 276.999023438 525.666992188 276.999023438 527 c 2
 276.999023438 528 l 1
 276.999023438 534 l 2
 276.999023438 542.666992188 276.33203125 548.666992188 274.999023438 552 c 0
 272.33203125 568 267.33203125 576 259.999023438 576 c 0
 251.999023438 576 239.33203125 575.333007812 221.999023438 574 c 2
 218.999023438 574 l 2
 194.999023438 572 176.666015625 569.666992188 163.999023438 567 c 0
 157.33203125 565.666992188 150.999023438 565 144.999023438 565 c 0
 124.999023438 565 102.33203125 571.666992188 76.9990234375 585 c 0
 74.9990234375 586.333007812 72.9990234375 588.333007812 70.9990234375 591 c 0
 61.666015625 602.333007812 55.3330078125 615.333007812 52 630 c 0
 51.3330078125 635.333007812 51 641 51 647 c 0
 51 663 56 679 66 695 c 0
 67.3330078125 696.333007812 68.3330078125 697.666015625 69 698.999023438 c 0
 83 715.666015625 103.333007812 728.999023438 130 738.999023438 c 2
 132 739.999023438 l 2
 155.333007812 748.666015625 179.333007812 754.999023438 204 758.999023438 c 0
 228.666992188 763.666015625 250 766.333007812 268 767 c 2xe0
198.999023438 25.998046875 m 0
 207.666015625 32.6650390625 217.33203125 35.998046875 227.999023438 35.998046875 c 0
 232.666015625 35.998046875 237.666015625 34.998046875 242.999023438 32.998046875 c 0
 262.33203125 26.998046875 273.665039062 14.3310546875 276.998046875 -5.001953125 c 1
 285.665039062 -17.001953125 290.998046875 -30.001953125 292.998046875 -44.001953125 c 0
 293.665039062 -48.6689453125 293.998046875 -53.001953125 293.998046875 -57.001953125 c 0
 293.998046875 -79.6689453125 284.998046875 -99.001953125 266.998046875 -115.001953125 c 0
 257.665039062 -123.001953125 247.33203125 -128.668945312 235.999023438 -132.001953125 c 0
 226.666015625 -134.668945312 217.999023438 -136.001953125 209.999023438 -136.001953125 c 0
 185.999023438 -136.001953125 165.666015625 -124.334960938 148.999023438 -101.001953125 c 0
 138.33203125 -87.001953125 132.999023438 -71.3349609375 132.999023438 -54.001953125 c 0xc8
 132.999023438 -50.001953125 133.33203125 -45.6689453125 133.999023438 -41.001953125 c 0
 135.999023438 -27.6689453125 140.999023438 -15.6689453125 148.999023438 -5.001953125 c 0
 152.33203125 -0.3349609375 156.33203125 3.998046875 160.999023438 7.998046875 c 0
 166.33203125 12.6650390625 171.999023438 16.33203125 177.999023438 18.9990234375 c 0
 184.666015625 22.33203125 191.666015625 24.6650390625 198.999023438 25.998046875 c 0
EndSplineSet
Validated: 33
EndChar

StartChar: at
Encoding: 64 64 65
Width: 500
VWidth: 940
GlyphClass: 2
Flags: W
HStem: -9.20312 122.971<185.962 327.043> 128.956 347.031<193.86 343.284> 528.42 122.748<218.39 320.007>
VStem: 12.5254 220.471<241.014 357.43> 373.141 113.854<331.674 456.791>
LayerCount: 2
Fore
SplineSet
264.004882812 244 m 0
 264.004882812 254.142578125 259.487304688 284.643554688 259.487304688 299.389648438 c 0
 259.487304688 306.208984375 259.965820312 312.776367188 260.995117188 319.1171875 c 0
 260.876953125 332.3984375 258.767578125 351.90234375 257.44140625 362.903320312 c 1
 254.370117188 360.79296875 250.875 357.504882812 248.18359375 354.379882812 c 0
 243.284179688 343.986328125 239.540039062 332.104492188 237.098632812 318.541992188 c 0
 234.315429688 303.078125 232.99609375 289.19921875 232.99609375 276.998046875 c 0
 232.99609375 275.270507812 234.748046875 264.821289062 239.7109375 249.931640625 c 0
 241.068359375 245.858398438 242.422851562 242.619140625 243.479492188 240.369140625 c 0
 245.948242188 240.19140625 248.853515625 240.063476562 252.13671875 240.015625 c 0
 257.48046875 241.349609375 261.547851562 242.727539062 264.00390625 243.66796875 c 0
 264.00390625 243.7734375 264.004882812 243.883789062 264.004882812 244 c 0
256.047851562 128.956054688 m 0
 243.201171875 128.956054688 229.365234375 130.1171875 214.439453125 132.249023438 c 0
 213.8046875 132.33984375 213.172851562 132.455078125 212.544921875 132.594726562 c 0
 193.225585938 136.888671875 177.1875 149.836914062 166.288085938 164.7734375 c 0
 157.645507812 176.616210938 150.428710938 190.481445312 144.23046875 206.356445312 c 1
 145.36328125 201.3203125 146.600585938 196.280273438 147.942382812 191.234375 c 0
 155.333007812 169.430664062 167.318359375 151.799804688 183.356445312 137.900390625 c 0
 183.807617188 137.508789062 184.248046875 137.098632812 184.676757812 136.669921875 c 0
 193.557617188 127.7890625 207.625976562 119.916992188 228.420898438 114.653320312 c 0
 234.135742188 114.049804688 239.453125 113.767578125 244.385742188 113.767578125 c 0
 256.904296875 113.767578125 266.616210938 115.69140625 274.564453125 118.530273438 c 0
 293.381835938 125.250976562 314.03125 131.920898438 336.547851562 138.56640625 c 0
 347.283203125 143.043945312 357.817382812 145.98828125 368.999023438 145.98828125 c 0
 386.34375 145.98828125 404.024414062 139.530273438 415.435546875 126.317382812 c 0
 425.590820312 114.55859375 433.072265625 99.6025390625 433.072265625 82.1240234375 c 0
 433.072265625 67.8154296875 426.63671875 54.640625 417.110351562 45.1142578125 c 0
 406.267578125 34.271484375 392.3828125 27.26171875 375.844726562 21.4248046875 c 0
 346.857421875 11.193359375 323.725585938 3.2177734375 304.862304688 -1.3095703125 c 0
 282.946289062 -6.5693359375 263.655273438 -9.203125 240.21484375 -9.203125 c 0
 225.734375 -9.203125 210.584960938 -8.04296875 194.745117188 -5.79296875 c 0
 170.938476562 -2.9619140625 150.15625 2.9853515625 135.002929688 17.615234375 c 0
 118.861328125 28.52734375 104.974609375 39.662109375 93.322265625 51.314453125 c 0
 87.3623046875 57.275390625 82.0029296875 63.361328125 77.2763671875 69.6220703125 c 0
 57.0537109375 94.6552734375 40.974609375 128.944335938 27.1533203125 172.481445312 c 0
 17.2421875 204.072265625 12.525390625 239.643554688 12.525390625 279.2109375 c 0
 12.525390625 343.869140625 22.8740234375 397.086914062 44.9296875 448.641601562 c 0
 62.8798828125 492.771484375 85.1708984375 530.745117188 112.133789062 562.23828125 c 1
 137.799804688 599.419921875 174.891601562 626.583007812 220.73046875 642.590820312 c 0
 221.607421875 642.897460938 222.498046875 643.153320312 223.3984375 643.359375 c 0
 245.448242188 648.399414062 266.19921875 651.16796875 285.471679688 651.16796875 c 0
 309.447265625 651.16796875 331.134765625 646.883789062 350.185546875 637.358398438 c 0
 383.296875 620.803710938 408.966796875 593.853515625 428.36328125 561.98828125 c 0
 447.69140625 530.235351562 460.850585938 500.365234375 467.118164062 471.74609375 c 0
 479.064453125 436.776367188 485.595703125 398.391601562 486.98046875 356.836914062 c 0
 486.990234375 356.557617188 486.995117188 356.278320312 486.995117188 355.999023438 c 0
 486.995117188 355.400390625 486.973632812 354.801757812 486.930664062 354.205078125 c 0
 485.505859375 334.248046875 482.358398438 311.700195312 477.557617188 286.32421875 c 0
 477.364257812 285.302734375 477.107421875 284.291015625 476.786132812 283.295898438 c 0
 469.677734375 261.258789062 461.05859375 241.068359375 450.8203125 222.78515625 c 0
 437.841796875 199.608398438 417.302734375 183.259765625 392.555664062 171.0703125 c 0
 369.780273438 159.852539062 349.372070312 150.744140625 331.143554688 143.7265625 c 0
 321.84375 140.026367188 309.487304688 136.763671875 291.651367188 132.647460938 c 0
 280.697265625 130.119140625 268.864257812 128.956054688 256.047851562 128.956054688 c 0
271.998046875 475.987304688 m 0
 272.37890625 475.987304688 272.760742188 475.98046875 273.141601562 475.962890625 c 0
 290.4609375 475.17578125 304.599609375 473.599609375 316.637695312 470.510742188 c 0
 326.061523438 468.091796875 335.330078125 465.017578125 343.67578125 456.671875 c 0
 357.446289062 442.901367188 361.305664062 424.418945312 362.44921875 404.97265625 c 0
 364.494140625 370.20703125 366.400390625 364.543945312 369.581054688 331.322265625 c 1
 370.46875 337.354492188 371.65625 344.21875 373.140625 352.087890625 c 0
 373.3359375 355.657226562 373.43359375 359.2265625 373.43359375 362.796875 c 0
 373.43359375 387.326171875 368.521484375 411.388671875 359.48046875 436.500976562 c 0
 348.098632812 468.1171875 335.916992188 489.250976562 325.905273438 499.739257812 c 0
 325.282226562 500.391601562 324.701171875 501.069335938 324.163085938 501.76953125 c 0
 319.983398438 507.203125 316.104492188 511.647460938 312.698242188 515.053710938 c 0
 306.569335938 521.182617188 301.997070312 523.610351562 300.638671875 524.096679688 c 0
 290.626953125 526.96875 280.5390625 528.419921875 270.146484375 528.419921875 c 0
 263.483398438 528.419921875 256.6953125 527.823242188 249.72265625 526.622070312 c 0
 239.327148438 523.458007812 227.7421875 516.44921875 215.290039062 503.997070312 c 0
 210.598632812 499.305664062 205.979492188 493.505859375 200.920898438 487.65625 c 0
 185.99609375 470.3984375 170.82421875 443.80859375 156.583007812 407.966796875 c 1
 164.575195312 422.940429688 173.241210938 435.401367188 183.229492188 445.389648438 c 0
 192.079101562 454.239257812 202.264648438 461.264648438 214.173828125 464.897460938 c 0
 235.166992188 471.301757812 253.80078125 475.149414062 270.799804688 475.958984375 c 0
 271.19921875 475.977539062 271.598632812 475.987304688 271.998046875 475.987304688 c 0
EndSplineSet
Validated: 1
EndChar

StartChar: A
Encoding: 65 65 66
Width: 500
VWidth: 940
GlyphClass: 2
Flags: W
HStem: 195.791 131.314<209.61 286.845> 646.678 21G<285.525 287.582> 647.812 20G<235.686 242.405>
LayerCount: 2
Fore
SplineSet
286.844726562 327.10546875 m 1x80
 284.569335938 336.615234375 282.453125 346.26953125 280.493164062 356.068359375 c 0
 276.671875 375.174804688 271.234375 393.236328125 265.291015625 411.06640625 c 0
 259.84375 427.407226562 254.286132812 443.517578125 248.618164062 459.3984375 c 1
 236.321289062 415.432617188 222.471679688 369.041992188 209.610351562 324.9453125 c 1
 286.844726562 327.10546875 l 1x80
424.458984375 -16.111328125 m 0
 404.936523438 -16.111328125 387.708007812 -6.6337890625 376.915039062 4.1591796875 c 0
 370.485351562 10.5888671875 365.26953125 18.0498046875 360.901367188 26.2998046875 c 0
 359.48046875 28.982421875 358.58203125 31.8701171875 358.206054688 34.8125 c 0
 350.908203125 91.978515625 337.72265625 145.56640625 321.890625 195.791015625 c 1
 178.528320312 194.114257812 l 1
 164.193359375 143.874023438 151.15234375 92.0380859375 139.409179688 38.603515625 c 0
 139.146484375 37.4091796875 138.795898438 36.23046875 138.356445312 35.0771484375 c 0
 131.52734375 17.1494140625 119.831054688 1.3955078125 102.583984375 -6.6533203125 c 0
 93.4501953125 -10.916015625 83.4169921875 -13.3828125 73.2841796875 -13.3828125 c 0
 47.30859375 -13.3828125 30.3681640625 1.1533203125 20.119140625 18.0322265625 c 0
 13.4794921875 28.966796875 10.7470703125 41.263671875 10.7470703125 53.841796875 c 0
 10.7470703125 59.97265625 11.2763671875 66.6357421875 12.62890625 72.578125 c 0
 34.7822265625 169.918945312 61.61328125 269.184570312 93.126953125 370.432617188 c 2
 173.126953125 628.432617188 l 2
 175.041992188 634.608398438 179.588867188 639.474609375 183.774414062 643.66015625 c 0
 194.005859375 653.891601562 206.649414062 661.048828125 220.5859375 664.893554688 c 0
 226.508789062 666.895507812 232.637695312 667.8125 238.734375 667.8125 c 0xa0
 246.076171875 667.8125 253.37109375 666.483398438 260.203125 664.118164062 c 0
 271.26953125 660.288085938 281.372070312 654.983398438 289.677734375 646.677734375 c 1xc0
 287.58203125 647.544921875 l 1
 287.811523438 647.255859375 288.034179688 646.962890625 288.249023438 646.666992188 c 0
 319.423828125 603.715820312 342.666015625 560.779296875 357.611328125 517.723632812 c 0
 371.46484375 477.813476562 383.389648438 441.90625 393.393554688 409.9609375 c 0
 402.697265625 389.223632812 419.286132812 336.50390625 426.03125 312.897460938 c 2
 449.93359375 229.240234375 l 2
 466.927734375 175.584960938 480.661132812 119.552734375 487.828125 57.9072265625 c 0
 487.940429688 56.94140625 487.99609375 55.970703125 487.99609375 55 c 0
 487.99609375 20.6162109375 466.05078125 -9.21484375 435.750976562 -15.04296875 c 0
 431.994140625 -15.765625 428.215820312 -16.111328125 424.458984375 -16.111328125 c 0
EndSplineSet
Validated: 1
MultipleSubs2: "'ccmp' Glyphen-Zusammensetzung/Zerlegung in Lateinisch Nachschlagetabelle 0 Subtabelle" Tok.cartopen A_under Tok.cartend
EndChar

StartChar: B
Encoding: 66 66 67
Width: 500
VWidth: 940
GlyphClass: 2
Flags: W
HStem: -10.9941 131.478<164.997 294.059> 275.405 130.927<164.997 275.845> 536.005 132.991<166.289 293.675>
VStem: 35.6826 129.313<120.483 275.099 406.567 533.292> 314.004 131.993<439.231 515.198> 337.007 132.99<154.368 242.129>
LayerCount: 2
Fore
SplineSet
164.995117188 406.567382812 m 1xf8
 169.26953125 406.389648438 172.952148438 406.33203125 178.322265625 406.33203125 c 0
 186.841796875 406.33203125 197.678710938 406.536132812 210.634765625 406.963867188 c 0
 231.51171875 408.634765625 260.604492188 419.44140625 277.5390625 429.1796875 c 0
 288.540039062 435.505859375 297.630859375 443.026367188 305.461914062 452.20703125 c 0
 311.383789062 459.149414062 314.00390625 466.154296875 314.00390625 476 c 0
 314.00390625 492.159179688 307.680664062 501.137695312 299.623046875 509.1953125 c 0
 282.986328125 525.83203125 252.252929688 536.004882812 220 536.004882812 c 0
 202.6953125 536.004882812 184.379882812 533.724609375 164.995117188 528.99609375 c 1
 164.995117188 406.567382812 l 1xf8
201.041015625 275.405273438 m 0
 189.366210938 275.405273438 175.952148438 274.698242188 164.997070312 273.57421875 c 1
 164.997070312 120.483398438 l 1
 175.07421875 120.810546875 186.850585938 121.303710938 200.259765625 121.965820312 c 0
 249.915039062 124.416992188 291.954101562 134.703125 320.626953125 158.31640625 c 0
 330.995117188 166.854492188 337.006835938 178.33984375 337.006835938 198.000976562 c 0xf4
 337.006835938 213.3203125 330.806640625 227.903320312 322.03515625 236.674804688 c 0
 318.96484375 239.745117188 314.986328125 242.509765625 310.740234375 245.463867188 c 0
 297.732421875 254.512695312 283.573242188 261.11328125 267.892578125 265.389648438 c 0
 246.49609375 271.224609375 226.553710938 275.405273438 201.041015625 275.405273438 c 0
29.0068359375 56.0009765625 m 0
 29.0068359375 63.6689453125 30.599609375 70.67578125 33.017578125 77.5810546875 c 0
 33.38671875 258.232421875 33.8564453125 389.703125 34.4287109375 472.064453125 c 0
 34.76171875 520.012695312 34.5283203125 540.19921875 35.6826171875 570.799804688 c 0
 35.697265625 571.200195312 35.703125 571.555664062 35.703125 571.877929688 c 0
 35.703125 572.97265625 35.6357421875 573.688476562 35.6357421875 574.48828125 c 0
 35.6357421875 575.681640625 35.78515625 577.061523438 36.5283203125 580.162109375 c 0
 39.8359375 598.356445312 50.5712890625 614.479492188 64.015625 626.293945312 c 0
 78.69921875 639.198242188 97.5771484375 648.456054688 120.30078125 655.786132812 c 0
 145.193359375 663.81640625 179.0703125 667.616210938 224.241210938 668.984375 c 0
 224.495117188 668.9921875 224.749023438 668.99609375 225.002929688 668.99609375 c 0
 297.530273438 668.99609375 354.654296875 639.939453125 392.012695312 602.581054688 c 0
 408.051757812 586.541992188 420.862304688 568.70703125 430.095703125 549.21484375 c 0
 440.3828125 527.497070312 445.997070312 505.252929688 445.997070312 483.000976562 c 0xf8
 445.997070312 453.28515625 438.22265625 424.415039062 423.418945312 397.46484375 c 0
 414.3203125 380.901367188 402.97265625 365.682617188 389.50390625 351.92578125 c 1
 410.555664062 337.321289062 428.791992188 319.272460938 442.228515625 297.716796875 c 0
 460.380859375 268.596679688 469.997070312 236.915039062 469.997070312 204.000976562 c 0
 469.997070312 154.971679688 450.34765625 115.020507812 427.4140625 84.880859375 c 0
 401.67578125 51.0556640625 365.133789062 23.0390625 320.59375 9.1796875 c 0
 269.026367188 -7.521484375 219.16015625 -10.994140625 152.000976562 -10.994140625 c 2
 124.500976562 -10.994140625 l 2
 114.879882812 -10.994140625 105.114257812 -10.6376953125 95.20703125 -9.9296875 c 0
 95.0458984375 -9.91796875 94.884765625 -9.890625 94.7236328125 -9.890625 c 0
 75.7001953125 -8.162109375 57.3134765625 -0.8115234375 45.3427734375 13.4384765625 c 0
 35.3818359375 25.296875 29.0068359375 40.056640625 29.0068359375 56.0009765625 c 0
EndSplineSet
Validated: 1
MultipleSubs2: "'ccmp' Glyphen-Zusammensetzung/Zerlegung in Lateinisch Nachschlagetabelle 0 Subtabelle" Tok.cartopen B_under Tok.cartend
EndChar

StartChar: C
Encoding: 67 67 68
Width: 500
VWidth: 940
GlyphClass: 2
Flags: W
HStem: -18.9941 130.735<209.047 304.154> 524.006 130.99<265.318 361.834>
VStem: 20.002 131.993<183.608 377.483>
LayerCount: 2
Fore
SplineSet
417 226.995117188 m 0
 433.733398438 226.995117188 449.7890625 220.565429688 461.67578125 208.678710938 c 0
 473.875976562 196.478515625 479.994140625 179.97265625 479.994140625 163.000976562 c 0
 479.994140625 152.3828125 477.329101562 142.41015625 473.327148438 132.00390625 c 0
 472.704101562 130.384765625 471.907226562 128.817382812 470.935546875 127.331054688 c 0
 446.479492188 89.927734375 417.665039062 53.888671875 381.850585938 27.3876953125 c 0
 347.390625 1.888671875 303.900390625 -18.994140625 246.997070312 -18.994140625 c 0
 208.465820312 -18.994140625 176.336914062 -12.6767578125 153.250976562 6.0810546875 c 0
 131.397460938 23.8369140625 113.487304688 43.37890625 93.482421875 66.7685546875 c 0
 49.6953125 117.96484375 20.001953125 192.223632812 20.001953125 283.001953125 c 0
 20.001953125 313.196289062 23.9169921875 341.56640625 32.044921875 368.16796875 c 0
 51.7177734375 434.21484375 75.3251953125 479.95703125 111.081054688 530.435546875 c 0
 128.662109375 555.254882812 149.911132812 577.021484375 175.34765625 592.768554688 c 0
 196.61328125 605.932617188 214.775390625 616.635742188 230.026367188 624.954101562 c 0
 230.685546875 625.313476562 231.357421875 625.641601562 232.040039062 625.9375 c 0
 252.903320312 634.978515625 272.456054688 642.052734375 290.848632812 647.1015625 c 0
 309.69140625 652.274414062 328.1015625 654.99609375 345.99609375 654.99609375 c 0
 374.249023438 654.99609375 400.768554688 646.603515625 423.508789062 630.361328125 c 0
 429.569335938 626.033203125 435.359375 621.05859375 440.92578125 615.4921875 c 0
 456.91015625 599.5078125 470.999023438 578.846679688 484.172851562 553.553710938 c 0
 488.28125 545.666992188 489.9921875 533.6796875 489.9921875 524.001953125 c 0
 489.9921875 506.7578125 484.174804688 489.82421875 471.674804688 477.32421875 c 0
 459.788085938 465.4375 443.73046875 459.006835938 426.997070312 459.006835938 c 0
 406.766601562 459.006835938 388.541015625 468.102539062 374.319335938 482.32421875 c 0
 372.458007812 484.185546875 370.951171875 486.268554688 369.799804688 488.489257812 c 0
 361.05859375 505.346679688 353.29296875 516.349609375 349.319335938 520.323242188 c 0
 345.874023438 523.768554688 344.288085938 524.005859375 341.997070312 524.005859375 c 0
 322.155273438 524.005859375 304.368164062 519.959960938 284.904296875 512.995117188 c 0
 261.397460938 501.118164062 243.764648438 488.774414062 231.8828125 476.892578125 c 0
 230.236328125 475.24609375 228.6953125 473.606445312 227.256835938 471.9765625 c 0
 213.336914062 456.200195312 201.909179688 440.155273438 192.856445312 423.861328125 c 0
 184.259765625 408.38671875 175.56640625 386.041992188 167.577148438 357.28125 c 0
 159.732421875 329.038085938 154.556640625 301.251953125 151.995117188 273.875976562 c 0
 152.244140625 227.080078125 168.381835938 185.831054688 189.557617188 157.42578125 c 0
 202.71875 139.771484375 212.973632812 127.557617188 222.87890625 117.971679688 c 0
 226.57421875 114.395507812 231.571289062 111.741210938 241.372070312 111.741210938 c 0
 242.7890625 111.741210938 244.306640625 111.796875 245.935546875 111.913085938 c 0
 272.89453125 114.40625 294.731445312 123.98828125 311.473632812 138.760742188 c 0
 331.248046875 156.208984375 348.885742188 179.4921875 362.657226562 202.028320312 c 0
 364.104492188 204.396484375 366.077148438 206.651367188 368.25390625 208.419921875 c 0
 382.244140625 219.787109375 398.947265625 226.995117188 417 226.995117188 c 0
EndSplineSet
Validated: 1
MultipleSubs2: "'ccmp' Glyphen-Zusammensetzung/Zerlegung in Lateinisch Nachschlagetabelle 0 Subtabelle" Tok.cartopen C_under Tok.cartend
EndChar

StartChar: D
Encoding: 68 68 69
Width: 500
VWidth: 940
GlyphClass: 2
Flags: W
HStem: 510.267 131.477<160.199 253.972>
VStem: 26.0059 131.99<114.583 510.265> 343.005 132.16<231.108 414.83>
LayerCount: 2
Fore
SplineSet
180.384765625 510.266601562 m 0
 168.151367188 510.266601562 166.904296875 508.631835938 157.99609375 506.557617188 c 1
 157.99609375 114.583007812 l 1
 195.985351562 118.870117188 210.83984375 120.270507812 242.296875 140.915039062 c 0
 258.086914062 151.27734375 270.102539062 160.814453125 278.114257812 168.826171875 c 0
 280.653320312 171.365234375 282.48046875 173.606445312 284.538085938 175.857421875 c 0
 317.640625 212.063476562 343.004882812 264.21875 343.004882812 328 c 0
 343.004882812 381.563476562 321.759765625 423.884765625 292.822265625 452.822265625 c 0
 274.356445312 471.288085938 258.532226562 485.447265625 245.868164062 495.096679688 c 0
 237.227539062 501.6796875 222.184570312 507.30078125 199.069335938 509.079101562 c 0
 198.750976562 509.079101562 198.432617188 509.133789062 198.115234375 509.170898438 c 0
 191.063476562 509.984375 185.079101562 510.266601562 180.384765625 510.266601562 c 0
183.181640625 641.743164062 m 0
 189.930664062 641.743164062 196.715820312 641.484375 203.522460938 640.958984375 c 0
 252.669921875 638.84375 290.987304688 630.825195312 317.771484375 611.182617188 c 0
 343.29296875 592.466796875 367.44921875 567.134765625 389.547851562 541.205078125 c 0
 416.021484375 510.142578125 437.202148438 476.731445312 452.884765625 441.090820312 c 0
 467.854492188 407.0703125 475.165039062 369.521484375 475.165039062 329.184570312 c 0
 475.165039062 279.845703125 468.520507812 237.4296875 451.348632812 192.548828125 c 0
 424.23046875 121.672851562 369.536132812 63.1865234375 303.423828125 29.259765625 c 0
 275.6875 15.0263671875 243.862304688 4.3935546875 208.073242188 -2.974609375 c 0
 178.765625 -9.0087890625 159.883789062 -13.4228515625 156.108398438 -14.58984375 c 0
 149.09375 -17.666015625 145.296875 -17.6953125 138.3046875 -18.736328125 c 0
 129.655273438 -20.0234375 117.870117188 -21.3681640625 102.447265625 -22.873046875 c 0
 101.634765625 -22.9521484375 100.818359375 -22.9921875 100.001953125 -22.9921875 c 0
 98.890625 -22.9921875 97.779296875 -22.9189453125 96.67578125 -22.771484375 c 0
 70.662109375 -19.3037109375 47.8486328125 -5.603515625 37.638671875 14.8154296875 c 0
 34.5859375 20.921875 32.0283203125 27.013671875 29.51171875 33.9375 c 0
 27.357421875 39.86328125 26.005859375 46.23828125 26.005859375 52.9521484375 c 2
 25.005859375 549.952148438 l 2
 25.005859375 551.192382812 25.08984375 552.381835938 25.2587890625 553.561523438 c 0
 28.3212890625 575 41.2890625 593.537109375 57.2763671875 605.834960938 c 0
 85.18359375 627.301757812 133.899414062 641.743164062 183.181640625 641.743164062 c 0
EndSplineSet
Validated: 1
MultipleSubs2: "'ccmp' Glyphen-Zusammensetzung/Zerlegung in Lateinisch Nachschlagetabelle 0 Subtabelle" Tok.cartopen D_under Tok.cartend
EndChar

StartChar: E
Encoding: 69 69 70
Width: 500
VWidth: 940
GlyphClass: 2
Flags: W
HStem: -4.62109 126.612<177.54 404.689> -3.08691 137.181<234.619 445.965> 245.202 131.902<178.129 366.322> 512.755 128.574<179.706 454.574>
VStem: 45.0039 133.125<123.043 245.345 377.294 511.399>
LayerCount: 2
Fore
SplineSet
316.790039062 512.754882812 m 0xb8
 299.62109375 512.754882812 281.666992188 513.145507812 264.323242188 513.145507812 c 0
 234.973632812 513.145507812 206.48828125 512.108398438 178.866210938 510.04296875 c 1
 178.12890625 377.293945312 l 1
 185.1875 377.16796875 192.252929688 377.104492188 199.326171875 377.104492188 c 0
 255.783203125 377.104492188 307.322265625 380.853515625 360.634765625 385.8828125 c 0
 362.467773438 386.055664062 364.49609375 386.072265625 366.412109375 386.072265625 c 0
 383.786132812 386.072265625 400.759765625 381.432617188 414 369.78125 c 0
 425.462890625 359.694335938 434.452148438 345.588867188 436.7421875 329.556640625 c 0
 437.130859375 326.837890625 437.317382812 324.12890625 437.317382812 321.442382812 c 0
 437.317382812 303.973632812 428.70703125 286.587890625 418.104492188 275.985351562 c 0
 407.353515625 265.234375 393.575195312 259.037109375 378.569335938 255.626953125 c 0
 377.483398438 255.379882812 376.383789062 255.206054688 375.279296875 255.10546875 c 0
 317.060546875 249.813476562 258.5078125 245.202148438 196.44140625 245.202148438 c 0
 190.228515625 245.202148438 184.029296875 245.25 177.84375 245.344726562 c 1
 177.126953125 124.970703125 l 1
 195.713867188 122.987304688 214.6640625 121.991210938 233.990234375 121.991210938 c 0xb8
 247.393554688 121.991210938 260.978515625 122.470703125 274.748046875 123.431640625 c 0
 317.513671875 126.415039062 358.763671875 129.89453125 398.495117188 133.868164062 c 0
 398.887695312 133.907226562 399.28125 133.958007812 399.67578125 133.958007812 c 0
 401.375976562 134.047851562 403.07421875 134.09375 404.768554688 134.09375 c 0
 419.658203125 134.09375 434.225585938 130.5625 446.543945312 122.184570312 c 0
 461.935546875 111.717773438 474.797851562 95.3623046875 474.797851562 70.798828125 c 0
 474.797851562 40.1923828125 456.546875 21.134765625 436.671875 9.4423828125 c 0
 434.78515625 8.33203125 432.783203125 7.4912109375 430.721679688 6.9189453125 c 0
 406.435546875 0.1728515625 380.2578125 -3.0869140625 352.348632812 -3.0869140625 c 0x78
 338.220703125 -3.0869140625 323.934570312 -2.595703125 309.94140625 -2.595703125 c 0
 272.149414062 -2.595703125 234.194335938 -4.62109375 196.83984375 -4.62109375 c 0
 158.379882812 -4.62109375 126.359375 -2.384765625 93.060546875 5.71484375 c 0
 91.259765625 6.1533203125 89.498046875 6.7939453125 87.8125 7.63671875 c 0
 74.283203125 14.400390625 62.3818359375 23.7802734375 54.634765625 36.5078125 c 0
 48.716796875 46.2294921875 44.884765625 57.5107421875 44.884765625 69.353515625 c 0
 44.884765625 70.5517578125 45.00390625 71.7529296875 45.00390625 72.9990234375 c 2
 45.00390625 523.616210938 l 1
 40.7451171875 535.741210938 37.7666015625 546.872070312 36.2568359375 557.44140625 c 0
 35.666015625 561.577148438 35.337890625 565.743164062 35.337890625 569.897460938 c 0
 35.337890625 592.8125 45.5830078125 608.575195312 57.404296875 621.709960938 c 0
 61.0380859375 625.747070312 66.05078125 628.528320312 71.1845703125 629.530273438 c 0
 115.772460938 638.229492188 154.560546875 642.794921875 204.594726562 642.794921875 c 0
 224.943359375 642.794921875 247.216796875 641.329101562 267.65625 641.329101562 c 0
 305.08203125 641.329101562 336.354492188 646.662109375 373.439453125 646.662109375 c 0
 382.534179688 646.662109375 391.75390625 646.447265625 401.09765625 646.018554688 c 0
 402.204101562 646.055664062 403.309570312 646.07421875 404.413085938 646.07421875 c 0
 421.787109375 646.07421875 438.760742188 641.434570312 452.000976562 629.783203125 c 0
 463.463867188 619.696289062 472.453125 605.590820312 474.743164062 589.55859375 c 0
 475.131835938 586.83984375 475.318359375 584.130859375 475.318359375 581.444335938 c 0
 475.318359375 563.975585938 466.708007812 546.58984375 456.10546875 535.987304688 c 0
 445.354492188 525.236328125 431.576171875 519.0390625 416.5703125 515.62890625 c 0
 415.149414062 515.305664062 413.706054688 515.108398438 412.2578125 515.036132812 c 0
 381.803710938 513.513671875 349.983398438 512.754882812 316.790039062 512.754882812 c 0xb8
EndSplineSet
Validated: 1
MultipleSubs2: "'ccmp' Glyphen-Zusammensetzung/Zerlegung in Lateinisch Nachschlagetabelle 0 Subtabelle" Tok.cartopen E_under Tok.cartend
EndChar

StartChar: F
Encoding: 70 70 71
Width: 500
VWidth: 940
GlyphClass: 2
Flags: W
HStem: 263.005 138.99<166.961 432.367> 263.005 129.166<164.141 387.973> 502.679 130.797<161.633 324.632> 506.476 138.52<162.734 449.374>
VStem: 32.0049 131.989<-4.0077 261.668 392.171 502.679>
LayerCount: 2
Fore
SplineSet
164.995117188 438 m 0x28
 164.995117188 421.584960938 164.428710938 407.452148438 164.140625 392.170898438 c 1x68
 223.479492188 392.96875 336.546875 398.544921875 386.287109375 401.936523438 c 0
 386.857421875 401.975585938 387.428710938 401.995117188 388 401.995117188 c 0
 409.456054688 401.995117188 430.185546875 395.379882812 444.270507812 381.294921875 c 0
 455.787109375 369.778320312 461.994140625 354.170898438 461.994140625 338 c 0
 461.994140625 321.606445312 455.645507812 305.859375 444.0078125 294.221679688 c 0
 421.826171875 272.040039062 381.83984375 263.004882812 339.999023438 263.004882812 c 2
 253.999023438 263.004882812 l 2
 229.6953125 263.004882812 199.66796875 262.560546875 163.994140625 261.66796875 c 1
 163.994140625 47.0009765625 l 2
 163.994140625 46.6357421875 163.970703125 46.2705078125 163.970703125 45.90625 c 0
 163.1171875 26.2919921875 156.686523438 7.22265625 142.415039062 -5.908203125 c 0
 130.34375 -17.0146484375 114.814453125 -23.994140625 97.9990234375 -23.994140625 c 0
 80.6572265625 -23.994140625 64.0126953125 -15.978515625 52.61328125 -4.5791015625 c 0
 40.4833984375 7.55078125 34.5615234375 23.5400390625 32.2353515625 40.599609375 c 0
 32.08203125 41.7275390625 32.0048828125 42.8642578125 32.0048828125 44.0009765625 c 2
 32.0048828125 374.000976562 l 2
 32.0048828125 393.67578125 33.0048828125 416.297851562 33.0048828125 438.000976562 c 0
 33.0048828125 456.465820312 32.0498046875 474.203125 30.1591796875 491.220703125 c 0
 28.4609375 506.50390625 24.6015625 516.717773438 20.3837890625 522.853515625 c 0
 19.447265625 524.215820312 18.6611328125 525.650390625 18.025390625 527.134765625 c 0
 13.1220703125 538.576171875 10.005859375 550.076171875 10.005859375 562.000976562 c 0
 10.005859375 578.556640625 15.708984375 594.883789062 27.751953125 606.926757812 c 0
 36.3125 615.487304688 46.849609375 621.09375 58.2978515625 624.787109375 c 0
 59.5029296875 625.17578125 60.732421875 625.470703125 61.9736328125 625.671875 c 0
 87.63671875 629.833007812 113.484375 632.435546875 139.494140625 633.475585938 c 0xa8
 191.063476562 635.538085938 269.942382812 637.459960938 327.337890625 638.986328125 c 0
 351.782226562 639.629882812 375.874023438 641.55859375 399.629882812 644.768554688 c 0
 400.748046875 644.919921875 401.874023438 644.995117188 403 644.995117188 c 0
 424.338867188 644.995117188 444.890625 639.086914062 459.123046875 624.854492188 c 0
 470.801757812 613.17578125 476.995117188 597.357421875 476.995117188 581 c 0
 476.995117188 563.572265625 469.071289062 546.48046875 457.795898438 535.205078125 c 0
 447.256835938 524.666015625 433.825195312 518.436523438 419.092773438 514.75390625 c 0
 418.162109375 514.521484375 417.219726562 514.342773438 416.272460938 514.21875 c 0
 376.923828125 509.05859375 337.546875 506.475585938 298.16796875 506.475585938 c 0x18
 292.537109375 506.475585938 287.165039062 506.54296875 281.456054688 506.54296875 c 0
 249.12890625 506.54296875 209.12890625 505.262695312 161.6328125 502.678710938 c 1
 164.213867188 482.72265625 164.995117188 459.393554688 164.995117188 438 c 0x28
EndSplineSet
Validated: 1
MultipleSubs2: "'ccmp' Glyphen-Zusammensetzung/Zerlegung in Lateinisch Nachschlagetabelle 0 Subtabelle" Tok.cartopen F_under Tok.cartend
EndChar

StartChar: G
Encoding: 71 71 72
Width: 500
VWidth: 940
GlyphClass: 2
Flags: W
HStem: -20.7627 135.603<205.363 305.287> 245.005 131.99<188.37 320.006> 529.004 129.99<229.871 363.159>
VStem: 17.0078 130.285<197.041 442.183> 167.006 315.992<269.103 357.694> 320.006 131.992<131.723 247.258>
LayerCount: 2
Fore
SplineSet
238 376.995117188 m 0xf8
 297.977539062 376.995117188 361.258789062 380.990234375 421.002929688 380.990234375 c 0
 423.15234375 380.990234375 425.301757812 380.71484375 427.393554688 380.1640625 c 0
 443.657226562 375.884765625 458.71484375 367.65234375 468.708007812 354.8828125 c 0
 477.536132812 343.602539062 482.998046875 329.720703125 482.998046875 314.994140625 c 0xf8
 482.998046875 290.989257812 468.143554688 271.411132812 451.998046875 260.864257812 c 1
 451.998046875 125.995117188 l 2
 451.998046875 105.557617188 444.645507812 86.2763671875 430.482421875 71.6259765625 c 0
 420.727539062 61.53515625 411.462890625 52.1015625 402.680664062 43.318359375 c 0
 378.31640625 18.9541015625 348.307617188 1.2529296875 313.6328125 -9.8134765625 c 0
 290.923828125 -17.0615234375 268.086914062 -20.7626953125 245.443359375 -20.7626953125 c 0
 233.424804688 -20.7626953125 221.4609375 -19.7197265625 209.600585938 -17.611328125 c 0
 208.455078125 -17.4072265625 207.3203125 -17.123046875 206.20703125 -16.7587890625 c 0
 167.166992188 -3.99609375 139.265625 9.76953125 118.514648438 30.5205078125 c 0
 102.000976562 47.0341796875 86.076171875 69.5419921875 69.3486328125 98.4931640625 c 0
 50.9169921875 130.39453125 37.888671875 162.772460938 30.60546875 195.543945312 c 0
 23.5263671875 227.396484375 19.087890625 264.390625 17.037109375 306.779296875 c 0
 17.017578125 307.184570312 17.0078125 307.590820312 17.0078125 307.997070312 c 0
 17.0078125 331.158203125 17.689453125 354 19.0537109375 376.520507812 c 0
 20.5654296875 401.46875 26.5234375 427.736328125 36.478515625 455.469726562 c 0
 46.076171875 482.20703125 56.4052734375 507.01953125 67.5068359375 529.916015625 c 0
 80.1767578125 556.046875 100.802734375 579.313476562 123.872070312 597.134765625 c 0
 137.581054688 609.705078125 155.98046875 620.705078125 179.706054688 632.052734375 c 0
 206.061523438 644.657226562 238.866210938 653.186523438 278.504882812 658.75 c 0
 279.6640625 658.913085938 280.833007812 658.994140625 282.001953125 658.994140625 c 0
 313.653320312 658.994140625 351.177734375 651.961914062 377.434570312 643.209960938 c 0
 410.932617188 632.043945312 448.997070312 609.471679688 448.997070312 567 c 0
 448.997070312 550.266601562 442.56640625 534.208984375 430.6796875 522.322265625 c 0
 418.479492188 510.122070312 401.973632812 504.00390625 385.001953125 504.00390625 c 0
 375.282226562 504.00390625 365.814453125 506.040039062 356.069335938 509.2890625 c 0
 338.682617188 515.084960938 322.138671875 520.854492188 303.82421875 525.907226562 c 0
 296.142578125 528.026367188 288.931640625 529.00390625 282.002929688 529.00390625 c 0
 279.546875 529.00390625 275.0625 528.29296875 268.807617188 525.791015625 c 0
 261.07421875 522.698242188 254.209960938 520.114257812 248.08984375 518.017578125 c 0
 226.9140625 506.37890625 209.608398438 494.374023438 196.146484375 482.344726562 c 0
 183.287109375 470.853515625 172.163085938 452.599609375 160.79296875 423.404296875 c 0
 152.0859375 401.047851562 147.29296875 372.500976562 147.29296875 337.624023438 c 0
 147.29296875 295.272460938 153.770507812 242.715820312 159.545898438 222.349609375 c 0
 165.048828125 202.942382812 175.111328125 181.150390625 190.150390625 157.33984375 c 0
 198.852539062 143.560546875 206.682617188 133.506835938 212.637695312 127.551757812 c 0
 216.899414062 123.290039062 220.075195312 121.329101562 221.108398438 120.870117188 c 0
 230.185546875 116.865234375 238.927734375 114.83984375 247.92578125 114.83984375 c 0
 255.78515625 114.83984375 263.83984375 116.385742188 272.484375 119.5078125 c 0
 289.984375 125.827148438 305.717773438 135.154296875 320.005859375 147.790039062 c 1
 320.005859375 247.2578125 l 1xf4
 285.05078125 246.091796875 278.227539062 245.004882812 235.001953125 245.004882812 c 0
 233.865234375 245.004882812 232.728515625 245.08203125 231.600585938 245.235351562 c 0
 213.119140625 247.755859375 195.594726562 254.926757812 183.671875 268.553710938 c 0
 173.461914062 280.221679688 167.005859375 295.032226562 167.005859375 311 c 0
 167.005859375 329.104492188 175.9453125 346.459960938 187.736328125 358.250976562 c 0
 201.188476562 371.703125 219.470703125 376.995117188 238 376.995117188 c 0xf8
EndSplineSet
Validated: 1
MultipleSubs2: "'ccmp' Glyphen-Zusammensetzung/Zerlegung in Lateinisch Nachschlagetabelle 0 Subtabelle" Tok.cartopen G_under Tok.cartend
EndChar

StartChar: H
Encoding: 72 72 73
Width: 500
VWidth: 940
GlyphClass: 2
Flags: W
HStem: 636.993 20G<83.5146 117.277 399.272 426.312>
VStem: 28.0049 136.99<4.13431 230.982 371.618 636.056> 336.006 138.988<3.13431 252.637 388.63 635.186>
LayerCount: 2
Fore
SplineSet
28.0048828125 577 m 2
 28.0048828125 627.826171875 58.029296875 656.993164062 109 656.993164062 c 0
 125.553710938 656.993164062 140.833984375 648.459960938 150.366210938 636.810546875 c 0
 161.831054688 622.798828125 164.995117188 605.217773438 164.995117188 586.998046875 c 2
 164.995117188 371.618164062 l 1
 335.112304688 388.629882812 l 1
 336.004882812 576.998046875 l 2
 336.004882812 590.965820312 338.170898438 604.254882812 344.137695312 616.1875 c 0
 356.907226562 641.723632812 380.545898438 656.993164062 417.999023438 656.993164062 c 0
 434.625976562 656.993164062 450.515625 648.848632812 460.365234375 636.811523438 c 0
 471.830078125 622.799804688 474.994140625 605.21875 474.994140625 586.999023438 c 2
 474.994140625 58.9990234375 l 2
 474.994140625 37.8291015625 470.760742188 17.3349609375 455.857421875 2.431640625 c 0
 442.926757812 -10.5 421.077148438 -18.99609375 401 -18.99609375 c 0
 383.15234375 -18.99609375 367.150390625 -10.4677734375 355.47265625 1.6787109375 c 0
 340.864257812 16.873046875 336.005859375 37.359375 336.005859375 58.88671875 c 2
 335.1328125 252.63671875 l 1
 164.995117188 230.982421875 l 1
 164.995117188 59.9990234375 l 2
 164.995117188 38.8291015625 160.76171875 18.3349609375 145.858398438 3.431640625 c 0
 133.159179688 -9.267578125 111.678710938 -17.9951171875 92 -17.9951171875 c 0
 74.08203125 -17.9951171875 57.9228515625 -9.1923828125 46.6181640625 3.0546875 c 0
 32.5498046875 18.2958984375 28.0048828125 38.64453125 28.0048828125 60 c 2
 28.0048828125 577 l 2
EndSplineSet
Validated: 1
MultipleSubs2: "'ccmp' Glyphen-Zusammensetzung/Zerlegung in Lateinisch Nachschlagetabelle 0 Subtabelle" Tok.cartopen H_under Tok.cartend
EndChar

StartChar: I
Encoding: 73 73 74
Width: 500
VWidth: 940
GlyphClass: 2
Flags: W
HStem: -4.76172 131.758<44.9841 183.007 315 455.605> 512.005 131.007<41.9855 90.8564 90.8994 183.007 315 451.732>
VStem: 183.007 131.993<126.812 512.795>
LayerCount: 2
Fore
SplineSet
233.982421875 642.708984375 m 0
 280.034179688 642.708984375 336.939453125 647.668945312 380.493164062 647.668945312 c 0
 392.038085938 647.668945312 402.918945312 647.438476562 413.1484375 646.973632812 c 0
 415.31640625 646.875 417.473632812 646.49609375 419.561523438 645.836914062 c 0
 435.674804688 640.749023438 450.303710938 631.944335938 460.022460938 618.986328125 c 0
 468.19140625 608.09375 473.524414062 594.883789062 473.524414062 580.7421875 c 0
 473.524414062 562.654296875 464.99609375 547.004882812 453.790039062 535.798828125 c 0
 443.004882812 525.013671875 429.15625 518.701171875 414.184570312 515.548828125 c 0
 412.6171875 515.21875 411.0234375 515.040039062 409.427734375 515.013671875 c 2
 315 513.426757812 l 1
 315 125 l 1
 344.504882812 125 l 2
 371.873046875 125 390.403320312 125.377929688 398.209960938 125.935546875 c 0
 398.426757812 125.951171875 398.643554688 125.973632812 398.860351562 125.973632812 c 0
 400.380859375 126.04296875 401.900390625 126.078125 403.416992188 126.078125 c 0
 420.791015625 126.078125 437.764648438 121.438476562 451.004882812 109.787109375 c 0
 462.467773438 99.7001953125 471.45703125 85.5947265625 473.747070312 69.5625 c 0
 474.135742188 66.84375 474.322265625 64.134765625 474.322265625 61.4482421875 c 0
 474.322265625 43.9794921875 465.711914062 26.59375 455.109375 15.9912109375 c 0
 444.358398438 5.240234375 430.580078125 -0.95703125 415.57421875 -4.3671875 c 0
 414.05859375 -4.7119140625 412.517578125 -4.9140625 410.971679688 -4.9736328125 c 0
 387.442382812 -5.8779296875 359.90234375 -6.326171875 328.282226562 -6.326171875 c 0
 312.444335938 -6.326171875 295.583007812 -6.2138671875 277.689453125 -5.990234375 c 0
 224.495117188 -5.3251953125 162.591796875 -4.9921875 92.00390625 -4.9921875 c 0
 90.8671875 -4.9921875 89.73046875 -4.9150390625 88.6025390625 -4.76171875 c 0
 69.8642578125 -2.20703125 52.0986328125 5.4462890625 40.34375 19.439453125 c 0
 30.5458984375 31.1025390625 24.486328125 45.7294921875 24.486328125 61.3017578125 c 0
 24.486328125 79.5634765625 32.466796875 95.3330078125 44.3642578125 107.23046875 c 0
 57.5029296875 120.369140625 76.0595703125 126.99609375 95.001953125 126.99609375 c 2
 151.501953125 126.99609375 l 2
 163.685546875 126.99609375 174.143554688 126.939453125 183.006835938 126.8125 c 1
 183.006835938 512.794921875 l 1
 89.001953125 512.004882812 l 2
 87.865234375 512.004882812 86.728515625 512.083007812 85.6005859375 512.236328125 c 0
 66.8623046875 514.791015625 49.0966796875 522.444335938 37.341796875 536.4375 c 0
 27.5439453125 548.100585938 21.484375 562.727539062 21.484375 578.299804688 c 0
 21.484375 596.561523438 29.46484375 612.331054688 41.3623046875 624.228515625 c 0
 54.5849609375 637.451171875 72.3974609375 643.12890625 90.8564453125 643.96875 c 1
 90.8994140625 643.01171875 l 1
 104.790039062 643.015625 135.727539062 643.3125 181.627929688 643.9921875 c 0
 181.751953125 643.994140625 181.875976562 643.995117188 182 643.995117188 c 0
 182.418945312 643.995117188 182.837890625 643.984375 183.256835938 643.963867188 c 0
 199.973632812 643.127929688 216.881835938 642.708984375 233.982421875 642.708984375 c 0
EndSplineSet
Validated: 1
MultipleSubs2: "'ccmp' Glyphen-Zusammensetzung/Zerlegung in Lateinisch Nachschlagetabelle 0 Subtabelle" Tok.cartopen I_under Tok.cartend
EndChar

StartChar: J
Encoding: 74 74 75
Width: 500
VWidth: 940
GlyphClass: 2
Flags: W
HStem: -34.9951 127.897<155.542 235.086> 515.005 131.984<139.391 267.895 399.069 500.946>
VStem: 272.006 127.994<129.583 513.24>
LayerCount: 2
Fore
SplineSet
520.067382812 583.159179688 m 0
 520.067382812 564.63671875 513.376953125 548.955078125 501.474609375 537.052734375 c 0
 490.241210938 525.819335938 475.70703125 519.646484375 459.938476562 516.4921875 c 0
 458.770507812 516.258789062 457.588867188 516.109375 456.403320312 516.043945312 c 0
 443.810546875 515.34375 429.704101562 515.004882812 414.004882812 515.004882812 c 2
 399.069335938 515.004882812 l 1
 400 180 l 2
 400 138.583984375 389.90234375 100.706054688 369.271484375 67.8486328125 c 0
 340.37109375 21.166015625 292.956054688 -12.001953125 233.9453125 -27.6572265625 c 0
 215.575195312 -32.5302734375 196.858398438 -34.9951171875 178.004882812 -34.9951171875 c 0
 152.684570312 -34.9951171875 130.352539062 -30.96484375 112.06640625 -19.896484375 c 0
 95.1884765625 -9.6806640625 78.2685546875 7.083984375 64.5419921875 23.12109375 c 0
 60.41796875 27.388671875 57.0986328125 31.9853515625 51.7314453125 39.365234375 c 0
 40.6298828125 54.7119140625 27.82421875 71.99609375 17.9013671875 87.587890625 c 0
 14.1787109375 93.4365234375 11.83984375 96.908203125 9.50390625 102.461914062 c 0
 1.60546875 114.084960938 -2.9912109375 127.71875 -2.9912109375 142 c 0
 -2.9912109375 158.944335938 3.5712890625 175.4375 15.4306640625 187.296875 c 0
 27.369140625 199.235351562 43.556640625 204.995117188 60.00390625 204.995117188 c 0
 76.66015625 204.995117188 92.37890625 198.99609375 105.768554688 189.176757812 c 0
 106.786132812 188.430664062 107.759765625 187.59765625 108.6796875 186.677734375 c 0
 125.331054688 170.026367188 137.481445312 148.127929688 147.700195312 125.989257812 c 0
 148.59765625 124.044921875 151.811523438 118.322265625 156.78125 110.485351562 c 0
 161.413085938 105.861328125 168.818359375 100.548828125 179.190429688 95.3623046875 c 0
 182.111328125 93.9013671875 185.462890625 92.90234375 189.795898438 92.90234375 c 0
 194.129882812 92.90234375 199.4453125 93.9013671875 206.293945312 96.4375 c 0
 220.74609375 101.790039062 232.696289062 109.978515625 242.450195312 120.759765625 c 0
 245.62109375 124.264648438 249.821289062 127.299804688 252.462890625 130.600585938 c 0
 258.291992188 137.884765625 260.806640625 144.3515625 264.580078125 154.124023438 c 0
 270.529296875 201.8203125 272.005859375 251.666015625 272.005859375 303.999023438 c 0
 272.005859375 373.666015625 270.267578125 445.608398438 267.89453125 513.240234375 c 1
 238.916992188 512.41796875 213.469726562 512.004882812 191.501953125 512.004882812 c 2
 184.001953125 512.004882812 l 2
 182.75390625 512.004882812 181.505859375 512.09765625 180.26953125 512.283203125 c 0
 162.482421875 514.951171875 145.779296875 522.864257812 134.220703125 536 c 0
 124.39453125 547.166015625 117.931640625 561.430664062 117.931640625 576.857421875 c 0
 117.931640625 595.049804688 124.107421875 610.15625 136.1875 622.236328125 c 0
 144.875 630.923828125 155.471679688 637.17578125 167.46484375 642.114257812 c 0
 170.430664062 643.334960938 173.583984375 643.961914062 176.743164062 643.994140625 c 0
 241.454101562 644.661132812 286.469726562 644.995117188 312.001953125 644.995117188 c 0
 336.936523438 644.995117188 382.2421875 645.658203125 447.48828125 646.989257812 c 0
 447.659179688 646.993164062 447.830078125 646.995117188 448.000976562 646.995117188 c 2
 452.000976562 646.995117188 l 2
 452.400390625 646.995117188 452.799804688 646.966796875 453.19921875 646.966796875 c 0
 472.028320312 646.069335938 490.27734375 639.145507812 502.909179688 625.416015625 c 0
 513.450195312 613.958984375 520.067382812 599.095703125 520.067382812 583.159179688 c 0
EndSplineSet
Validated: 1
MultipleSubs2: "'ccmp' Glyphen-Zusammensetzung/Zerlegung in Lateinisch Nachschlagetabelle 0 Subtabelle" Tok.cartopen J_under Tok.cartend
EndChar

StartChar: K
Encoding: 75 75 76
Width: 500
VWidth: 940
GlyphClass: 2
Flags: W
HStem: 627.993 20G<77.1753 93.7212>
VStem: 19.0049 131.99<10.0843 268.708 407.048 629.231>
LayerCount: 2
Fore
SplineSet
87 -10.9951171875 m 0
 68.93359375 -10.9951171875 51.6357421875 -2.185546875 39.9365234375 9.513671875 c 0
 27.8232421875 21.626953125 21.55859375 37.5673828125 19.236328125 54.595703125 c 0
 19.0830078125 55.7236328125 19.005859375 56.8603515625 19.005859375 57.9970703125 c 0
 19.005859375 58.0615234375 19.005859375 58.1259765625 19.005859375 58.1904296875 c 0
 19.671875 144.793945312 20.0048828125 230.729492188 20.0048828125 315.997070312 c 0
 20.0048828125 401.264648438 19.671875 490.205078125 19.0048828125 582.81640625 c 0
 19.0048828125 582.876953125 19.0048828125 582.9375 19.0048828125 582.998046875 c 0
 19.0048828125 585.045898438 19.2548828125 587.09375 19.75390625 589.091796875 c 0
 23.869140625 605.555664062 31.1630859375 620.5703125 43.1943359375 631.508789062 c 0
 54.560546875 641.841796875 69.3505859375 647.993164062 85 647.993164062 c 0
 102.442382812 647.993164062 119.533203125 639.69921875 130.513671875 628.71875 c 0
 140.490234375 618.7421875 146.551757812 606.135742188 150.168945312 592.390625 c 0
 150.719726562 590.298828125 150.995117188 588.149414062 150.995117188 586 c 0
 150.995117188 522.46875 150.252929688 468.971679688 150.057617188 407.047851562 c 1
 185.874023438 426.8984375 214.030273438 451.395507812 240.546875 480.368164062 c 0
 257.971679688 499.40625 275.495117188 520.489257812 293.084960938 543.616210938 c 0
 311.427734375 567.734375 332.383789062 593.584960938 355.970703125 621.21484375 c 0
 356.954101562 622.3671875 358.08203125 623.467773438 359.254882812 624.420898438 c 0
 373.245117188 635.788085938 389.948242188 642.99609375 408.000976562 642.99609375 c 0
 424.734375 642.99609375 440.791992188 636.565429688 452.678710938 624.678710938 c 0
 464.87890625 612.478515625 470.997070312 595.97265625 470.997070312 579.000976562 c 0
 470.997070312 568.3828125 468.33203125 558.41015625 464.330078125 548.004882812 c 0
 463.333007812 545.413085938 461.888671875 542.954101562 459.998046875 540.748046875 c 0
 440.190429688 517.639648438 422.408203125 496.067382812 406.6640625 476.059570312 c 0
 375.704101562 436.71484375 345.291992188 399.9375 311.177734375 365.823242188 c 0
 301.076171875 355.721679688 290.408203125 346.094726562 279.182617188 336.942382812 c 1
 350.967773438 260.555664062 422.14453125 185.325195312 493.404296875 107.922851562 c 0
 493.8515625 107.4375 494.275390625 106.938476562 494.676757812 106.427734375 c 0
 505.09765625 93.1640625 510.99609375 76.9775390625 510.99609375 60.0009765625 c 0
 510.99609375 43 504.650390625 26.2412109375 492.256835938 14.41015625 c 0
 480.296875 2.9931640625 464.411132812 -2.994140625 448.000976562 -2.994140625 c 0
 424.139648438 -2.994140625 406.077148438 8.1591796875 394.172851562 21.552734375 c 0
 390.032226562 26.2841796875 381.415039062 35.5830078125 368.869140625 48.7890625 c 0
 356.098632812 62.23046875 341.602539062 77.8037109375 325.170898438 95.4990234375 c 2
 221.1328125 207.540039062 l 2
 199.033203125 231.444335938 182.720703125 248.428710938 163.711914062 268.80078125 c 1
 159.040039062 266.817382812 154.143554688 264.815429688 149.018554688 262.791992188 c 1
 149.20703125 191.015625 150.505859375 131.430664062 152.98046875 60.8818359375 c 0
 152.991210938 60.587890625 152.99609375 60.2939453125 152.99609375 60 c 0
 152.99609375 39.912109375 145.57421875 20.1171875 131.416015625 7.0908203125 c 0
 119.344726562 -4.015625 103.815429688 -10.9951171875 87 -10.9951171875 c 0
EndSplineSet
Validated: 1
MultipleSubs2: "'ccmp' Glyphen-Zusammensetzung/Zerlegung in Lateinisch Nachschlagetabelle 0 Subtabelle" Tok.cartopen K_under Tok.cartend
EndChar

StartChar: L
Encoding: 76 76 77
Width: 500
VWidth: 940
GlyphClass: 2
Flags: W
HStem: -12.9932 132.86<162.005 399.24> 1.01465 131.981<250.548 446.589>
VStem: 30.0029 132.002<119.867 625.6>
LayerCount: 2
Fore
SplineSet
163.995117188 585 m 0xa0
 163.995117188 427.810546875 162.13671875 276.693359375 162.004882812 119.8671875 c 1xa0
 197.587890625 121.243164062 232.951171875 123.262695312 268.096679688 125.924804688 c 0
 312.493164062 129.288085938 357.547851562 131.641601562 403.258789062 132.985351562 c 0
 403.505859375 132.9921875 403.752929688 132.99609375 404 132.99609375 c 0
 406.55078125 132.99609375 409.1015625 132.608398438 411.556640625 131.833007812 c 0
 427.669921875 126.745117188 442.298828125 117.940429688 452.017578125 104.982421875 c 0
 460.186523438 94.08984375 465.51953125 80.8798828125 465.51953125 66.73828125 c 0
 465.51953125 48.650390625 456.991210938 33.0009765625 445.78515625 21.794921875 c 0
 435 11.009765625 421.151367188 4.697265625 406.1796875 1.544921875 c 0
 404.6875 1.23046875 403.171875 1.0537109375 401.653320312 1.0146484375 c 0x60
 350.16015625 -0.322265625 298.997070312 -1.1591796875 248.165039062 -1.4931640625 c 0
 198.659179688 -1.818359375 149.849609375 -5.5625 101.698242188 -12.7197265625 c 0
 100.47265625 -12.90234375 99.2353515625 -12.9931640625 97.998046875 -12.9931640625 c 0
 97.140625 -12.9931640625 96.283203125 -12.94921875 95.4296875 -12.861328125 c 0
 78.431640625 -11.1181640625 62.26953125 -5.125 50.0703125 7.07421875 c 0
 37.87109375 19.2734375 31.8779296875 35.435546875 30.134765625 52.43359375 c 0
 30.046875 53.287109375 30.0029296875 54.14453125 30.0029296875 55.001953125 c 0
 30.0029296875 231.834960938 32.0029296875 404.87109375 32.0029296875 582.001953125 c 0
 32.0029296875 583.73828125 32.1826171875 585.474609375 32.5419921875 587.180664062 c 0
 36.0205078125 603.703125 43.7197265625 619.107421875 56.109375 629.880859375 c 0
 67.455078125 639.747070312 81.2373046875 646.520507812 97.7353515625 646.520507812 c 0
 115.282226562 646.520507812 132.237304688 637.6796875 142.965820312 626.951171875 c 0
 152.46484375 617.452148438 158.70703125 605.619140625 162.83203125 592.556640625 c 0
 163.607421875 590.1015625 163.995117188 587.55078125 163.995117188 585 c 0xa0
EndSplineSet
Validated: 1
MultipleSubs2: "'ccmp' Glyphen-Zusammensetzung/Zerlegung in Lateinisch Nachschlagetabelle 0 Subtabelle" Tok.cartopen L_under Tok.cartend
EndChar

StartChar: M
Encoding: 77 77 78
Width: 500
VWidth: 940
GlyphClass: 2
Flags: W
HStem: 633.991 14.0049G<113.182 129.953 352.557 375.85>
VStem: 360.108 131.564<3.40482 317.752>
LayerCount: 2
Fore
SplineSet
220.423828125 516.405273438 m 2
 224.434570312 500.53515625 243.145507812 439.34375 250.572265625 413.846679688 c 1
 259.229492188 458.76953125 266.567382812 493.98046875 272.6796875 519.788085938 c 0
 279.139648438 547.0625 289.9375 578.204101562 304.978515625 613.755859375 c 0
 305.461914062 614.899414062 306.03515625 616.014648438 306.697265625 617.08984375 c 0
 318.321289062 635.98046875 338.114257812 653.991210938 366.999023438 653.991210938 c 0
 384.701171875 653.991210938 401.682617188 645.41796875 412.333007812 634.767578125 c 0
 420.044921875 627.055664062 426.040039062 617.827148438 431.361328125 607.184570312 c 0
 431.7890625 606.329101562 432.165039062 605.454101562 432.48828125 604.564453125 c 0
 442.274414062 577.653320312 450.543945312 527.02734375 460.3125 446.52734375 c 0
 468.731445312 377.146484375 473.473632812 338.169921875 474.526367188 330.8828125 c 0
 474.673828125 329.864257812 474.854492188 328.853515625 474.9296875 327.830078125 c 0
 480.014648438 258.161132812 488.903320312 144.327148438 491.91796875 82.9833984375 c 0
 492.431640625 72.5390625 492.689453125 65.2998046875 492.689453125 59.48046875 c 0
 492.689453125 55.0751953125 492.715820312 52.5029296875 491.672851562 48.29296875 c 0
 490.110351562 30.3759765625 483.560546875 13.181640625 470.416992188 1.087890625 c 0
 458.345703125 -10.0185546875 442.81640625 -16.998046875 426.000976562 -16.998046875 c 0
 408.33203125 -16.998046875 391.127929688 -8.66796875 379.63671875 2.8232421875 c 0
 367.29296875 15.1669921875 361.666015625 31.58203125 360.108398438 48.71875 c 0
 360.051757812 49.3369140625 360.018554688 49.95703125 360.0078125 50.5771484375 c 0
 359.783203125 64.048828125 359.669921875 76.9736328125 359.669921875 89.3564453125 c 0
 359.669921875 113.479492188 360.09765625 135.543945312 360.9609375 155.583984375 c 0
 358.372070312 189.4765625 356.415039062 223.369140625 355.08984375 257.263671875 c 0
 351.270507812 278.625 348.783203125 299.122070312 347.671875 318.771484375 c 1
 344.453125 305.552734375 341.337890625 292.541992188 338.325195312 279.740234375 c 0
 331.350585938 250.100585938 322.556640625 223.400390625 311.755859375 199.637695312 c 0
 309.641601562 194.986328125 305.9296875 191.1640625 302.4921875 187.7265625 c 0
 289.819335938 175.053710938 272.715820312 166.001953125 253.998046875 166.001953125 c 0
 251.428710938 166.001953125 248.859375 166.395507812 246.388671875 167.181640625 c 0
 227.422851562 173.216796875 210.874023438 184.618164062 200.787109375 200.756835938 c 0
 199.755859375 202.40625 198.935546875 204.150390625 198.326171875 205.950195312 c 0
 180.20703125 259.4453125 172.299804688 281.641601562 161.283203125 317.653320312 c 1
 152.6015625 222.6640625 144.500976562 122.982421875 134.856445312 30.3896484375 c 0
 134.610351562 28.0244140625 134.028320312 25.6884765625 133.110351562 23.4580078125 c 0
 123.041015625 -0.9931640625 101.85546875 -24.9970703125 68.9970703125 -24.9970703125 c 0
 51.740234375 -24.9970703125 35.587890625 -16.9970703125 24.14453125 -5.5537109375 c 0
 11.7490234375 6.841796875 5.763671875 23.306640625 4.1162109375 40.6123046875 c 0
 4.041015625 41.40625 4.0029296875 42.203125 4.0029296875 43 c 0
 4.0029296875 43.7890625 4.0400390625 44.578125 4.1142578125 45.3642578125 c 0
 21.1591796875 225.963867188 38.1318359375 406.66796875 55.1142578125 587.35546875 c 0
 55.2119140625 588.395507812 55.3740234375 589.430664062 55.6015625 590.454101562 c 0
 59.1640625 606.483398438 67.0341796875 621.379882812 79.1103515625 631.880859375 c 0
 90.6484375 641.9140625 105.364257812 647.99609375 120.999023438 647.99609375 c 0
 138.90625 647.99609375 155.52734375 640.517578125 168.02734375 628.017578125 c 0
 171.973632812 624.071289062 175.487304688 619.736328125 178.669921875 615.068359375 c 0
 179.615234375 613.681640625 180.405273438 612.220703125 181.041015625 610.709960938 c 0
 201.75 561.467773438 214.247070312 531.266601562 218.342773438 522.005859375 c 2
 220.423828125 516.405273438 l 2
EndSplineSet
Validated: 1
MultipleSubs2: "'ccmp' Glyphen-Zusammensetzung/Zerlegung in Lateinisch Nachschlagetabelle 0 Subtabelle" Tok.cartopen M_under Tok.cartend
EndChar

StartChar: N
Encoding: 78 78 79
Width: 500
VWidth: 940
GlyphClass: 2
Flags: W
HStem: 635.994 20G<77.1763 85.3003>
VStem: 21.0059 130.99<-2.00867 369.849> 335.006 131.99<314.612 652.23>
LayerCount: 2
Fore
SplineSet
331.69921875 303.609375 m 1
 334.215820312 405.060546875 335.005859375 498.400390625 335.005859375 605.998046875 c 0
 335.005859375 608.045898438 335.255859375 610.09375 335.754882812 612.091796875 c 0
 339.870117188 628.5546875 347.1640625 643.569335938 359.1953125 654.5078125 c 0
 370.561523438 664.840820312 385.3515625 670.9921875 401.000976562 670.9921875 c 0
 418.443359375 670.9921875 435.534179688 662.698242188 446.514648438 651.717773438 c 0
 456.491210938 641.741210938 462.552734375 629.134765625 466.169921875 615.389648438 c 0
 466.720703125 613.297851562 466.99609375 611.1484375 466.99609375 608.999023438 c 0
 466.99609375 414.216796875 465.592773438 246.568359375 455.3046875 59.857421875 c 0
 455.765625 57.9345703125 455.99609375 55.966796875 455.99609375 53.9990234375 c 0
 455.99609375 50.6533203125 455.329101562 47.3076171875 453.99609375 44.1796875 c 2
 453.99609375 38 l 2
 453.99609375 35.0146484375 453.46484375 32.029296875 452.403320312 29.1982421875 c 0
 443.22265625 4.7158203125 422.138671875 -18.9951171875 390 -18.9951171875 c 0
 370.022460938 -18.9951171875 352.291992188 -9.6474609375 338.322265625 4.322265625 c 0
 334.58984375 8.0546875 332.7734375 13.87109375 329.322265625 17.322265625 c 0
 325.939453125 20.705078125 323.729492188 24.8193359375 322.692382812 29.158203125 c 0
 296.809570312 74.8310546875 276.47265625 116.491210938 261.708984375 154.407226562 c 0
 247.341796875 191.305664062 232.390625 224.258789062 216.9375 253.233398438 c 0
 201.081054688 282.96484375 183.8828125 313.891601562 165.342773438 346.004882812 c 0
 160.953125 353.607421875 156.504882812 361.5546875 151.99609375 369.848632812 c 1
 151.99609375 273.500976562 l 2
 151.99609375 198.624023438 152.99609375 127.9609375 152.99609375 49 c 0
 152.99609375 28.912109375 145.57421875 9.1171875 131.416015625 -3.9091796875 c 0
 119.344726562 -15.015625 103.815429688 -21.9951171875 87 -21.9951171875 c 0
 69.658203125 -21.9951171875 53.013671875 -13.9794921875 41.6142578125 -2.580078125 c 0
 29.484375 9.5498046875 23.5625 25.5390625 21.236328125 42.5986328125 c 0
 21.0849609375 43.7109375 21.0078125 44.83203125 21.005859375 45.953125 c 2
 20.005859375 592.999023438 l 2
 20.005859375 594.829101562 20.205078125 596.659179688 20.603515625 598.453125 c 0
 24.107421875 614.220703125 31.49609375 628.873046875 43.1953125 639.509765625 c 0
 54.5615234375 649.842773438 69.3515625 655.994140625 85.0009765625 655.994140625 c 0
 85.599609375 655.994140625 86.1982421875 655.97265625 86.7958984375 655.9296875 c 0
 101.454101562 654.881835938 115.206054688 649.356445312 128.2421875 641.208984375 c 0
 130.903320312 639.545898438 133.385742188 637.23046875 135.237304688 634.684570312 c 0
 168.119140625 589.471679688 205.818359375 528.973632812 248.784179688 452.776367188 c 0
 291.497070312 377.028320312 317.435546875 330.649414062 327.017578125 312.853515625 c 0
 328.486328125 310.125 330.044921875 307.046875 331.69921875 303.609375 c 1
EndSplineSet
Validated: 5
MultipleSubs2: "'ccmp' Glyphen-Zusammensetzung/Zerlegung in Lateinisch Nachschlagetabelle 0 Subtabelle" Tok.cartopen N_under Tok.cartend
EndChar

StartChar: O
Encoding: 79 79 80
Width: 500
VWidth: 940
GlyphClass: 2
Flags: W
HStem: -15.9961 130.172<204.493 276.183> 645.995 20G<272.797 273.562>
VStem: 22.002 127.059<172.41 401.807> 343.098 135.894<214.727 476.139>
LayerCount: 2
Fore
SplineSet
343.09765625 288.028320312 m 0
 343.09765625 289.6796875 343.000976562 291.341796875 343.000976562 293 c 0
 343.000976562 293.857421875 343.044921875 294.71484375 343.1328125 295.568359375 c 0
 345.71875 320.77734375 349.001953125 344.223632812 349.001953125 372 c 0
 349.001953125 387.716796875 347.493164062 403.836914062 344.422851562 420.420898438 c 0
 341.497070312 436.22265625 336.0625 449.907226562 328.94921875 463.20703125 c 0
 314.15625 490.865234375 300.204101562 512.217773438 287.838867188 526.938476562 c 0
 280.983398438 535.099609375 272.510742188 540.360351562 261.299804688 540.360351562 c 0
 260.102539062 540.360351562 258.861328125 540.3125 257.571289062 540.217773438 c 0
 240.970703125 536.512695312 225.3984375 518.083984375 215.032226562 501.98046875 c 0
 197.639648438 474.959960938 183.924804688 445.245117188 173.885742188 412.619140625 c 0
 163.431640625 378.643554688 157.729492188 355.231445312 156.83984375 347.221679688 c 0
 155.505859375 335.216796875 152.922851562 313.895507812 149.060546875 282.969726562 c 1
 151.440429688 229.6640625 162.361328125 179.53125 182.813476562 148.854492188 c 0
 191.90234375 135.221679688 199.462890625 125.405273438 204.11328125 120.319335938 c 0
 212.256835938 115.123046875 217.219726562 114.17578125 219.709960938 114.17578125 c 0
 222.275390625 114.17578125 224.46484375 114.995117188 226.998046875 114.995117188 c 0
 238.51953125 114.995117188 247.155273438 115.509765625 251.75 116.142578125 c 0
 252.618164062 116.565429688 259.016601562 119.78515625 267.650390625 126.921875 c 0
 290.360351562 147.469726562 302.515625 170.134765625 315.59765625 200.037109375 c 0
 322.438476562 215.671875 329.130859375 231.993164062 335.671875 248.998046875 c 0
 340.688476562 262.0390625 343.09765625 274.875976562 343.09765625 288.028320312 c 0
478.991210938 373 m 0
 478.991210938 339.2734375 475.930664062 306.576171875 470.815429688 276.805664062 c 0
 465.8828125 218.80078125 442.8203125 159.975585938 419.463867188 117.048828125 c 0
 394.578125 71.310546875 356.935546875 29.509765625 311.186523438 6.63671875 c 0
 310.40625 6.2470703125 309.609375 5.900390625 308.80078125 5.5966796875 c 0
 287.504882812 -2.388671875 261.169921875 -12.6708984375 236.120117188 -15.8017578125 c 0
 235.083984375 -15.931640625 234.041015625 -15.99609375 232.998046875 -15.99609375 c 0
 232.102539062 -15.99609375 231.20703125 -15.9482421875 230.315429688 -15.8525390625 c 0
 211.59375 -13.8466796875 196.528320312 -12.1728515625 185.056640625 -10.8232421875 c 0
 183.129882812 -10.5966796875 181.224609375 -10.146484375 179.3828125 -9.47265625 c 0
 148.23046875 1.9248046875 121.823242188 20.5009765625 102.397460938 44.9775390625 c 0
 69.001953125 87.0546875 41.3974609375 137.217773438 29.9326171875 198.365234375 c 0
 24.6533203125 226.520507812 22.001953125 254.7578125 22.001953125 283 c 0
 22.001953125 304.806640625 23.28125 325.538085938 26.3037109375 344.883789062 c 0
 39.0224609375 426.2890625 66.9521484375 507.038085938 102.458984375 567.202148438 c 0
 115.377929688 589.092773438 129.944335938 608.302734375 146.319335938 624.677734375 c 0
 158.560546875 636.918945312 174.791015625 645.166015625 194.927734375 652.489257812 c 0
 216.56640625 660.358398438 242.090820312 664.552734375 271.798828125 665.966796875 c 0
 272.198242188 665.985351562 272.59765625 665.995117188 272.997070312 665.995117188 c 0
 274.126953125 665.995117188 275.256835938 665.918945312 276.377929688 665.766601562 c 0
 321.323242188 659.672851562 357.25390625 645.208984375 383.009765625 619.453125 c 0
 405.147460938 597.315429688 425.203125 565.381835938 445.333007812 523.25 c 0
 467.19140625 481.90625 478.991210938 432.141601562 478.991210938 373 c 0
EndSplineSet
Validated: 1
MultipleSubs2: "'ccmp' Glyphen-Zusammensetzung/Zerlegung in Lateinisch Nachschlagetabelle 0 Subtabelle" Tok.cartopen O_under Tok.cartend
EndChar

StartChar: P
Encoding: 80 80 81
Width: 500
VWidth: 940
GlyphClass: 2
Flags: W
HStem: 173.005 131.991<157.995 289.8> 544.004 130.992<160.568 301.366> 619.995 20G<84.3521 93.6343>
VStem: 26.0049 131.99<-16.0077 175.611 307.167 531.851> 348.005 133.99<360.335 496.968>
LayerCount: 2
Fore
SplineSet
157.995117188 310.305664062 m 1xd8
 176.450195312 306.986328125 196.786132812 304.99609375 218 304.99609375 c 0
 227.169921875 304.99609375 244.159179688 308.259765625 266.774414062 316.112304688 c 0
 287.6640625 323.365234375 303.11328125 333.008789062 314.709960938 345.048828125 c 0
 333.266601562 365.551757812 348.004882812 393.521484375 348.004882812 428.001953125 c 0
 348.004882812 449.188476562 343.0078125 468.586914062 332.609375 487.416015625 c 0
 315.044921875 519.22265625 280.646484375 543.77734375 232.706054688 544.00390625 c 0
 211.370117188 542.729492188 196.47265625 539.403320312 189.168945312 536.157226562 c 0
 180.849609375 532.459960938 170.404296875 527.364257812 157.995117188 520.919921875 c 1
 157.995117188 310.305664062 l 1xd8
91.9990234375 639.995117188 m 0xb8
 95.26953125 639.995117188 98.5908203125 639.909179688 102.020507812 639.430664062 c 0
 125.719726562 649.59375 149.391601562 657.845703125 173.02734375 664.149414062 c 0
 198.975585938 671.069335938 217.571289062 674.99609375 233 674.99609375 c 0xd8
 280.629882812 674.99609375 318.018554688 665.33203125 350.866210938 647.014648438 c 0
 390.966796875 626.129882812 424.672851562 591.840820312 446.762695312 552.814453125 c 0
 466.25 518.38671875 481.995117188 474.26171875 481.995117188 424.000976562 c 0
 481.995117188 380.934570312 470.36328125 339.53515625 447.001953125 303.430664062 c 0
 423.706054688 267.427734375 394.258789062 237.174804688 358.396484375 214.387695312 c 0
 309.91015625 183.579101562 258.751953125 173.004882812 187 173.004882812 c 0
 176.713867188 173.004882812 167.068359375 173.793945312 157.995117188 175.611328125 c 1
 157.995117188 121.000976562 l 2
 157.995117188 89.17578125 158.327148438 60.7177734375 158.986328125 35.6630859375 c 0
 158.9921875 35.4423828125 158.995117188 35.2216796875 158.995117188 35.0009765625 c 0
 158.995117188 14.9130859375 151.573242188 -4.8818359375 137.415039062 -17.908203125 c 0
 125.34375 -29.0146484375 109.814453125 -35.994140625 92.9990234375 -35.994140625 c 0
 75.6572265625 -35.994140625 59.0126953125 -27.978515625 47.61328125 -16.5791015625 c 0
 35.4833984375 -4.44921875 29.5615234375 11.5400390625 27.2353515625 28.599609375 c 0
 27.0859375 29.697265625 27.0087890625 30.802734375 27.0048828125 31.908203125 c 2
 26.0048828125 307.999023438 l 1
 26.0048828125 575.999023438 l 2
 26.0048828125 578.046875 26.2548828125 580.094726562 26.75390625 582.092773438 c 0
 30.8798828125 598.599609375 38.3232421875 613.767578125 50.67578125 624.435546875 c 0
 62.0947265625 634.297851562 76.705078125 639.995117188 91.9990234375 639.995117188 c 0xb8
EndSplineSet
Validated: 5
MultipleSubs2: "'ccmp' Glyphen-Zusammensetzung/Zerlegung in Lateinisch Nachschlagetabelle 0 Subtabelle" Tok.cartopen P_under Tok.cartend
EndChar

StartChar: Q
Encoding: 81 81 82
Width: 500
VWidth: 940
GlyphClass: 2
Flags: W
HStem: 522.242 134.637<224.758 302.213>
VStem: 20.8623 134.123<152.874 417.785> 348.604 131.888<215.875 462.263>
LayerCount: 2
Fore
SplineSet
348.604492188 354.678710938 m 0
 348.604492188 384.607421875 344.422851562 410.118164062 337.866210938 434.469726562 c 0
 333.833007812 449.450195312 327.83984375 463.473632812 319.791015625 476.750976562 c 0
 311.576171875 489.499023438 303.610351562 499.533203125 296.322265625 506.821289062 c 0
 288.970703125 514.172851562 282.315429688 518.71875 276.831054688 521.15625 c 0
 275.448242188 521.770507812 273.2890625 522.2421875 270.288085938 522.2421875 c 0
 262.27734375 522.2421875 248.271484375 518.879882812 227.040039062 505.899414062 c 0
 213.149414062 493.237304688 201.495117188 477.720703125 194.296875 461.725585938 c 0
 177.962890625 425.427734375 159.822265625 377.8203125 155.389648438 329.690429688 c 0
 154.198242188 316.755859375 153.612304688 304.366210938 153.612304688 292.522460938 c 0
 153.612304688 282.373046875 154.04296875 272.625 154.892578125 263.278320312 c 0
 154.939453125 262.759765625 154.970703125 262.239257812 154.985351562 261.71875 c 0
 155.592773438 240.475585938 158.981445312 215.681640625 165.37109375 187.569335938 c 0
 172.365234375 156.798828125 181.305664062 140.798828125 193.8046875 128.299804688 c 0
 204.046875 118.057617188 216.07421875 109.41796875 230.1875 102.361328125 c 0
 231.765625 101.572265625 232.823242188 101.139648438 234.071289062 101.139648438 c 0
 235.18359375 101.139648438 236.447265625 101.483398438 238.366210938 102.224609375 c 0
 240.3046875 102.973632812 242.87890625 104.372070312 245.928710938 106.608398438 c 1
 242.868164062 110.119140625 238.701171875 114.19921875 235.640625 118.483398438 c 0
 229.814453125 126.639648438 221.96484375 134.158203125 213.471679688 140.903320312 c 0
 202.098632812 149.934570312 191.51171875 159.362304688 184.588867188 171.94921875 c 0
 178.997070312 182.115234375 175.736328125 193.565429688 174.198242188 205.876953125 c 0
 173.895507812 208.302734375 173.747070312 210.723632812 173.747070312 213.12890625 c 0
 173.747070312 229.15234375 180.524414062 244.395507812 191.61328125 255.484375 c 0
 199.41015625 263.28125 211.489257812 270.953125 225.272460938 270.953125 c 0
 227.947265625 270.953125 230.685546875 270.6640625 233.469726562 270.03125 c 0
 251.36328125 269.483398438 267.965820312 259.50390625 279.51171875 246.802734375 c 0
 294.7578125 230.03125 306.512695312 215.520507812 318.509765625 200.744140625 c 1
 326.57421875 212.670898438 330.869140625 223.328125 332.315429688 232.443359375 c 0
 335.681640625 253.65234375 340.620117188 279.208007812 347.137695312 309.309570312 c 0
 347.862304688 324.202148438 348.604492188 339.234375 348.604492188 354.678710938 c 0
20.8623046875 275.98828125 m 0
 20.8623046875 289.575195312 23.001953125 303.71484375 23.001953125 317.008789062 c 0
 23.001953125 317.516601562 23.017578125 318.024414062 23.0478515625 318.53125 c 0
 24.4501953125 341.670898438 27.572265625 367.197265625 32.3603515625 395.241210938 c 0
 42.8056640625 456.41796875 68.8017578125 509.040039062 97.2685546875 554.719726562 c 0
 112.744140625 579.552734375 130.491210938 600.333984375 152.5703125 617.681640625 c 0
 168.180664062 629.946289062 188.361328125 640.109375 212.1328125 649.688476562 c 0
 224.397460938 654.630859375 237.5 656.87890625 251.331054688 656.87890625 c 0
 272.692382812 656.87890625 295.79296875 651.516601562 320.232421875 642.432617188 c 0
 347.133789062 632.43359375 371.606445312 616.169921875 393.415039062 594.361328125 c 0
 406.9375 580.838867188 420.052734375 565.096679688 431.209960938 547.245117188 c 0
 457.376953125 505.376953125 473.02734375 456.75390625 477.887695312 397.326171875 c 0
 479.623046875 380.571289062 480.4921875 363.875976562 480.4921875 347.25390625 c 0
 480.4921875 330.537109375 479.61328125 313.89453125 477.852539062 297.340820312 c 0
 477.799804688 296.848632812 477.732421875 296.357421875 477.651367188 295.868164062 c 0
 471.504882812 258.98828125 463.6328125 223.875976562 454.010742188 190.540039062 c 0
 445.416015625 160.765625 430.666992188 132.1484375 410.267578125 104.693359375 c 1
 426.0234375 88.859375 451.420898438 65.4189453125 464.953125 53.1806640625 c 0
 470.33984375 49.828125 475.326171875 45.9697265625 479.802734375 41.4931640625 c 0
 493.0859375 28.2099609375 500.0859375 11.3525390625 500.0859375 -8.8056640625 c 0
 500.0859375 -25.392578125 493.123046875 -42.1064453125 482.427734375 -52.8017578125 c 0
 472.489257812 -62.740234375 459.495117188 -68.126953125 446.119140625 -69.798828125 c 0
 445.083007812 -69.9287109375 444.040039062 -69.9931640625 442.997070312 -69.9931640625 c 0
 429.44140625 -69.9931640625 415.9296875 -66.3720703125 404.676757812 -58.4951171875 c 0
 403.12109375 -57.40625 401.619140625 -56.0732421875 400.3359375 -54.6357421875 c 0
 375.30078125 -26.5966796875 354.484375 -4.6103515625 329.092773438 18.439453125 c 1
 323.142578125 14.2998046875 315.505859375 8.9599609375 306.35546875 2.5302734375 c 0
 305.518554688 1.9423828125 304.653320312 1.4111328125 303.765625 0.9375 c 0
 293.513671875 -4.5302734375 284.047851562 -9.3515625 275.328125 -13.537109375 c 0
 262.942382812 -19.482421875 249.120117188 -21.7783203125 234.200195312 -21.9794921875 c 0
 230.08203125 -22.615234375 225.927734375 -22.9150390625 221.740234375 -22.9150390625 c 0
 210.354492188 -22.9150390625 198.725585938 -20.697265625 186.91015625 -16.9794921875 c 0
 163.8828125 -10.6416015625 141.5 4.041015625 117.473632812 25.240234375 c 0
 111.451171875 30.5537109375 105.818359375 35.8251953125 100.5703125 41.0732421875 c 0
 63.994140625 77.6494140625 50.6025390625 107.3125 36.6259765625 168.940429688 c 0
 29.1640625 201.840820312 24.30078125 230.854492188 22.1416015625 256.306640625 c 0
 21.2919921875 262.879882812 20.8623046875 269.44921875 20.8623046875 275.98828125 c 0
EndSplineSet
Validated: 1
MultipleSubs2: "'ccmp' Glyphen-Zusammensetzung/Zerlegung in Lateinisch Nachschlagetabelle 0 Subtabelle" Tok.cartopen Q_under Tok.cartend
EndChar

StartChar: R
Encoding: 82 82 83
Width: 500
VWidth: 940
GlyphClass: 2
Flags: W
HStem: 192.397 130.399<170.998 233.535> 551.005 132.543<170.998 298.94>
VStem: 39.7959 131.202<-2.0077 194.643 322.797 550.684> 345.007 130.989<399.077 511.306>
LayerCount: 2
Fore
SplineSet
211 551.004882812 m 0
 194.331054688 551.004882812 181.32421875 550.322265625 172.72265625 549.212890625 c 0
 171.848632812 549.100585938 171.353515625 548.991210938 170.998046875 548.831054688 c 2
 170.998046875 322.796875 l 1
 182.987304688 323.877929688 192.630859375 325.154296875 199.686523438 326.53125 c 0
 210.915039062 328.72265625 229.387695312 334.747070312 253.434570312 343.491210938 c 0
 279.348632812 352.9140625 302.260742188 372.078125 318.362304688 392.474609375 c 0
 331.890625 409.610351562 345.006835938 433.02734375 345.006835938 460.001953125 c 0
 345.006835938 471.263671875 342.423828125 482.243164062 336.638671875 493.813476562 c 0
 330.556640625 505.978515625 319.533203125 516.108398438 307.567382812 524.583984375 c 0
 282.895507812 542.05859375 250.420898438 551.004882812 211 551.004882812 c 0
39.0068359375 46.0009765625 m 0
 39.0068359375 165.7578125 39.7958984375 265.994140625 39.7958984375 346.392578125 c 0
 39.7958984375 468.122070312 39.1962890625 544.525390625 38.0224609375 575.03515625 c 0
 38.009765625 575.357421875 38.00390625 575.6796875 38.00390625 576.001953125 c 0
 38.00390625 577.044921875 38.068359375 578.087890625 38.1982421875 579.124023438 c 0
 40.4482421875 597.125976562 44.2509765625 613.385742188 56.31640625 626.16015625 c 0
 62.234375 632.426757812 68.9833984375 638.71875 75.4873046875 643.36328125 c 0
 76.1220703125 643.81640625 76.7734375 644.236328125 77.4384765625 644.623046875 c 0
 107.70703125 662.221679688 135.385742188 673.844726562 161.5 678.592773438 c 0
 178.640625 681.708984375 193.108398438 683.547851562 205.896484375 683.547851562 c 0
 209.881835938 683.547851562 213.704101562 683.369140625 217.392578125 682.995117188 c 0
 304.211914062 682.645507812 367.900390625 651.744140625 413.739257812 605.905273438 c 0
 431.5703125 588.07421875 445.666015625 568.674804688 455.59375 547.716796875 c 0
 469.0390625 519.333007812 475.99609375 489.491210938 475.99609375 459.00390625 c 0
 475.99609375 404.029296875 455.918945312 358.52734375 431.583984375 323.307617188 c 0
 409.299804688 291.056640625 380.03515625 263.32421875 345.88671875 242.756835938 c 1
 390.098632812 193.2734375 445.465820312 133.385742188 488.552734375 85.7626953125 c 0
 499.810546875 73.3193359375 505.99609375 55.0439453125 505.99609375 38.0029296875 c 0
 505.99609375 21.001953125 499.650390625 4.2431640625 487.256835938 -7.587890625 c 0
 475.296875 -19.0048828125 459.412109375 -24.9921875 443.001953125 -24.9921875 c 0
 419.223632812 -24.9921875 400.651367188 -13.83984375 389.00390625 -0.25 c 0
 374.791992188 16.3310546875 352.750976562 39.994140625 334.655273438 59.5185546875 c 0
 298.439453125 98.5927734375 258.091796875 145.150390625 221.752929688 183.913085938 c 0
 217.056640625 188.922851562 213.014648438 193.2734375 209.578125 197.026367188 c 1
 196.727539062 194.999023438 183.865234375 193.455078125 170.99609375 192.397460938 c 1
 170.99609375 49.0009765625 l 2
 170.99609375 48.6357421875 170.97265625 48.2705078125 170.97265625 47.90625 c 0
 170.119140625 28.2919921875 163.688476562 9.22265625 149.416992188 -3.908203125 c 0
 137.345703125 -15.0146484375 121.81640625 -21.994140625 105.000976562 -21.994140625 c 0
 87.6591796875 -21.994140625 71.0146484375 -13.978515625 59.615234375 -2.5791015625 c 0
 47.4853515625 9.55078125 41.5634765625 25.5400390625 39.2373046875 42.599609375 c 0
 39.083984375 43.7275390625 39.0068359375 44.8642578125 39.0068359375 46.0009765625 c 0
EndSplineSet
Validated: 1
MultipleSubs2: "'ccmp' Glyphen-Zusammensetzung/Zerlegung in Lateinisch Nachschlagetabelle 0 Subtabelle" Tok.cartopen R_under Tok.cartend
EndChar

StartChar: S
Encoding: 83 83 84
Width: 500
VWidth: 940
GlyphClass: 2
Flags: W
HStem: -28.998 134.491<178.445 293.634> 505.986 132.005<198.263 372.841>
VStem: 347.003 132.995<168.074 219.043>
LayerCount: 2
Fore
SplineSet
279 105.995117188 m 0
 282.318359375 105.995117188 286.639648438 105.493164062 289.190429688 105.493164062 c 0
 291.202148438 105.493164062 292.727539062 105.578125 293.678710938 105.654296875 c 0
 297.743164062 108.69140625 301.482421875 111.1953125 305.813476562 113.360351562 c 0
 306.27734375 113.591796875 308.018554688 114.629882812 310.397460938 116.533203125 c 0
 314.0546875 119.459960938 319.389648438 123.397460938 327.028320312 128.880859375 c 0
 331.971679688 135.909179688 335.483398438 141.383789062 340.45703125 148.435546875 c 2
 347.002929688 168.07421875 l 1
 347.002929688 177.49609375 l 2
 347.002929688 180.083984375 346.827148438 183.241210938 346.428710938 186.892578125 c 0
 344.323242188 193.587890625 341.29296875 199.305664062 338.560546875 205.5703125 c 0
 332.377929688 212.690429688 327.078125 218.278320312 320.909179688 225.373046875 c 0
 315.626953125 228.424804688 310.372070312 231.6953125 305.143554688 235.180664062 c 0
 300.942382812 237.981445312 296.321289062 239.490234375 290.892578125 241.34375 c 0
 264.125976562 250.483398438 242.653320312 256.731445312 227.197265625 260.065429688 c 0
 209.611328125 263.858398438 190.482421875 268.64453125 169.755859375 274.420898438 c 0
 136.01171875 283.826171875 103.475585938 301.641601562 80.3427734375 324.774414062 c 0
 67.9755859375 337.141601562 55.775390625 352.174804688 44.7880859375 369.755859375 c 0
 40.84375 376.06640625 37.7294921875 380.999023438 35.7529296875 388.900390625 c 0
 32.2568359375 402.881835938 31.00390625 422.192382812 31.00390625 438.99609375 c 0
 31.00390625 484.967773438 47.2890625 514.112304688 68.6005859375 540.268554688 c 0
 77.1201171875 550.724609375 87.9873046875 563.426757812 99.3173828125 574.756835938 c 0
 123.322265625 598.76171875 155.796875 615.698242188 192.435546875 625.620117188 c 0
 224.357421875 634.264648438 242.078125 637.991210938 280.000976562 637.991210938 c 2
 294.500976562 637.991210938 l 2
 299.897460938 637.991210938 305.35546875 637.59375 310.865234375 636.8359375 c 0
 328.561523438 635.225585938 345.58984375 630.8984375 361.567382812 623.884765625 c 0
 374.100585938 618.3828125 387.1015625 613.791992188 400.609375 610.108398438 c 0
 403.30078125 609.374023438 405.893554688 608.182617188 408.263671875 606.534179688 c 0
 412.91015625 603.301757812 417.224609375 599.762695312 421.16015625 595.827148438 c 0
 434.1796875 582.807617188 441.997070312 565.612304688 441.997070312 546.997070312 c 0
 441.997070312 530.138671875 434.853515625 514.494140625 423.1796875 502.8203125 c 0
 409.754882812 489.395507812 391.514648438 484.002929688 373.001953125 484.002929688 c 0
 369.568359375 484.002929688 366.494140625 484.407226562 363.481445312 485.008789062 c 0
 361.12890625 485.057617188 358.782226562 485.435546875 356.516601562 486.143554688 c 0
 335.673828125 492.657226562 317.443359375 497.64453125 301.99609375 501.112304688 c 0
 288.145507812 504.221679688 274.943359375 505.8125 262.3203125 505.986328125 c 0
 246.270507812 502.890625 233.865234375 500.40234375 225.26953125 498.560546875 c 0
 225.057617188 498.514648438 220.924804688 497.158203125 215.095703125 494.077148438 c 0
 208.4296875 490.553710938 199.38671875 485.017578125 188.411132812 477.6015625 c 0
 181.78125 469.083007812 175.02734375 462.157226562 168.048828125 454.120117188 c 0
 165.833984375 449.4921875 163.85546875 444.845703125 162.067382812 439.943359375 c 0
 162.16796875 436.999023438 162.38671875 433.84765625 162.711914062 431.080078125 c 0
 165.228515625 427.545898438 167.197265625 423.981445312 169.670898438 420.430664062 c 2
 203.53515625 402.259765625 l 1
 234.076171875 393.3515625 256.774414062 386.500976562 289.568359375 377.620117188 c 0
 328.517578125 367.072265625 359.607421875 355.021484375 393.403320312 335.709960938 c 0
 405.3828125 328.864257812 416.028320312 319.736328125 424.541015625 309.095703125 c 0
 431.118164062 300.875 437.359375 293.154296875 443.26171875 285.940429688 c 0
 465.626953125 259.315429688 479.998046875 222.754882812 479.998046875 176.997070312 c 0
 479.998046875 115.165039062 452.829101562 62.2177734375 417.370117188 32.0966796875 c 0
 405.151367188 21.265625 391.384765625 12.201171875 377.856445312 3.181640625 c 0
 348.064453125 -16.6787109375 309.177734375 -28.998046875 262.002929688 -28.998046875 c 0
 238.111328125 -28.998046875 216.489257812 -26.3193359375 197.155273438 -20.400390625 c 0
 179.63671875 -15.037109375 160.325195312 -7.705078125 139.00390625 1.580078125 c 0
 95.986328125 20.3134765625 57.345703125 45.681640625 29.0048828125 78.74609375 c 0
 27.326171875 80.7041015625 26 82.861328125 25.0263671875 85.1337890625 c 0
 20.0302734375 96.791015625 17.0068359375 108.76953125 17.0068359375 121 c 0
 17.0068359375 137.649414062 22.712890625 154.06640625 34.82421875 166.177734375 c 0
 46.6171875 177.970703125 62.59765625 183.995117188 79.001953125 183.995117188 c 0
 95.658203125 183.995117188 111.376953125 177.99609375 124.766601562 168.176757812 c 0
 129.248046875 164.890625 132.643554688 159.962890625 136.522460938 156.083984375 c 0
 154.041015625 138.565429688 178.236328125 125.225585938 204.584960938 117.475585938 c 0
 221.010742188 112.64453125 233.828125 109.537109375 242.13671875 108.15234375 c 0
 249.872070312 106.86328125 262.495117188 105.995117188 279 105.995117188 c 0
EndSplineSet
Validated: 1
MultipleSubs2: "'ccmp' Glyphen-Zusammensetzung/Zerlegung in Lateinisch Nachschlagetabelle 0 Subtabelle" Tok.cartopen S_under Tok.cartend
EndChar

StartChar: T
Encoding: 84 84 85
Width: 500
VWidth: 940
GlyphClass: 2
Flags: W
HStem: 512.449 131.547<18.9682 186.054 318.046 473.915>
VStem: 187.234 131.76<-6.00672 507.646>
LayerCount: 2
Fore
SplineSet
391.5703125 637.372070312 m 0
 406.965820312 637.372070312 429.267578125 637.998046875 439 637.998046875 c 0
 441.681640625 637.998046875 444.36328125 637.569335938 446.932617188 636.712890625 c 0
 462.484375 631.529296875 476.546875 622.610351562 486.016601562 609.984375 c 0
 494.048828125 599.274414062 499.095703125 586.297851562 499.095703125 572.525390625 c 0
 499.095703125 554.149414062 491.69921875 538.831054688 480.0625 527.194335938 c 0
 468.697265625 515.829101562 453.966796875 509.702148438 437.931640625 506.494140625 c 0
 436.3046875 506.168945312 434.651367188 505.98046875 432.999023438 506.00390625 c 2
 318.045898438 507.646484375 l 1
 318.994140625 45.001953125 l 2
 318.994140625 24.9140625 311.572265625 5.119140625 297.4140625 -7.9072265625 c 0
 285.342773438 -19.013671875 269.813476562 -25.9931640625 252.998046875 -25.9931640625 c 0
 235.65625 -25.9931640625 219.01171875 -17.9775390625 207.612304688 -6.578125 c 0
 195.482421875 5.5517578125 189.560546875 21.541015625 187.234375 38.6005859375 c 0
 187.083007812 39.7109375 187.005859375 40.830078125 187.00390625 41.94921875 c 2
 186.053710938 508.674804688 l 1
 63.314453125 512.014648438 l 2
 61.966796875 512.051757812 60.6220703125 512.196289062 59.2939453125 512.44921875 c 0
 41.33984375 515.869140625 24.6484375 523.977539062 13.341796875 537.4375 c 0
 3.943359375 548.625976562 -2.08203125 562.610351562 -2.08203125 577.65625 c 0
 -2.08203125 596.91015625 6.052734375 612.918945312 18.3173828125 625.18359375 c 0
 32.123046875 638.989257812 50.9267578125 643.99609375 70.0009765625 643.99609375 c 2
 112.500976562 643.99609375 l 2
 163.512695312 643.99609375 199.749023438 642.177734375 255.537109375 640.990234375 c 0
 286.987304688 640.3203125 315.95703125 639.483398438 342.456054688 638.477539062 c 0
 362.028320312 637.734375 378.459960938 637.372070312 391.5703125 637.372070312 c 0
EndSplineSet
Validated: 1
MultipleSubs2: "'ccmp' Glyphen-Zusammensetzung/Zerlegung in Lateinisch Nachschlagetabelle 0 Subtabelle" Tok.cartopen T_under Tok.cartend
EndChar

StartChar: U
Encoding: 85 85 86
Width: 500
VWidth: 940
GlyphClass: 2
Flags: W
HStem: -9.65723 131.649<207.882 282.207> 639.991 13.002G<82.1753 98.7212 402.176 418.722>
VStem: 22.6045 130.765<173.129 632.776> 344.022 131.974<299.248 641.23>
LayerCount: 2
Fore
SplineSet
155.995117188 591 m 0
 155.995117188 532.782226562 153.369140625 466.015625 153.369140625 404.75 c 0
 153.369140625 327.715820312 157.602539062 247.809570312 170.924804688 186.319335938 c 0
 174.510742188 169.76953125 180.19921875 155.233398438 187.927734375 142.333984375 c 0
 193.223632812 136.826171875 204.564453125 125.912109375 207.75390625 123.276367188 c 0
 210.418945312 122.818359375 217.790039062 121.9921875 227.999023438 121.9921875 c 0
 263.294921875 121.9921875 284.305664062 139.521484375 296.63671875 164.184570312 c 0
 320.556640625 212.028320312 330.383789062 287.249023438 335.05859375 358.153320312 c 0
 338.721679688 413.70703125 341.790039062 473.375976562 342.506835938 529.319335938 c 0
 342.841796875 555.461914062 343.344726562 577.638671875 344.022460938 595.9296875 c 0
 344.086914062 597.665039062 344.331054688 599.395507812 344.754882812 601.08984375 c 0
 348.870117188 617.553710938 356.1640625 632.568359375 368.1953125 643.506835938 c 0
 379.561523438 653.83984375 394.3515625 659.991210938 410.000976562 659.991210938 c 0
 427.443359375 659.991210938 444.534179688 651.697265625 455.514648438 640.716796875 c 0
 465.491210938 630.740234375 471.552734375 618.133789062 475.169921875 604.388671875 c 0
 475.720703125 602.296875 475.99609375 600.147460938 475.99609375 597.998046875 c 0
 475.99609375 597.864257812 475.995117188 597.73046875 475.993164062 597.59765625 c 0
 474.59765625 509.700195312 471.6171875 411.086914062 463.374023438 328.012695312 c 0
 458.96875 283.615234375 452.857421875 241.8046875 445.009765625 202.567382812 c 0
 437.016601562 162.6015625 425.971679688 128.025390625 411.365234375 98.8115234375 c 0
 411.127929688 98.3369140625 410.875 97.8681640625 410.60546875 97.40625 c 0
 400.301757812 79.7421875 388.350585938 63.9912109375 374.6796875 50.3203125 c 0
 359.670898438 35.3115234375 340.666015625 23.734375 318.307617188 14.791015625 c 0
 297.640625 6.5244140625 279.30078125 0.2041015625 262.97265625 -4.150390625 c 0
 251.16796875 -7.2978515625 240.979492188 -9.6572265625 230.860351562 -9.6572265625 c 0
 227.856445312 -9.6572265625 224.859375 -9.44921875 221.827148438 -8.9921875 c 0
 204.46875 -8.9208984375 189.783203125 -7.9873046875 177.1796875 -5.87109375 c 0
 166.69921875 -4.111328125 157.424804688 -1.6796875 148.745117188 3.203125 c 0
 137.180664062 9.7080078125 126.263671875 16.7978515625 116.017578125 24.482421875 c 0
 101.552734375 35.3310546875 91.580078125 48.1240234375 80.6162109375 64.7470703125 c 0
 68.8505859375 82.5869140625 60.55078125 102.272460938 55.8642578125 123.346679688 c 0
 27.984375 207.79296875 22.6044921875 315.004882812 22.6044921875 426.841796875 c 0
 22.6044921875 479.612304688 24.0048828125 538.612304688 24.0048828125 587.998046875 c 0
 24.0048828125 590.045898438 24.2548828125 592.09375 24.75390625 594.091796875 c 0
 28.869140625 610.555664062 36.1630859375 625.5703125 48.1943359375 636.508789062 c 0
 59.560546875 646.841796875 74.3505859375 652.993164062 90 652.993164062 c 0
 107.442382812 652.993164062 124.533203125 644.69921875 135.513671875 633.71875 c 0
 145.490234375 623.7421875 151.551757812 611.135742188 155.168945312 597.390625 c 0
 155.719726562 595.298828125 155.995117188 593.149414062 155.995117188 591 c 0
EndSplineSet
Validated: 1
MultipleSubs2: "'ccmp' Glyphen-Zusammensetzung/Zerlegung in Lateinisch Nachschlagetabelle 0 Subtabelle" Tok.cartopen U_under Tok.cartend
EndChar

StartChar: V
Encoding: 86 86 87
Width: 500
VWidth: 940
GlyphClass: 2
Flags: W
HStem: 635.995 18.999G<56.5688 74.3057 421.125 438.746>
LayerCount: 2
Fore
SplineSet
430 655.995117188 m 0
 447.4921875 655.995117188 464.14453125 648.26171875 475.907226562 636.499023438 c 0
 488.081054688 624.325195312 493.995117188 607.836914062 493.995117188 590.999023438 c 0
 493.995117188 580.659179688 491.46875 570.931640625 487.641601562 560.8203125 c 0
 456.880859375 461.249023438 426.234375 374.490234375 395.59765625 300.423828125 c 0
 365.918945312 228.672851562 338.053710938 140.122070312 312.272460938 35.013671875 c 0
 312.0390625 34.0625 311.749023438 33.1220703125 311.40234375 32.1982421875 c 0
 305.79296875 17.240234375 295.80859375 4.1142578125 283.362304688 -5.10546875 c 0
 271.688476562 -13.7529296875 258.201171875 -19.9951171875 243 -19.9951171875 c 0
 224.834960938 -19.9951171875 207.78515625 -10.806640625 197.211914062 -0.2333984375 c 0
 190.807617188 6.1708984375 185.73046875 13.626953125 181.637695312 21.8115234375 c 0
 181.286132812 22.5146484375 180.969726562 23.23046875 180.688476562 23.95703125 c 0
 145.333984375 115.344726562 110.478515625 206.400390625 76.1240234375 297.123046875 c 0
 41.2041015625 389.33984375 16.8876953125 481.426757812 3.275390625 573.311523438 c 0
 2.650390625 577.53125 2.00390625 581.416015625 2.00390625 585.999023438 c 0
 2.00390625 604.51171875 7.396484375 622.751953125 20.8212890625 636.176757812 c 0
 32.4951171875 647.850585938 48.1396484375 654.994140625 64.998046875 654.994140625 c 0
 83.61328125 654.994140625 100.80859375 647.176757812 113.828125 634.157226562 c 0
 117.763671875 630.221679688 121.302734375 625.907226562 124.53515625 621.260742188 c 0
 125.674804688 619.622070312 126.595703125 617.876953125 127.298828125 616.06640625 c 0
 145.16015625 570.038085938 156.913085938 527.766601562 162.2578125 488.930664062 c 0
 166.998046875 454.48828125 175.689453125 420.305664062 188.41015625 386.27734375 c 0
 201.87109375 350.268554688 214.4921875 314.087890625 226.2734375 277.735351562 c 0
 230.266601562 265.4140625 234.439453125 252.849609375 238.791992188 240.041015625 c 1
 262.969726562 313.962890625 289.239257812 385.79296875 314.392578125 458.739257812 c 0
 333.037109375 512.341796875 350.6796875 563.772460938 367.321289062 613.029296875 c 0
 367.9140625 614.782226562 368.706054688 616.482421875 369.698242188 618.094726562 c 0
 373.771484375 624.712890625 378.344726562 630.729492188 383.662109375 636.046875 c 0
 395.956054688 648.340820312 412.250976562 655.995117188 430 655.995117188 c 0
EndSplineSet
Validated: 1
MultipleSubs2: "'ccmp' Glyphen-Zusammensetzung/Zerlegung in Lateinisch Nachschlagetabelle 0 Subtabelle" Tok.cartopen V_under Tok.cartend
EndChar

StartChar: W
Encoding: 87 87 88
Width: 500
VWidth: 940
GlyphClass: 2
Flags: W
HStem: 456.996 20G<261.858 264.569> 641.997 20G<44.6343 66.7886>
VStem: -9.8457 125.706<585.788 643.157>
LayerCount: 2
Fore
SplineSet
446 673.995117188 m 0
 463.234375 673.995117188 479.409179688 666.458007812 491.166015625 654.701171875 c 0
 505.217773438 640.649414062 509.999023438 621.479492188 509.999023438 601.998046875 c 2
 509.999023438 597.998046875 l 2
 509.999023438 596.668945312 509.893554688 595.33984375 509.682617188 594.024414062 c 0
 501.733398438 544.34375 496.129882812 503.240234375 492.870117188 470.969726562 c 0
 489.498046875 437.578125 482.803710938 379.877929688 472.79296875 297.790039062 c 0
 466.647460938 249.9921875 457.100585938 201.436523438 444.178710938 152.131835938 c 0
 431.552734375 103.956054688 420.264648438 58.9677734375 410.315429688 17.1796875 c 0
 408.685546875 10.3330078125 403.6796875 5.03515625 399.19140625 0.546875 c 0
 388.62109375 -10.0234375 375.788085938 -19.99609375 358.001953125 -19.99609375 c 0
 356.42578125 -19.99609375 354.849609375 -19.84765625 353.295898438 -19.5517578125 c 0
 342.130859375 -17.4248046875 331.118164062 -12.7939453125 322.405273438 -4.0810546875 c 0
 315.751953125 2.572265625 311.36328125 10.869140625 309.100585938 19.501953125 c 0
 293.6953125 59.8662109375 282.474609375 96.5673828125 275.536132812 129.87109375 c 0
 270.473632812 154.170898438 265.802734375 175.836914062 261.53125 194.842773438 c 1
 258.462890625 182.298828125 255.059570312 168.086914062 251.331054688 152.2421875 c 0
 240.396484375 105.771484375 225.743164062 58.0947265625 207.40625 9.197265625 c 0
 206.431640625 6.599609375 205.010742188 4.1318359375 203.142578125 1.9130859375 c 0
 198.295898438 -3.841796875 194.270507812 -8.3740234375 190.538085938 -12.1064453125 c 0
 188.35546875 -14.2890625 186.357421875 -16.1923828125 183.57421875 -18.240234375 c 0
 181.521484375 -19.7509765625 175.368164062 -24.1142578125 167.038085938 -24.1142578125 c 0
 148.830078125 -24.1142578125 133.016601562 -17.3974609375 120.79296875 -5.173828125 c 0
 114.154296875 1.46484375 108.931640625 9.2265625 104.639648438 17.8115234375 c 0
 104.221679688 18.646484375 103.853515625 19.5 103.53515625 20.3681640625 c 0
 81.123046875 81.4921875 64.416015625 142.096679688 53.4736328125 202.158203125 c 0
 42.1884765625 255.78515625 30.3447265625 317.575195312 19.4736328125 373.171875 c 0
 8.0908203125 431.349609375 -5.298828125 507.991210938 -10.8720703125 570.502929688 c 0
 -11.45703125 575.831054688 -11.802734375 580.75 -11.802734375 585.485351562 c 0
 -11.802734375 591.973632812 -11.466796875 596.793945312 -9.845703125 602.572265625 c 0
 -8.84375 617.911132812 -2.7783203125 632.578125 8.3232421875 643.6796875 c 0
 20.2099609375 655.56640625 36.267578125 661.997070312 53.0009765625 661.997070312 c 0
 80.576171875 661.997070312 100.271484375 646.172851562 111.81640625 628.854492188 c 0
 114.1015625 625.426757812 115.44921875 621.557617188 115.860351562 617.609375 c 0
 121.637695312 562.145507812 136.610351562 465.090820312 144.662109375 414.088867188 c 0
 152.696289062 367.2109375 157.74609375 333.750976562 159.870117188 312.506835938 c 0
 160.478515625 306.419921875 162.3046875 296.858398438 165.350585938 284.125 c 1
 168.868164062 296.481445312 171.713867188 309.73046875 174.47265625 323.830078125 c 0
 180.610351562 355.202148438 186.547851562 379.203125 192.99609375 397.030273438 c 0
 198.689453125 412.768554688 204.305664062 426.092773438 210.165039062 437.3046875 c 0
 212.78125 443.7421875 216.515625 447.87109375 220.100585938 451.456054688 c 0
 228.134765625 459.490234375 238.182617188 466.046875 251.599609375 473.713867188 c 0
 255.428710938 475.90234375 259.71484375 476.99609375 264.000976562 476.99609375 c 0
 265.137695312 476.99609375 266.274414062 476.918945312 267.40234375 476.765625 c 0
 286.869140625 474.111328125 304.834960938 464.485351562 316.529296875 449.903320312 c 0
 325.267578125 441.232421875 329.28515625 431.341796875 333.211914062 419.821289062 c 0
 338.149414062 405.336914062 342.265625 387.096679688 346.142578125 364.201171875 c 0
 347.1484375 358.26171875 348.09765625 352.671875 348.989257812 347.436523438 c 1
 356.720703125 390.282226562 361.557617188 431.232421875 363.538085938 470.27734375 c 0
 365.922851562 517.2890625 371.19921875 565.245117188 379.34765625 614.13671875 c 0
 379.45703125 614.79296875 379.592773438 615.446289062 379.754882812 616.09375 c 0
 383.939453125 632.83203125 391.829101562 648.245117188 404.59765625 658.791992188 c 0
 416.177734375 668.357421875 430.715820312 673.995117188 446 673.995117188 c 0
EndSplineSet
Validated: 1
MultipleSubs2: "'ccmp' Glyphen-Zusammensetzung/Zerlegung in Lateinisch Nachschlagetabelle 0 Subtabelle" Tok.cartopen W_under Tok.cartend
EndChar

StartChar: X
Encoding: 88 88 89
Width: 500
VWidth: 940
GlyphClass: 2
Flags: W
HStem: 638.236 21.7598G<70.7773 79.2476 399.718 417.99>
LayerCount: 2
Fore
SplineSet
408.135742188 658.236328125 m 0
 427.84375 658.236328125 443.728515625 652.629882812 456.677734375 639.680664062 c 0
 468.877929688 627.48046875 474.99609375 610.974609375 474.99609375 594.002929688 c 0
 474.99609375 583.200195312 472.307617188 571.016601562 467.501953125 561.094726562 c 0
 446.551757812 517.842773438 423.912109375 475.435546875 399.584960938 433.876953125 c 0
 377.794921875 396.65234375 355.146484375 356.473632812 331.647460938 313.349609375 c 1
 352.0078125 278.313476562 376.580078125 239.109375 405.337890625 195.823242188 c 0
 437.778320312 146.995117188 461.724609375 109.8359375 477.3984375 83.9404296875 c 0
 482.065429688 76.228515625 483.99609375 63.19140625 483.99609375 53.001953125 c 0
 483.99609375 35.7578125 478.178710938 18.82421875 465.678710938 6.32421875 c 0
 453.791992188 -5.5625 437.734375 -11.9931640625 421.000976562 -11.9931640625 c 0
 400.770507812 -11.9931640625 382.544921875 -2.8974609375 368.323242188 11.32421875 c 0
 367.087890625 12.5595703125 366.008789062 13.892578125 365.0859375 15.2978515625 c 0
 336.853515625 58.318359375 314.897460938 94.0849609375 299.067382812 122.993164062 c 0
 287.733398438 143.689453125 272.875976562 169.154296875 254.549804688 199.264648438 c 1
 232.75 170.387695312 215.8984375 144.74609375 204.0234375 122.66015625 c 0
 186.0546875 89.2392578125 159.012695312 52.19921875 122.88671875 10.6201171875 c 0
 121.172851562 8.6484375 119.055664062 6.875 116.85546875 5.5546875 c 0
 105.301757812 -1.3779296875 94.314453125 -6.4404296875 82.498046875 -8.5888671875 c 0
 81.01171875 -8.859375 79.505859375 -8.994140625 78 -8.994140625 c 0
 61.3505859375 -8.994140625 44.93359375 -3.2880859375 32.822265625 8.8232421875 c 0
 20.7109375 20.9345703125 15.0048828125 37.3515625 15.0048828125 54.0009765625 c 0
 15.0048828125 68.8603515625 19.8525390625 83.4091796875 27.7265625 96.142578125 c 0
 59.26953125 147.149414062 87.7001953125 190.399414062 113.140625 226.015625 c 0
 134.625976562 256.094726562 154.98046875 286.537109375 174.206054688 317.34375 c 1
 145.623046875 359.697265625 120.288085938 400.486328125 98.205078125 439.74609375 c 0
 75.0625 480.888671875 54.734375 516.405273438 37.2421875 546.263671875 c 1
 25.4453125 557.905273438 16.005859375 575.1953125 16.005859375 597.000976562 c 0
 16.005859375 613.9453125 22.568359375 630.438476562 34.427734375 642.297851562 c 0
 46.3662109375 654.236328125 62.5537109375 659.99609375 79.0009765625 659.99609375 c 0
 79.494140625 659.99609375 79.9873046875 659.981445312 80.48046875 659.952148438 c 0
 96.4111328125 659.014648438 111.580078125 653.600585938 124.515625 644.360351562 c 0
 126.913085938 642.647460938 129.119140625 640.377929688 130.760742188 637.936523438 c 0
 157.071289062 598.80859375 181.057617188 560.30078125 202.713867188 522.40234375 c 0
 217.826171875 495.955078125 234.495117188 468.096679688 252.717773438 438.838867188 c 1
 269.124023438 468.361328125 282.659179688 493.435546875 293.291992188 513.991210938 c 0
 308.506835938 543.40625 330.1015625 583.071289062 358.181640625 633.21484375 c 0
 359.538085938 635.63671875 361.419921875 637.962890625 363.5546875 639.830078125 c 0
 375.940429688 650.666992188 391.30078125 658.236328125 408.135742188 658.236328125 c 0
EndSplineSet
Validated: 1
MultipleSubs2: "'ccmp' Glyphen-Zusammensetzung/Zerlegung in Lateinisch Nachschlagetabelle 0 Subtabelle" Tok.cartopen X_under Tok.cartend
EndChar

